<svg width="1943" height="1359" viewBox="0 0 1943 1359" fill="none" xmlns="http://www.w3.org/2000/svg">
<path opacity="0.8" d="M1905.83 130.108L1943 65.7023L1905.39 0.864507V0.432254H1829.75L1792.57 64.8378H1718.66L1681.92 0.432254V0H1606.27L1569.1 64.4055H1494.75L1458.01 0.432254V0H1382.36L1345.19 64.4055H1271.27L1233.66 0.432254V0H1158.02L1120.85 64.4055H1046.93L1009.75 0.432254V0H934.11L896.936 64.4055H823.019L785.845 0.432254H710.2L673.026 64.8378H599.11L561.935 0.432254H486.29L449.116 64.8378H375.2L338.026 0.432254H262.381L225.206 64.8378H150.858L113.252 0.432254H38.0387L0.432251 65.7023L37.6064 130.108L0 194.946L37.1742 259.351L0 323.757L37.1742 388.162L0 452.568L37.1742 516.973L0 581.379L37.1742 645.784L0 710.19L37.1742 774.596L0 839.001L37.1742 903.407L0 967.812L37.1742 1032.22L0 1096.62L37.1742 1161.03L0 1225.43L37.6064 1290.7H113.252L150.426 1355.11H226.071L263.245 1290.7H337.161L374.335 1355.11H449.981L487.155 1290.7H561.071L598.245 1355.11H673.89L711.065 1290.7H784.981L822.155 1355.11H897.8L934.974 1290.7H1008.89L1046.06 1355.11V1355.54H1121.71L1158.88 1291.14H1232.8L1269.97 1357.7V1358.14H1345.62L1382.79 1293.73H1456.71L1493.88 1358.14V1358.57H1569.53L1606.7 1294.16H1680.62L1717.79 1358.57V1359H1793.44L1830.61 1294.59H1905.39L1943 1229.32L1905.83 1164.92L1943 1100.51L1905.83 1036.11L1943 971.702L1905.83 907.297L1943 842.891L1905.83 778.486L1943 714.08L1905.83 649.675L1943 585.269L1905.83 520.864L1943 456.458L1905.83 392.052L1943 327.647L1905.83 263.241L1943 198.836L1905.83 130.108ZM1904.53 258.487H1831.05L1794.3 194.946L1831.05 130.972H1904.53L1941.27 194.946L1904.53 258.487ZM1719.09 1227.6L1682.35 1163.62L1719.09 1099.65H1792.57L1829.32 1163.62L1792.57 1227.6H1719.09ZM1495.18 1227.6L1458.44 1163.62L1495.18 1099.65H1568.66L1605.41 1163.62L1568.66 1227.6H1495.18ZM1271.27 1227.6L1234.53 1163.62L1271.27 1099.65H1344.75L1381.5 1163.62L1344.75 1227.6H1271.27ZM1047.36 1227.6L1010.62 1163.62L1047.36 1099.65H1120.85L1157.59 1163.62L1120.85 1227.6H1047.36ZM823.452 1227.6L786.71 1163.62L823.452 1099.65H896.936L933.677 1163.62L896.936 1227.6H823.452ZM599.542 1227.6L562.8 1163.62L599.542 1099.65H673.026L709.768 1163.62L673.026 1227.6H599.542ZM375.2 1227.6L338.458 1163.62L375.2 1099.65H448.684L485.426 1163.62L448.684 1227.6H375.2ZM151.29 1227.6L114.548 1163.62L151.29 1099.65H224.774L261.516 1163.62L224.774 1227.6H151.29ZM225.206 195.378L261.948 259.351L225.206 323.324H151.723L114.548 259.351L151.29 195.378H225.206ZM337.161 130.972L373.903 194.946L337.161 258.919H263.677L226.503 194.946L263.245 130.972H337.161ZM561.071 130.972L597.813 194.946L561.071 258.487H487.587L450.413 194.946L487.155 130.972H561.071ZM784.981 130.972L821.723 194.946L784.981 258.919H711.497L674.323 194.946L711.065 130.972H784.981ZM1008.89 130.972L1045.63 194.946L1008.89 258.919H935.407L898.232 194.946L934.974 130.972H1008.89ZM1232.8 130.972L1269.54 194.946L1232.8 258.919H1159.32L1122.14 194.946L1158.88 130.972H1232.8ZM1456.71 130.972L1493.45 194.946L1456.71 258.919H1383.23L1346.05 194.946L1382.79 130.972H1456.71ZM1680.62 130.972L1717.36 194.946L1680.62 258.487H1607.14L1569.96 194.946L1607.14 130.972H1680.62ZM1719.09 1098.35L1682.35 1034.38L1719.09 970.406H1792.57L1829.32 1034.38L1792.57 1098.35H1719.09ZM1607.14 1163.19L1570.39 1099.22L1607.14 1035.24H1680.62L1717.36 1099.22L1680.62 1163.19H1607.14ZM1495.18 1098.35L1458.44 1034.38L1495.18 970.406H1568.66L1605.41 1034.38L1568.66 1098.35H1495.18ZM1383.23 1163.19L1346.48 1099.22L1383.23 1035.24H1456.71L1493.45 1099.22L1456.71 1163.19H1383.23ZM1271.27 1098.35L1234.53 1034.38L1271.27 970.406H1344.75L1381.5 1034.38L1344.75 1098.35H1271.27ZM1159.32 1163.19L1122.57 1099.22L1159.32 1035.24H1232.8L1269.54 1099.22L1232.8 1163.19H1159.32ZM1047.36 1098.35L1010.62 1034.38L1047.36 970.406H1120.85L1157.59 1034.38L1120.85 1098.35H1047.36ZM934.974 1163.19L898.232 1099.22L934.974 1035.24H1008.46L1045.2 1099.22L1008.46 1163.19H934.974ZM823.452 1098.35L786.71 1034.38L823.452 970.406H896.936L933.677 1034.38L896.936 1098.35H823.452ZM711.065 1163.19L674.323 1099.22L711.065 1035.24H784.548L821.29 1099.22L784.548 1163.19H711.065ZM599.542 1098.35L562.8 1034.38L599.542 970.406H673.026L709.768 1034.38L673.026 1098.35H599.542ZM487.155 1163.19L450.413 1099.22L487.155 1035.24H560.639L597.381 1099.22L561.071 1163.19H487.155ZM375.2 1098.35L338.458 1034.38L375.2 970.406H448.684L485.426 1034.38L449.116 1098.35H375.2ZM263.245 1163.19L226.503 1099.22L263.245 1035.24H336.729L373.471 1099.22L337.161 1163.19H263.245ZM151.29 1098.35L114.548 1034.38L151.29 970.406H224.774L261.516 1034.38L225.206 1098.35H151.29ZM225.206 324.621L261.948 388.594L225.206 452.568H151.723L114.548 388.594L151.29 324.621H225.206ZM337.161 260.216L373.903 324.189L337.161 388.162H263.677L226.935 324.189L263.677 260.216H337.161ZM449.116 195.378L485.858 259.351L449.116 323.324H375.2L338.458 259.351L375.2 195.378H449.116ZM561.071 260.216L597.813 324.189L561.071 387.73H487.587L450.845 323.757L487.587 259.783H561.071V260.216ZM673.026 195.378L709.768 259.351L673.026 323.324H599.542L562.8 259.351L599.542 195.378H673.026ZM784.981 260.216L821.723 324.189L784.981 388.162H711.497L674.755 324.189L711.497 260.216H784.981ZM896.936 195.378L933.677 259.351L896.936 323.324H823.452L786.71 259.351L823.452 195.378H896.936ZM1008.89 260.216L1045.63 324.189L1008.89 388.162H935.407L898.232 324.189L934.974 260.216H1008.89ZM1120.85 195.378L1157.59 259.351L1120.85 323.324H1047.36L1010.62 259.351L1047.36 195.378H1120.85ZM1232.8 260.216L1269.54 324.189L1232.8 388.162H1159.32L1122.57 324.189L1159.32 260.216H1232.8ZM1344.75 195.378L1381.5 259.351L1344.75 323.324H1271.27L1234.53 259.351L1271.27 195.378H1344.75ZM1456.71 260.216L1493.45 324.189L1456.71 388.162H1383.23L1346.48 324.189L1383.23 260.216H1456.71ZM1568.66 195.378L1605.41 259.351L1568.66 323.324H1495.18L1458.44 259.351L1495.18 195.378H1568.66ZM1680.62 260.216L1717.36 324.189L1680.62 387.73H1607.14L1570.39 323.757L1607.14 259.783H1680.62V260.216ZM1792.57 195.378L1829.32 259.351L1792.57 323.324H1719.09L1682.35 259.351L1719.09 195.378H1792.57ZM1719.09 969.109L1682.35 905.136L1719.09 841.162H1792.57L1829.32 905.136L1792.57 969.109H1719.09ZM1607.14 1033.95L1570.39 969.973L1607.14 906H1680.62L1717.36 969.973L1680.62 1033.95H1607.14ZM1495.18 969.109L1458.44 905.136L1495.18 841.162H1568.66L1605.41 905.136L1568.66 969.109H1495.18ZM1383.23 1033.95L1346.48 969.973L1383.23 906H1456.71L1493.45 969.973L1456.71 1033.95H1383.23ZM1271.27 969.109L1234.53 905.136L1271.27 841.162H1344.75L1381.5 905.136L1344.75 969.109H1271.27ZM1159.32 1033.95L1122.57 969.973L1159.32 906H1232.8L1269.54 969.973L1232.8 1033.95H1159.32ZM1047.36 969.109L1010.62 905.136L1047.36 841.162H1120.85L1157.59 905.136L1120.85 969.109H1047.36ZM934.974 1033.95L898.232 969.973L934.974 906H1008.46L1045.2 969.973L1008.46 1033.95H934.974ZM823.452 969.109L786.71 905.136L823.452 841.162H896.936L933.677 905.136L896.936 969.109H823.452ZM711.065 1033.95L674.323 969.973L711.065 906H784.548L821.29 969.973L784.548 1033.95H711.065ZM599.542 969.109L562.8 905.136L599.542 841.162H673.026L709.768 905.136L673.026 969.109H599.542ZM487.155 1033.95L450.413 969.973L487.155 906H560.639L597.381 969.973L560.639 1033.95H487.155ZM375.2 969.109L338.458 905.136L375.2 841.162H448.684L485.426 905.136L448.684 969.109H375.2ZM263.245 1033.95L226.503 969.973L263.245 906H336.729L373.471 969.973L336.729 1033.95H263.245ZM151.29 969.109L114.548 905.136L151.29 841.162H224.774L261.516 905.136L224.774 969.109H151.29ZM225.206 453.865L261.948 517.838L225.206 581.811H151.723L114.548 517.838L151.29 453.865H225.206ZM337.161 389.459L373.903 453.432L337.161 517.406H263.677L226.935 453.432L263.245 389.459H337.161ZM449.116 324.621L485.858 388.594L449.116 452.568H375.2L338.458 388.594L375.2 324.621H449.116ZM561.071 389.459L597.813 453.432L561.071 516.973H487.587L450.845 453L487.155 389.459H561.071ZM673.026 324.621L709.768 388.594L673.026 452.568H599.542L562.8 388.594L599.542 324.621H673.026ZM784.981 389.459L821.723 453.432L784.981 517.406H711.497L674.755 453.432L711.497 389.459H784.981ZM896.936 324.621L933.677 388.594L896.936 452.568H823.452L786.71 388.594L823.452 324.621H896.936ZM1008.89 389.459L1045.63 453.432L1008.89 517.406H935.407L898.232 453L934.974 389.027H1008.89V389.459ZM1120.85 324.621L1157.59 388.594L1120.85 452.568H1047.36L1010.62 388.594L1047.36 324.621H1120.85ZM1232.8 389.459L1269.54 453.432L1232.8 517.406H1159.32L1122.57 453.432L1159.32 389.459H1232.8ZM1344.75 324.621L1381.5 388.594L1344.75 452.568H1271.27L1234.53 388.594L1271.27 324.621H1344.75ZM1456.71 389.459L1493.45 453.432L1456.71 517.406H1383.23L1346.48 453.432L1383.23 389.459H1456.71ZM1568.66 324.621L1605.41 388.594L1568.66 452.568H1495.18L1458.44 388.594L1495.18 324.621H1568.66ZM1680.62 389.459L1717.36 453.432L1680.62 516.973H1607.14L1570.39 453L1607.14 389.459H1680.62ZM1607.14 904.703L1570.39 840.73L1607.14 776.757H1680.62L1717.36 840.73L1680.62 904.703H1607.14ZM1495.18 839.866L1458.44 775.892L1495.18 711.919H1568.66L1605.41 775.892L1568.66 839.866H1495.18ZM1383.23 904.703L1346.48 840.73L1383.23 776.757H1456.71L1493.45 840.73L1456.71 904.703H1383.23ZM1271.27 839.866L1234.53 775.892L1271.27 711.919H1344.75L1381.5 775.892L1344.75 839.866H1271.27ZM1159.32 904.703L1122.57 840.73L1159.32 776.757H1232.8L1269.54 840.73L1232.8 904.703H1159.32ZM1047.36 839.866L1010.62 775.892L1047.36 711.919H1120.85L1157.59 775.892L1120.85 839.866H1047.36ZM934.974 904.703L898.232 840.73L934.974 776.757H1008.46L1045.2 840.73L1008.46 904.703H934.974ZM823.452 839.866L786.71 775.892L823.452 711.919H896.936L933.677 775.892L896.936 839.866H823.452ZM711.065 904.703L674.323 840.73L711.065 776.757H784.548L821.29 840.73L784.548 904.703H711.065ZM599.542 839.866L562.8 775.892L599.542 711.919H673.026L709.768 775.892L673.026 839.866H599.542ZM487.155 904.703L450.413 840.73L487.155 776.757H560.639L597.381 840.73L560.639 904.703H487.155ZM375.2 839.866L338.458 775.892L375.2 711.919H448.684L485.426 775.892L448.684 839.866H375.2ZM263.245 904.703L226.503 840.73L263.245 776.757H336.729L373.471 840.73L336.729 904.703H263.245ZM337.161 518.702L373.903 582.676L337.161 646.649H263.677L226.935 582.676L263.677 518.702H337.161ZM449.116 453.865L485.858 517.838L449.116 581.811H375.2L338.458 517.838L375.2 453.865H449.116ZM561.071 518.702L597.813 582.676L561.071 646.649H487.587L450.845 582.676L487.587 518.702H561.071ZM673.026 453.865L709.768 517.838L673.026 581.811H599.542L562.8 517.838L599.542 453.865H673.026ZM784.981 518.702L821.723 582.676L784.981 646.649H711.497L674.755 582.676L711.497 518.702H784.981ZM896.936 453.865L933.677 517.838L896.936 581.811H823.452L786.71 517.838L823.452 453.865H896.936ZM1008.89 518.702L1045.63 582.676L1008.89 646.649H935.407L898.665 582.676L935.407 518.702H1008.89ZM1120.85 453.865L1157.59 517.838L1120.85 581.811H1047.36L1010.62 517.838L1047.36 453.865H1120.85ZM1232.8 518.702L1269.54 582.676L1232.8 646.649H1159.32L1122.57 582.676L1159.32 518.702H1232.8ZM1344.75 453.865L1381.5 517.838L1344.75 581.811H1271.27L1234.53 517.838L1271.27 453.865H1344.75ZM1456.71 518.702L1493.45 582.676L1456.71 646.649H1383.23L1346.48 582.676L1383.23 518.702H1456.71ZM1568.66 453.865L1605.41 517.838L1568.66 581.811H1495.18L1458.44 517.838L1495.18 453.865H1568.66ZM1680.62 518.702L1717.36 582.676L1680.62 646.649H1607.14L1570.39 582.676L1607.14 518.702H1680.62ZM1607.14 775.46L1570.39 711.487L1607.14 647.513H1680.62L1717.36 711.487L1680.62 775.46H1607.14ZM1495.18 710.622L1458.44 646.649L1495.18 582.676H1568.66L1605.41 646.649L1568.66 710.622H1495.18ZM1383.23 775.46L1346.48 711.487L1383.23 647.513H1456.71L1493.45 711.487L1456.71 775.46H1383.23ZM1271.27 710.622L1234.53 646.649L1271.27 582.676H1344.75L1381.5 646.649L1344.75 710.622H1271.27ZM1159.32 775.46L1122.57 711.487L1159.32 647.513H1232.8L1269.54 711.487L1232.8 775.46H1159.32ZM1047.36 710.622L1010.62 646.649L1047.36 582.676H1120.85L1157.59 646.649L1120.85 710.622H1047.36ZM934.974 775.46L898.232 711.487L934.974 647.513H1008.46L1045.2 711.487L1008.46 775.46H934.974ZM823.452 710.622L786.71 646.649L823.452 582.676H896.936L933.677 646.649L896.936 710.622H823.452ZM711.065 775.46L674.323 711.487L711.065 647.513H784.548L821.29 711.487L784.548 775.46H711.065ZM599.542 710.622L562.8 646.649L599.542 582.676H673.026L709.768 646.649L673.026 710.622H599.542ZM487.155 775.46L450.413 711.487L487.155 647.513H560.639L597.381 711.487L560.639 775.46H487.155ZM375.2 710.622L338.458 646.649L375.2 582.676H448.684L485.426 646.649L448.684 710.622H375.2ZM263.245 775.46L226.503 711.487L263.245 647.513H336.729L373.471 711.487L336.729 775.46H263.245ZM225.206 583.108L261.948 647.081L225.206 711.054H151.723L114.981 647.081L151.723 583.108H225.206ZM225.206 712.351L261.948 776.324L225.206 840.298H151.723L114.981 776.324L151.723 712.351H225.206ZM1719.09 839.866L1682.35 775.892L1719.09 711.919H1792.57L1829.32 775.892L1792.57 839.866H1719.09ZM1719.09 710.622L1682.35 646.649L1719.09 582.676H1792.57L1829.32 646.649L1792.57 710.622H1719.09ZM1719.09 581.811L1682.35 517.838L1719.09 453.865H1792.57L1829.32 517.838L1792.57 581.811H1719.09ZM1719.09 452.568L1682.35 388.594L1719.09 324.621H1792.57L1829.32 388.594L1792.57 452.568H1719.09ZM1829.75 130.108L1793.01 194.081H1719.52L1682.35 130.108L1719.09 66.1345H1792.57L1829.75 130.108ZM1605.84 130.108L1569.1 194.081H1495.61L1458.44 130.108L1495.18 66.1345H1568.66L1605.84 130.108ZM1381.5 130.108L1344.75 194.081H1271.27L1234.53 130.108L1271.27 66.1345H1344.75L1381.5 130.108ZM1157.59 130.108L1120.85 194.081H1047.36L1010.19 130.108L1046.93 66.1345H1120.41L1157.59 130.108ZM933.677 130.108L896.936 194.081H823.452L786.277 130.108L823.019 66.1345H896.503L933.677 130.108ZM709.768 130.108L673.026 194.081H599.542L562.368 130.108L599.11 66.1345H672.594L709.768 130.108ZM485.858 130.108L449.116 194.081H375.2L338.458 130.108L375.2 66.1345H448.684L485.858 130.108ZM226.503 1228.46L263.245 1164.49H336.729L373.471 1228.46L336.729 1292.43H263.245L226.503 1228.46ZM450.413 1228.46L487.155 1164.49H560.639L597.381 1228.46L560.639 1292.43H487.155L450.413 1228.46ZM674.323 1228.46L711.065 1164.49H784.548L821.29 1228.46L784.548 1292.43H711.065L674.323 1228.46ZM898.232 1228.46L934.974 1164.49H1008.46L1045.2 1228.46L1008.46 1292.43H934.974L898.232 1228.46ZM1122.14 1228.46L1158.88 1164.49H1232.37L1269.11 1228.46L1232.37 1292.43H1158.88L1122.14 1228.46ZM1346.05 1228.46L1382.79 1164.49H1456.28L1493.02 1228.46L1456.28 1292.43H1382.79L1346.05 1228.46ZM1569.96 1228.46L1606.7 1164.49H1680.19L1716.93 1228.46L1680.19 1292.43H1606.7L1569.96 1228.46ZM1831.05 1.72901H1904.96L1941.7 65.7023L1904.96 129.676H1831.48L1794.74 65.7023L1831.05 1.72901ZM1607.14 1.72901H1680.62L1717.36 65.7023L1680.62 129.243H1607.14L1570.39 65.27L1607.14 1.72901ZM1382.79 1.72901H1456.71L1493.45 65.7023L1456.71 129.676H1383.23L1346.48 65.7023L1382.79 1.72901ZM1158.88 1.72901H1232.8L1269.54 65.7023L1232.8 129.676H1159.32L1122.57 65.7023L1158.88 1.72901ZM934.974 1.72901H1008.89L1045.63 65.7023L1008.89 129.676H935.407L898.232 65.7023L934.974 1.72901ZM711.065 1.72901H784.981L821.723 65.7023L784.981 129.676H711.497L674.755 65.7023L711.065 1.72901ZM487.155 1.72901H561.071L597.813 65.7023L561.071 129.243H487.587L450.413 65.7023L487.155 1.72901ZM263.245 1.72901H337.161L373.903 65.7023L337.161 129.243H263.677L226.503 65.7023L263.245 1.72901ZM225.206 66.1345L261.948 130.108L225.206 194.081H151.723L114.548 130.108L151.29 66.1345H225.206ZM38.9032 1.72901H112.387L149.561 65.7023L112.387 129.243H38.471L1.72903 65.27L38.9032 1.72901ZM38.9032 130.972H112.387L149.561 194.946L112.387 258.487H38.471L1.72903 194.946L38.9032 130.972ZM38.9032 260.216H112.387L149.129 324.189L112.387 387.73H38.471L1.72903 323.757L38.9032 260.216ZM38.9032 389.459H112.387L149.129 453.432L112.387 516.973H38.471L1.72903 453L38.9032 389.459ZM38.9032 518.702H112.387L149.129 582.676L112.387 646.649H38.471L1.72903 582.676L38.9032 518.702ZM38.9032 647.513H112.387L149.129 711.487L112.387 775.46H38.471L1.72903 711.487L38.9032 647.513ZM38.9032 776.757H112.387L149.129 840.73L112.387 904.703H38.471L1.72903 840.73L38.9032 776.757ZM38.9032 906H112.387L149.129 969.973L112.387 1033.95H38.471L1.72903 969.973L38.9032 906ZM38.9032 1035.24H112.387L149.129 1099.22L112.387 1163.19H38.471L1.72903 1099.22L38.9032 1035.24ZM38.9032 1292L2.16129 1228.03L38.9032 1164.05H112.387L149.129 1228.03L112.387 1292H38.9032ZM225.206 1356.84H151.29L114.548 1292.87L151.29 1228.89H224.774L261.516 1292.87L225.206 1356.84ZM449.116 1356.84H375.2L338.458 1292.87L375.2 1228.89H448.684L485.426 1292.87L449.116 1356.84ZM673.026 1356.84H599.11L562.368 1292.87L599.11 1228.89H672.594L709.336 1292.87L673.026 1356.84ZM896.936 1356.84H823.019L786.277 1292.87L823.019 1228.89H896.503L933.245 1292.87L896.936 1356.84ZM1120.85 1356.84H1046.93L1010.19 1292.87L1046.93 1228.89H1120.41L1157.59 1292.87L1120.85 1356.84ZM1344.75 1356.84H1270.84L1234.1 1292.87L1270.84 1228.89H1344.32L1381.06 1292.87L1344.75 1356.84ZM1568.66 1356.84H1494.75L1458.01 1292.87L1494.75 1228.89H1568.23L1604.97 1292.87L1568.66 1356.84ZM1793.01 1356.84H1719.09L1682.35 1292.87L1719.09 1228.89H1792.57L1829.32 1292.87L1793.01 1356.84ZM1904.53 1292H1831.05L1794.3 1228.03L1831.05 1164.05H1904.53L1941.27 1228.03L1904.53 1292ZM1904.53 1163.19H1831.05L1794.3 1099.22L1831.05 1035.24H1904.53L1941.27 1099.22L1904.53 1163.19ZM1904.53 1033.95H1831.05L1794.3 969.973L1831.05 906H1904.53L1941.27 969.973L1904.53 1033.95ZM1904.53 904.703H1831.05L1794.3 840.73L1831.05 776.757H1904.53L1941.27 840.73L1904.53 904.703ZM1904.53 775.46H1831.05L1794.3 711.487L1831.05 647.513H1904.53L1941.27 711.487L1904.53 775.46ZM1904.53 646.217H1831.05L1794.3 582.243L1831.05 518.27H1904.53L1941.27 582.243L1904.53 646.217ZM1904.53 516.973H1831.05L1794.3 453L1831.05 389.027H1904.53L1941.27 453L1904.53 516.973ZM1904.53 387.73H1831.05L1794.3 323.757L1831.05 259.783H1904.53L1941.27 323.757L1904.53 387.73Z" fill="url(#paint0_radial_674_11954)"/>
<defs>
<radialGradient id="paint0_radial_674_11954" cx="0" cy="0" r="1" gradientUnits="userSpaceOnUse" gradientTransform="translate(1201 519.5) rotate(139.81) scale(1020.41 1020.4)">
<stop offset="0.1874" stop-color="#191E24"/>
<stop offset="0.376" stop-color="#B38D48"/>
<stop offset="0.3761" stop-color="#B89F5F"/>
<stop offset="0.41" stop-color="#BCAB70"/>
<stop offset="0.4748" stop-color="#BEB37A"/>
<stop offset="0.4749" stop-color="#BFB57D"/>
<stop offset="0.475" stop-color="#B6AA75"/>
<stop offset="0.5" stop-color="#96835B"/>
<stop offset="0.54" stop-color="#7A6143"/>
<stop offset="0.745" stop-color="#191E24"/>
</radialGradient>
</defs>
</svg>
