<svg width="64" height="60" viewBox="0 0 64 60" fill="none" xmlns="http://www.w3.org/2000/svg">
<path d="M46.0269 3C47.0939 3 48.0806 3.56673 48.6182 4.48839L62.6182 28.4884C63.1631 29.4225 63.1631 30.5775 62.6182 31.5116L48.6182 55.5116C48.0806 56.4333 47.0939 57 46.0269 57L17.9731 57C16.9061 57 15.9194 56.4333 15.3818 55.5116L1.38177 31.5116C0.83689 30.5775 0.83689 29.4225 1.38177 28.4884L15.3818 4.48839C15.9194 3.56673 16.9061 3 17.9731 3L46.0269 3Z" fill="#FEA434"/>
<path d="M28.4646 33.5356L21.3934 26.4646L17.8579 30.0001L28.4646 40.6068L46.1421 22.9291L42.6066 19.3936L28.4646 33.5356Z" fill="black"/>
</svg>
