<svg xmlns="http://www.w3.org/2000/svg" version="1.1" xmlns:xlink="http://www.w3.org/1999/xlink" xmlns:svgjs="http://svgjs.dev/svgjs" width="1000" height="1000"><g clip-path="url(#SvgjsClipPath1226)"><rect width="1000" height="1000" fill="#000000"></rect><g transform="matrix(2.684563758389262,0,0,2.684563758389262,100,263.7583892617449)"><svg xmlns="http://www.w3.org/2000/svg" version="1.1" xmlns:xlink="http://www.w3.org/1999/xlink" xmlns:svgjs="http://svgjs.dev/svgjs" width="298" height="176"><svg width="298" height="176" viewBox="0 0 298 176" fill="none" xmlns="http://www.w3.org/2000/svg">
<path fill-rule="evenodd" clip-rule="evenodd" d="M190.695 24.2999L224.79 44.011V83.434L217.076 48.4712L190.695 24.2999Z" fill="#F69C00"></path>
<path fill-rule="evenodd" clip-rule="evenodd" d="M73.0538 92.3141V123.116H79.85L73.0538 92.3141Z" fill="#F69C00"></path>
<path fill-rule="evenodd" clip-rule="evenodd" d="M224.79 92.3141V123.116H217.994L224.79 92.3141Z" fill="#F69C00"></path>
<path fill-rule="evenodd" clip-rule="evenodd" d="M107.148 24.2993L73.0541 44.0111L73.0538 83.4344L80.7684 48.4711L107.148 24.2993Z" fill="#F69C00"></path>
<path fill-rule="evenodd" clip-rule="evenodd" d="M22.7875 152.05H12.3746V151.241C13.99 151.241 14.7977 150.856 14.7977 150.086C14.7977 149.585 14.2975 148.671 13.2978 147.342L10.298 143.385L7.58655 146.735C6.58622 147.968 6.08662 148.921 6.08662 149.595C6.08662 150.615 6.8554 151.164 8.39423 151.241V152.05H0.317938V151.241C2.18282 151.241 4.29834 149.739 6.66338 146.735L9.8361 142.72L4.24035 135.384C3.4135 134.287 2.85591 133.613 2.56749 133.362C1.89447 132.765 1.10589 132.467 0.202515 132.467V131.658H10.067V132.467C10.067 132.467 9.84596 132.467 9.40386 132.467C8.23061 132.467 7.64398 132.785 7.64398 133.42C7.64398 133.805 7.92309 134.363 8.48069 135.095L12.2017 140.034L14.8551 136.8C15.7783 135.682 16.2395 134.778 16.2395 134.084C16.2395 133.564 15.9802 133.15 15.4609 132.842C15.0188 132.592 14.5087 132.467 13.932 132.467V131.658H21.8928V132.467C20.7584 132.563 19.6142 133.102 18.4607 134.084C17.7685 134.662 16.8836 135.605 15.8067 136.915L12.692 140.699L18.5471 148.382C19.797 150.019 20.8548 150.933 21.7199 151.125C22.0663 151.203 22.422 151.241 22.7875 151.241V152.05ZM19.2393 132.524C19.1622 132.505 19.0856 132.486 19.0084 132.467H15.8067C16.4032 132.794 16.7008 133.246 16.7008 133.824C16.7008 134.113 16.6817 134.325 16.6434 134.46L16.6724 134.489C16.6916 134.354 17.0762 134.017 17.8259 133.478C18.499 132.977 18.9701 132.659 19.2393 132.524ZM16.2976 149.999C16.2976 149.325 15.6721 148.16 14.4222 146.504L5.16345 134.315C4.62502 133.603 4.22118 133.15 3.95193 132.958C3.52899 132.631 2.95223 132.467 2.22171 132.467L2.13462 132.524C2.15442 132.505 2.18282 132.496 2.22171 132.496C2.56749 132.496 3.21155 133.122 4.15389 134.373L13.73 147.169C14.7495 148.536 15.2589 149.508 15.2589 150.086C15.2589 150.49 15.0089 150.875 14.5087 151.241C15.7011 151.241 16.2976 150.827 16.2976 149.999ZM5.79827 151.241C5.25984 150.933 4.99059 150.558 4.99059 150.114C4.99059 149.749 5.06712 149.354 5.22151 148.93L5.19248 148.902C4.05819 150.076 3.08682 150.856 2.27914 151.241H5.79827ZM42.4302 137.232C42.4302 139.004 41.7663 140.381 40.4393 141.363C39.4013 142.114 37.8724 142.576 35.8532 142.749C35.3727 142.788 33.7382 142.807 30.9502 142.807V148.93C30.9502 149.893 31.3442 150.548 32.1327 150.895C32.6323 151.125 33.4499 151.241 34.5842 151.241V152.05H24.0849V151.241C25.2964 151.241 26.1233 151.087 26.5654 150.779C27.1038 150.375 27.3731 149.595 27.3731 148.439V135.326C27.3731 134.113 27.1137 133.314 26.5944 132.929C26.1714 132.602 25.3347 132.438 24.0849 132.438V131.658H34.0075C36.3151 131.658 38.1799 132.014 39.6032 132.726C41.4878 133.651 42.4302 135.153 42.4302 137.232ZM39.8916 137.261C39.8916 134.719 38.7283 133.15 36.4015 132.553L36.3151 132.582C38.1034 133.468 38.9975 135.047 38.9975 137.319C38.9975 139.611 38.1034 141.122 36.3151 141.854L36.4015 141.883C38.7283 141.555 39.8916 140.015 39.8916 137.261ZM38.5072 137.261C38.5072 134.045 36.8535 132.438 33.5462 132.438C32.4693 132.438 31.7573 132.678 31.4115 133.16C31.104 133.545 30.9502 134.296 30.9502 135.413V141.999H32.9688C34.796 141.999 36.1422 141.671 37.0073 141.016C38.007 140.265 38.5072 139.014 38.5072 137.261ZM28.7581 149.075V134.807C28.7581 133.959 28.6087 133.352 28.3104 132.987C28.0128 132.621 27.4502 132.438 26.6234 132.438C27.181 132.726 27.5225 133.001 27.6472 133.261C27.7726 133.521 27.835 133.988 27.835 134.662V149.191C27.835 150.249 27.4792 150.933 26.7673 151.241H27.1427C28.2196 151.241 28.7581 150.519 28.7581 149.075ZM61.7844 152.05H53.2178V151.241C54.6986 151.241 55.4384 150.837 55.4384 150.028C55.4384 149.701 55.3038 149.191 55.0351 148.497L53.4198 144.367H46.5834L45.6319 146.822C45.3818 147.457 45.2564 148.102 45.2564 148.757C45.2564 149.45 45.4732 150.038 45.9054 150.519C46.3383 151.001 46.9009 151.241 47.5931 151.241V152.05H40.9012V151.241C41.6706 151.241 42.4202 150.779 43.1514 149.855C43.6898 149.162 44.1412 148.343 44.5068 147.4L49.4968 134.604C49.0356 133.737 48.2087 133.305 47.0163 133.305V132.698L49.6122 131.485H52.2083L58.871 148.526C59.5824 150.336 60.5537 151.241 61.7844 151.241V152.05ZM56.8518 150.028C56.8518 149.508 56.6789 148.815 56.3325 147.948L51.1696 134.893C50.6892 133.68 50.0643 133.073 49.2949 133.073C49.0448 133.073 48.8046 133.112 48.5737 133.189C49.3239 133.478 49.9105 134.161 50.3335 135.239L55.4384 148.295C55.7465 149.084 55.9003 149.682 55.9003 150.086C55.9003 150.49 55.6403 150.875 55.1216 151.241H55.4384C56.3807 151.241 56.8518 150.837 56.8518 150.028ZM53.0444 143.443L49.9581 135.644L46.9298 143.443H53.0444ZM45.228 151.241C44.6513 150.818 44.3623 150.288 44.3623 149.653C44.3623 149.46 44.4105 149.123 44.5068 148.642L44.4778 148.613C43.8819 149.903 43.2088 150.779 42.4592 151.241H45.228ZM86.5035 152.05H76.8693V151.241C77.9653 151.241 78.7057 151.135 79.0905 150.923C79.6289 150.615 79.8981 149.961 79.8981 148.959V142.085H69.6297V149.075C69.6297 149.98 69.928 150.586 70.5239 150.895C70.9277 151.125 71.6292 151.241 72.6295 151.241V152.05H62.9953V151.241C64.0914 151.241 64.8318 151.125 65.2165 150.895C65.755 150.586 66.0241 149.941 66.0241 148.959V134.748C66.0241 133.747 65.745 133.093 65.1874 132.785C64.8225 132.572 64.0914 132.467 62.9953 132.467V131.658H72.6295V132.467C71.6873 132.467 70.995 132.582 70.5529 132.813C69.9372 133.16 69.6297 133.767 69.6297 134.633V141.016H79.8981V134.719C79.8981 133.796 79.5906 133.16 78.975 132.813C78.552 132.582 77.8498 132.467 76.8693 132.467V131.658H86.5035V132.467C85.484 132.467 84.7727 132.572 84.3688 132.785C83.7729 133.093 83.4747 133.709 83.4747 134.633V149.075C83.4747 150.019 83.763 150.644 84.3398 150.952C84.7245 151.145 85.4457 151.241 86.5035 151.241V152.05ZM81.2826 149.075V134.633C81.2826 133.882 81.206 133.372 81.0516 133.102C80.8404 132.678 80.3983 132.467 79.7252 132.467H79.3214C80.0136 132.794 80.3594 133.535 80.3594 134.691V148.988C80.3594 149.604 80.3118 150.047 80.2155 150.317C80.0809 150.683 79.7827 150.991 79.3214 151.241H79.7826C80.7823 151.241 81.2826 150.519 81.2826 149.075ZM67.4376 149.075V134.633C67.4376 133.843 67.303 133.285 67.0338 132.958C66.7645 132.631 66.2452 132.467 65.4759 132.467C65.9186 132.736 66.2069 133.054 66.3415 133.42C66.457 133.709 66.5144 134.142 66.5144 134.719V149.017C66.5144 149.614 66.4663 150.047 66.3705 150.317C66.2162 150.664 65.9186 150.972 65.4759 151.241H65.9087C66.9282 151.241 67.4376 150.519 67.4376 149.075ZM111.742 152.05H102.108V151.241C103.204 151.241 103.944 151.135 104.329 150.923C104.867 150.615 105.137 149.961 105.137 148.959V137.088H105.05L95.5603 147.371C95.0991 147.871 94.8682 148.439 94.8682 149.075C94.8682 149.98 95.1664 150.586 95.7623 150.895C96.1661 151.125 96.8676 151.241 97.868 151.241V152.05H88.2337V151.241C89.3107 151.241 90.0511 151.135 90.4549 150.923C90.9933 150.596 91.2626 149.941 91.2626 148.959V134.748C91.2626 133.747 90.9835 133.093 90.4259 132.785C90.0609 132.572 89.3298 132.467 88.2337 132.467V131.658H97.868V132.467C96.9256 132.467 96.2334 132.582 95.7913 132.813C95.1757 133.16 94.8682 133.767 94.8682 134.633V146.678H94.9546L104.444 136.366C104.906 135.865 105.137 135.317 105.137 134.719C105.137 133.796 104.829 133.16 104.213 132.813C103.79 132.582 103.088 132.467 102.108 132.467V131.658H111.742V132.467C110.722 132.467 110.011 132.572 109.607 132.785C109.011 133.093 108.713 133.709 108.713 134.633V149.075C108.713 150.019 109.001 150.644 109.578 150.952C109.963 151.145 110.684 151.241 111.742 151.241V152.05ZM106.521 149.075V134.633C106.521 133.882 106.444 133.372 106.29 133.102C106.079 132.678 105.637 132.467 104.964 132.467H104.56C105.252 132.794 105.598 133.535 105.598 134.691V148.988C105.598 149.604 105.55 150.047 105.454 150.317C105.319 150.683 105.021 150.991 104.56 151.241H105.021C106.021 151.241 106.521 150.519 106.521 149.075ZM92.676 149.075V134.633C92.676 133.843 92.5414 133.285 92.2722 132.958C92.003 132.631 91.4836 132.467 90.7142 132.467C91.1569 132.736 91.4454 133.054 91.5799 133.42C91.6954 133.709 91.7529 134.142 91.7529 134.719V149.017C91.7529 149.614 91.7047 150.047 91.609 150.317C91.4546 150.664 91.1569 150.972 90.7142 151.241H91.1471C92.1666 151.241 92.676 150.519 92.676 149.075ZM133.49 136.453H132.452C131.548 134.932 130.519 133.882 129.365 133.305C128.346 132.785 126.904 132.505 125.039 132.467V148.873C125.039 149.816 125.265 150.437 125.717 150.736C126.169 151.034 127.019 151.203 128.269 151.241V152.05H118.174V151.241C119.424 151.203 120.221 151.077 120.568 150.866C121.145 150.558 121.433 149.836 121.433 148.7V132.467C119.76 132.467 118.347 132.804 117.193 133.478C116.232 134.036 115.164 135.028 113.991 136.453H113.097L114.135 131.658H132.452L133.49 136.453ZM131.846 134.778L131.211 132.467H128.5C129.692 132.833 130.807 133.603 131.846 134.778ZM116.789 132.467H114.482L113.905 134.922C114.732 133.824 115.693 133.006 116.789 132.467ZM122.846 134.2C122.846 133.102 122.539 132.524 121.923 132.467V148.873C121.923 149.97 121.577 150.76 120.885 151.241H121.203C121.914 151.241 122.385 150.981 122.615 150.461C122.77 150.114 122.846 149.537 122.846 148.728V134.2ZM154.055 146.822L152.44 152.05H134.701V151.241C135.97 151.241 136.817 151.101 137.24 150.823C137.663 150.543 137.874 149.912 137.874 148.93V135.009C137.874 133.872 137.615 133.141 137.095 132.813C136.73 132.582 135.932 132.467 134.701 132.467V131.658H151.719L153.479 136.279H152.44C151.498 135.105 150.325 134.176 148.922 133.492C147.517 132.809 146.066 132.467 144.566 132.467C143.528 132.467 142.806 132.572 142.403 132.785C141.787 133.093 141.479 133.709 141.479 134.633V141.161H144.566C147.027 141.161 148.258 139.996 148.258 137.666H149.238V145.349H148.258C148.258 143.096 147.046 141.97 144.624 141.97H141.479V149.075C141.479 149.518 141.528 149.874 141.624 150.144C141.874 150.895 142.922 151.26 144.768 151.241H145.431C146.989 151.241 148.392 150.808 149.642 149.941C150.469 149.364 151.537 148.324 152.844 146.822H154.055ZM151.459 134.546V134.431L150.392 132.467H147.94C147.902 132.467 147.835 132.486 147.738 132.524C147.816 132.505 147.883 132.496 147.94 132.496C148.537 132.496 149.709 133.179 151.459 134.546ZM148.027 142.922V140.092C147.624 140.746 146.95 141.228 146.008 141.536C146.989 141.767 147.662 142.229 148.027 142.922ZM152.008 148.902V148.757C152.008 149.2 151.517 149.691 150.536 150.23C150.325 150.346 149.633 150.664 148.46 151.184L148.604 151.241H150.998L152.008 148.902ZM139.258 149.075V134.662C139.258 133.872 139.153 133.333 138.942 133.044C138.672 132.659 138.143 132.467 137.354 132.467C138.008 132.755 138.336 133.574 138.336 134.922V148.988C138.336 150.124 138.008 150.875 137.354 151.241C138.162 151.241 138.701 151.058 138.97 150.693C139.163 150.423 139.258 149.884 139.258 149.075ZM177.073 152.05H167.439V151.241C168.535 151.241 169.275 151.135 169.66 150.923C170.199 150.615 170.468 149.961 170.468 148.959V134.719C170.468 133.737 170.179 133.083 169.602 132.755C169.198 132.544 168.449 132.438 167.353 132.438C165.699 132.438 164.564 132.524 163.949 132.698C162.718 133.083 162.103 133.901 162.103 135.153V146.649C162.103 148.382 161.911 149.672 161.526 150.519C160.949 151.77 159.901 152.397 158.382 152.397C157.478 152.397 156.729 152.185 156.132 151.761C155.478 151.299 155.151 150.625 155.151 149.739C155.151 149.316 155.286 148.93 155.555 148.584C155.825 148.237 156.17 148.064 156.594 148.064C157.055 148.064 157.445 148.242 157.762 148.598C158.079 148.954 158.238 149.431 158.238 150.028C158.238 151.068 158.517 151.588 159.074 151.588C159.228 151.588 159.43 151.511 159.68 151.357C160.718 150.702 161.238 149.431 161.238 147.544V135.153C161.238 134.036 160.795 133.276 159.911 132.871C159.334 132.602 158.391 132.467 157.084 132.467V131.658H177.073V132.467C176.054 132.467 175.342 132.572 174.939 132.785C174.342 133.093 174.044 133.709 174.044 134.633V149.075C174.044 150.019 174.342 150.635 174.939 150.923C175.323 151.135 176.035 151.241 177.073 151.241V152.05ZM171.852 149.075V134.633C171.852 133.882 171.775 133.372 171.621 133.102C171.41 132.678 170.967 132.467 170.294 132.467H169.891C170.583 132.794 170.929 133.535 170.929 134.691V148.988C170.929 149.604 170.881 150.047 170.785 150.317C170.65 150.683 170.352 150.991 169.891 151.241H170.352C171.352 151.241 171.852 150.519 171.852 149.075ZM162.853 132.467H159.997C160.805 132.794 161.295 133.295 161.468 133.969C161.68 133.333 162.142 132.833 162.853 132.467ZM157.632 151.877C156.863 151.145 156.478 150.519 156.478 149.999C156.478 149.556 156.68 149.335 157.084 149.335C157.276 149.335 157.459 149.393 157.632 149.508C157.401 148.892 157.074 148.584 156.651 148.584C156.344 148.584 156.094 148.709 155.901 148.959C155.709 149.21 155.613 149.489 155.613 149.797C155.613 150.76 156.277 151.472 157.603 151.934L157.632 151.877ZM197.149 146.476C197.149 148.555 196.206 150.057 194.322 150.981C192.899 151.694 191.034 152.05 188.726 152.05H178.804V151.27C179.977 151.27 180.794 151.087 181.256 150.721C181.813 150.278 182.092 149.499 182.092 148.382V134.864C182.092 133.824 181.808 133.16 181.241 132.871C180.674 132.582 179.861 132.438 178.804 132.438V131.658H189.044V132.438C187.928 132.438 187.14 132.544 186.678 132.755C186.005 133.102 185.669 133.776 185.669 134.778V140.612C185.918 140.612 186.332 140.602 186.909 140.583C187.447 140.583 187.861 140.583 188.149 140.583C191.476 140.583 193.808 141.117 195.144 142.186C196.48 143.254 197.149 144.685 197.149 146.476ZM194.61 146.446C194.61 145.176 194.341 144.116 193.803 143.269C193.207 142.287 192.313 141.709 191.12 141.536L191.034 141.594C192.822 142.615 193.716 144.213 193.716 146.389C193.716 148.661 192.822 150.24 191.034 151.125L191.12 151.155C193.447 150.558 194.61 148.988 194.61 146.446ZM193.226 146.446C193.226 143.076 191.38 141.392 187.687 141.392H185.669V148.295C185.669 149.412 185.823 150.163 186.13 150.548C186.476 151.03 187.188 151.27 188.265 151.27C191.572 151.27 193.226 149.663 193.226 146.446ZM183.477 149.075V134.633C183.477 133.901 183.39 133.381 183.217 133.073C182.986 132.65 182.534 132.438 181.861 132.438H181.486C181.948 132.707 182.246 133.015 182.38 133.362C182.496 133.613 182.554 134.036 182.554 134.633V148.7C182.554 149.932 182.15 150.788 181.342 151.27C182.15 151.27 182.707 151.106 183.015 150.779C183.322 150.451 183.477 149.884 183.477 149.075ZM231.443 152.05H222.127V151.241C224.031 151.241 224.983 150.423 224.983 148.786V134.257L217.829 152.05H216.964L209.897 134.807V146.88C209.897 148.112 210.128 149.104 210.589 149.855C211.147 150.779 212.003 151.241 213.157 151.241V152.05H205.888V151.241C207.984 151.241 209.032 149.807 209.032 146.937V133.709C208.321 132.88 207.273 132.467 205.888 132.467V131.658H212.465L218.896 147.111L225.214 131.658H231.443V132.467C230.521 132.467 229.848 132.592 229.425 132.842C228.867 133.17 228.588 133.767 228.588 134.633V149.104C228.588 149.951 228.867 150.538 229.425 150.866C229.867 151.116 230.54 151.241 231.443 151.241V152.05ZM226.857 132.467C226.242 132.467 225.838 132.698 225.646 133.16C225.512 133.449 225.444 133.94 225.444 134.633V149.017C225.444 149.633 225.396 150.067 225.3 150.317C225.165 150.683 224.867 150.991 224.406 151.241H224.896C225.531 151.241 225.954 151.03 226.165 150.605C226.3 150.317 226.367 149.816 226.367 149.104V134.633C226.367 133.554 226.531 132.833 226.857 132.467ZM217.569 150.259C217.569 149.99 217.426 149.508 217.137 148.815L211.512 135.124C211.147 134.219 210.82 133.603 210.532 133.276C210.051 132.736 209.426 132.467 208.657 132.467H208.138C208.773 132.698 209.282 133.083 209.667 133.622C209.916 133.969 210.214 134.546 210.561 135.355L217.253 151.241C217.464 150.856 217.569 150.529 217.569 150.259ZM210.561 151.241C209.791 150.875 209.311 150.249 209.118 149.364C208.811 150.23 208.33 150.856 207.677 151.241H210.561ZM247.366 127.065C247.366 127.605 247.193 128.052 246.846 128.408C246.501 128.765 246.058 128.943 245.52 128.943C244.981 128.943 244.534 128.775 244.179 128.438C243.822 128.101 243.645 127.662 243.645 127.123C243.645 126.565 243.818 126.113 244.164 125.766C244.51 125.419 244.962 125.246 245.52 125.246C246.039 125.246 246.476 125.419 246.832 125.766C247.188 126.113 247.366 126.545 247.366 127.065ZM240.703 127.065C240.703 127.605 240.53 128.052 240.184 128.408C239.838 128.765 239.395 128.943 238.857 128.943C238.318 128.943 237.871 128.77 237.515 128.423C237.16 128.076 236.982 127.643 236.982 127.123C236.982 126.584 237.16 126.136 237.515 125.78C237.871 125.424 238.318 125.246 238.857 125.246C239.376 125.246 239.814 125.419 240.169 125.766C240.525 126.113 240.703 126.545 240.703 127.065ZM252.558 146.822L250.942 152.05H233.203V151.241C234.472 151.241 235.319 151.101 235.742 150.823C236.165 150.543 236.376 149.912 236.376 148.93V135.009C236.376 133.872 236.117 133.141 235.597 132.813C235.232 132.582 234.434 132.467 233.203 132.467V131.658H250.222L251.981 136.279H250.942C250 135.105 248.827 134.176 247.424 133.492C246.02 132.809 244.568 132.467 243.068 132.467C242.03 132.467 241.309 132.572 240.905 132.785C240.289 133.093 239.982 133.709 239.982 134.633V141.161H243.068C245.529 141.161 246.76 139.996 246.76 137.666H247.74V145.349H246.76C246.76 143.096 245.548 141.97 243.126 141.97H239.982V149.075C239.982 149.518 240.03 149.874 240.126 150.144C240.376 150.895 241.424 151.26 243.27 151.241H243.934C245.491 151.241 246.894 150.808 248.144 149.941C248.971 149.364 250.039 148.324 251.346 146.822H252.558ZM245.808 128.538V128.481C245.27 128.115 245.001 127.634 245.001 127.036C245.001 126.536 245.27 126.103 245.808 125.737V125.679H245.548C244.587 125.679 244.107 126.16 244.107 127.123C244.107 128.067 244.673 128.538 245.808 128.538ZM249.962 134.546V134.431L248.895 132.467H246.443C246.404 132.467 246.337 132.486 246.241 132.524C246.318 132.505 246.385 132.496 246.443 132.496C247.039 132.496 248.212 133.179 249.962 134.546ZM239.146 128.538V128.481C238.607 128.115 238.338 127.634 238.338 127.036C238.338 126.536 238.607 126.103 239.146 125.737V125.679H238.886C237.924 125.679 237.444 126.16 237.444 127.123C237.444 128.067 238.011 128.538 239.146 128.538ZM246.53 142.922V140.092C246.126 140.746 245.453 141.228 244.51 141.536C245.491 141.767 246.164 142.229 246.53 142.922ZM250.51 148.902V148.757C250.51 149.2 250.02 149.691 249.038 150.23C248.827 150.346 248.135 150.664 246.962 151.184L247.106 151.241H249.5L250.51 148.902ZM237.76 149.075V134.662C237.76 133.872 237.655 133.333 237.444 133.044C237.174 132.659 236.645 132.467 235.857 132.467C236.511 132.755 236.838 133.574 236.838 134.922V148.988C236.838 150.124 236.511 150.875 235.857 151.241C236.664 151.241 237.203 151.058 237.472 150.693C237.665 150.423 237.76 149.884 237.76 149.075ZM275.95 156.036H274.912C274.392 155.054 273.575 154.159 272.46 153.35C271.249 152.483 270.124 152.05 269.085 152.05H259.711C258.48 152.05 257.36 152.42 256.35 153.162C255.341 153.903 254.567 154.862 254.028 156.036H253.134L254.173 151.241H256.826C257.634 150.432 258.192 149.45 258.499 148.295C258.711 147.448 258.816 146.322 258.816 144.915V135.153C258.816 133.998 258.326 133.227 257.346 132.842C256.692 132.592 255.884 132.467 254.923 132.467V131.658H274.652V132.467C273.633 132.467 272.921 132.572 272.518 132.785C271.921 133.093 271.623 133.709 271.623 134.633V149.075C271.623 150.057 271.96 150.693 272.633 150.981C272.998 151.155 273.758 151.241 274.912 151.241L275.95 156.036ZM269.431 149.075V134.633C269.431 133.882 269.354 133.372 269.2 133.102C268.989 132.678 268.547 132.467 267.873 132.467H267.47C268.162 132.794 268.508 133.535 268.508 134.691V148.988C268.508 149.604 268.46 150.047 268.364 150.317C268.229 150.683 267.931 150.991 267.47 151.241H267.931C268.931 151.241 269.431 150.519 269.431 149.075ZM260.432 132.467H257.576C258.384 132.794 258.874 133.295 259.047 133.969C259.259 133.333 259.721 132.833 260.432 132.467ZM268.047 148.959V134.719C268.047 133.853 267.849 133.261 267.455 132.944C267.061 132.626 266.422 132.467 265.537 132.467H263.432C260.932 132.467 259.682 133.362 259.682 135.153V144.944C259.682 147.948 259.249 150.047 258.384 151.241H265.191C266.23 151.241 266.931 151.125 267.297 150.895C267.797 150.567 268.047 149.922 268.047 148.959ZM274.392 154.361L273.816 152.05H271.191C272.402 152.589 273.441 153.36 274.306 154.361H274.392ZM256.278 152.05H254.519L253.942 154.505C254.596 153.542 255.375 152.724 256.278 152.05ZM297.641 152.05H289.074V151.241C290.555 151.241 291.295 150.837 291.295 150.028C291.295 149.701 291.16 149.191 290.891 148.497L289.276 144.367H282.44L281.488 146.822C281.238 147.457 281.113 148.102 281.113 148.757C281.113 149.45 281.329 150.038 281.762 150.519C282.194 151.001 282.757 151.241 283.449 151.241V152.05H276.757V151.241C277.527 151.241 278.276 150.779 279.008 149.855C279.546 149.162 279.997 148.343 280.363 147.4L285.353 134.604C284.892 133.737 284.065 133.305 282.872 133.305V132.698L285.468 131.485H288.064L294.727 148.526C295.439 150.336 296.41 151.241 297.641 151.241V152.05ZM292.708 150.028C292.708 149.508 292.535 148.815 292.189 147.948L287.026 134.893C286.545 133.68 285.92 133.073 285.151 133.073C284.901 133.073 284.661 133.112 284.43 133.189C285.18 133.478 285.767 134.161 286.19 135.239L291.295 148.295C291.603 149.084 291.756 149.682 291.756 150.086C291.756 150.49 291.496 150.875 290.978 151.241H291.295C292.237 151.241 292.708 150.837 292.708 150.028ZM288.9 143.443L285.814 135.644L282.786 143.443H288.9ZM281.084 151.241C280.507 150.818 280.218 150.288 280.218 149.653C280.218 149.46 280.267 149.123 280.363 148.642L280.334 148.613C279.738 149.903 279.065 150.779 278.315 151.241H281.084Z" fill="white"></path>
<path fill-rule="evenodd" clip-rule="evenodd" d="M124.967 58.9881L124.774 58.8302C124.092 58.2511 123.528 57.6102 123.189 56.8218C122.739 55.7667 122.194 54.7246 122.063 53.5666C121.902 52.1618 120.98 51.2132 120.155 50.2084C119.975 49.9944 119.721 49.8248 119.602 49.5605C118.907 48.0352 117.905 46.6596 117.412 45.0373C117.341 44.8046 117.276 44.5636 117.224 44.3262C116.968 43.1658 116.921 41.9798 116.6 40.8171C115.999 38.6286 118.308 36.4565 120.094 36.8238C121.584 37.1292 123.113 37.1713 124.599 37.4227C126.577 37.7584 128.575 38.0801 130.522 38.576C132.432 39.0603 134.352 39.4989 136.247 40.0475C141.165 41.4827 145.85 43.4664 150.238 46.0971C152.241 47.2972 154.135 48.6879 155.926 50.2073C157.564 51.5922 159.222 52.9549 160.88 54.3152C161.187 54.1994 161.49 54.0813 161.785 53.962L161.833 54.052C162.234 54.8053 162.472 54.9059 163.334 54.7257C163.574 54.6754 163.802 54.576 164.04 54.514C164.488 54.3947 164.926 54.5058 165.054 54.9445C165.255 55.6486 165.723 55.6884 166.287 55.6217C166.968 55.541 167.541 55.6638 167.727 56.4276C167.873 57.016 168.219 57.0019 168.656 56.7937C168.767 56.7423 168.86 56.6522 168.973 56.6101C169.706 56.3154 169.897 56.3622 170.255 57.0616C170.518 57.5692 170.651 58.1318 171.357 58.2488C171.671 58.2991 171.735 58.6465 171.795 58.9342C171.852 59.2161 171.883 59.5074 171.992 59.7671C172.066 59.9402 172.187 60.1566 172.424 60.1671C172.665 60.1764 172.77 59.9869 172.856 59.7975C172.976 59.5378 173.074 59.2629 173.216 59.0184C173.34 58.8079 173.504 58.5845 173.759 58.5389C174.322 58.4407 175.016 59.0372 175.416 58.057C175.656 57.464 176.72 57.8604 176.996 57.0861C177.024 57.0066 177.21 56.9493 177.325 56.9458C179.836 56.8265 182.291 56.9189 184.615 58.1213C186.319 59.0044 187.868 60.0221 188.973 61.621C189.3 62.0936 189.581 62.5977 189.854 63.1042C190.063 63.4948 190.289 63.5205 190.637 63.2738C191.26 62.8304 191.722 62.2409 192.039 61.5777C192.567 60.4735 193.386 59.7191 194.483 59.2512C196.153 58.5331 197.707 57.6207 199.151 56.5177C199.637 56.1493 200.191 56.0182 200.76 55.9691C201.432 55.9083 201.817 56.4452 201.604 57.092C201.227 58.2406 200.448 59.0348 199.432 59.6735C197.626 60.8104 195.75 61.8479 194.158 63.3088C193.155 64.2259 192.354 65.3032 191.398 66.4296C192.006 66.6003 192.435 66.481 192.874 66.2646C193.386 66.0084 193.915 65.7803 194.439 65.5394C195.583 65.0142 196.688 64.9861 197.826 65.6283C198.709 66.1289 199.614 66.6202 200.726 66.3921C201.069 66.3219 201.426 66.5863 201.758 66.7582C202.719 67.2553 203.721 67.5864 204.832 67.4916C205.187 67.4635 205.541 67.4284 205.785 67.8589C206.027 68.2881 206.547 68.301 206.981 68.4039C207.904 68.6215 208.814 68.8625 209.583 69.466C210.296 70.0251 210.281 70.155 209.513 70.6953C208.776 71.21 208.015 70.9071 207.245 70.8837C205.001 70.8147 203.005 69.7163 200.829 69.3584C200.148 69.2461 199.474 69.0087 198.875 68.6332C196.055 66.8518 194.387 69.2367 192.795 69.659C192.146 69.831 192.094 70.362 192.111 70.9375C192.142 71.9574 192.061 72.9856 192.155 73.9997C192.342 76.0056 192.104 78.0011 192.034 80.0001C192.024 80.2855 191.91 80.5826 192.069 80.8353C192.723 81.8634 192.244 82.8319 191.882 83.7642C191.587 84.521 191.118 85.211 190.732 85.9211C189.549 85.8228 188.579 85.3806 187.86 84.4344C187.688 84.2063 187.465 84.0156 187.242 83.8332C186.901 83.5525 186.558 83.3478 186.22 83.8671C185.963 84.2636 185.533 84.273 185.114 84.2776C184.213 84.287 183.308 84.3326 182.41 84.2893C181.401 84.2414 180.368 84.2016 179.633 83.3185C179.54 83.205 179.354 83.1676 179.213 83.0963C178.956 83.329 179.167 83.4846 179.278 83.6215C181.889 86.8124 183.703 90.4278 184.976 94.3333C185.05 94.5626 185.151 94.8094 185.31 94.9837C186.339 96.1031 186.662 97.495 186.91 98.9302C187.173 100.472 187.477 102.004 187.754 103.541C187.847 104.052 188.068 104.429 188.527 104.732C189.966 105.685 191.281 106.816 192.76 107.717C193.215 107.992 193.664 108.255 194.153 108.474C194.679 108.711 194.65 109.077 194.138 109.352C192.945 109.99 191.666 109.804 190.407 109.685C189.877 109.634 189.358 109.484 188.82 109.602C188.16 109.746 187.691 109.464 187.38 108.916C187.037 108.306 186.687 107.693 186.425 107.05C185.891 105.745 185.345 104.55 183.944 103.824C182.967 103.315 182.522 102.169 182.272 101.066C182.085 100.261 181.919 99.4519 181.794 98.6378C181.716 98.1372 181.501 97.7956 181.021 97.6295C178.474 96.7499 177.189 94.6574 176.02 92.4443C175.656 91.7542 175.273 91.0735 174.874 90.4033C174.472 89.7365 174.405 89.7131 173.742 90.1319C173.264 90.4313 172.83 90.6968 172.289 90.2676C172.12 90.1366 171.892 90.1787 171.691 90.2407C171.239 90.3811 171.147 90.7342 171.442 91.1401C172.143 92.0993 173.002 92.9379 173.565 94.0058C173.84 94.5322 174.024 95.055 174.047 95.6434C174.072 96.2995 174.017 96.9687 174.321 97.5874C174.37 97.6903 174.412 97.8564 174.366 97.9453C173.784 99.0483 174.45 100.013 174.679 101.03C175.145 103.101 175.966 105.086 175.987 107.257C175.994 108.109 175.812 108.902 175.439 109.61C175.061 110.331 174.975 110.971 175.275 111.724C175.421 112.095 175.43 112.527 175.473 112.935C175.615 114.309 175.987 115.547 176.994 116.601C177.767 117.415 177.309 118.865 176.226 119.404C175.9 119.568 175.53 119.654 175.176 119.753C173.711 120.167 173.556 120.012 173.02 118.61C172.448 117.108 172.687 115.531 172.394 114.007C172.085 112.41 171.772 110.887 170.107 110.05C169.165 109.578 169.025 108.55 168.879 107.612C168.827 107.255 168.863 106.863 168.943 106.507C169.397 104.48 169.378 102.424 169.37 100.368C169.368 99.7875 169.277 99.2823 169.045 98.7255C168.796 98.1243 168.575 97.9161 167.987 98.136C167.704 98.2378 167.534 98.1374 167.4 97.8705C167.157 97.3815 166.841 97.0108 166.243 96.8727C165.734 96.7581 165.543 96.2001 165.25 95.8165C164.899 95.3591 164.582 94.9837 163.925 95.2363C163.501 95.4001 163.22 95.1334 163.014 94.7989C162.883 94.5907 162.839 94.2924 162.663 94.1579C161.763 93.483 161.367 92.6923 161.461 91.4934C161.518 90.7915 159.605 90.0991 158.893 90.436C158.573 90.5892 158.662 90.8652 158.761 91.0723C159.245 92.077 159.439 93.1718 159.744 94.2339C160.148 95.6586 160.232 97.0587 159.504 98.4156C158.866 99.6051 159.003 100.903 159.211 102.116C159.505 103.817 159.646 105.534 159.871 107.238C160.118 109.087 159.917 110.923 158.708 112.491C158.555 112.687 158.358 112.901 158.424 113.153C158.724 114.327 158.478 115.529 158.646 116.708C158.76 117.501 159.021 118.197 159.47 118.865C160.357 120.188 159.76 121.609 158.184 121.884C157.404 122.021 156.44 122.58 155.832 121.865C155.209 121.131 155.048 120.059 155.152 119.067C155.264 118.003 155.325 116.936 155.339 115.872C155.352 114.879 155.174 113.906 154.699 113.012C154.524 112.68 154.312 112.4 154.007 112.162C152.769 111.205 152.315 109.857 152.856 108.337C153.747 105.834 153.949 103.201 154.372 100.611C154.432 100.231 154.718 99.6238 153.85 99.7279C153.614 99.7548 153.627 99.5805 153.702 99.4004C153.829 99.0916 153.642 98.7664 153.784 98.4389C153.993 97.9687 153.74 97.7219 153.276 97.7277C152.807 97.7333 152.607 97.5944 152.65 97.0833C152.684 96.6762 152.567 96.3054 152.183 96.0107C151.726 95.6644 151.714 95.0749 151.618 94.5497C151.517 94.0023 151.37 93.5333 150.663 93.462C149.972 93.3941 150.042 92.7309 150.045 92.2958C150.05 91.863 150.11 91.511 149.715 91.2115C149.211 90.8255 149.753 90.284 149.541 89.6874C148.959 90.0757 148.433 90.2933 147.853 90.3682C147.651 90.3951 147.411 90.4091 147.263 90.5272C146.347 91.2326 145.141 91.1776 144.178 91.7167C142.444 92.6888 140.632 92.0841 138.846 92.1168C138.064 92.1297 137.317 92.0899 136.605 91.7519C136.256 91.5858 136.088 91.8033 135.906 92.0525C135.274 92.9262 135.131 93.9625 135.012 94.9755C134.845 96.4118 134.316 97.6529 133.451 98.8003C132.633 99.8846 131.875 101.012 131.166 102.17C130.672 102.981 130.346 103.894 130.405 104.863C130.44 105.434 130.265 105.898 129.991 106.353C128.785 108.358 127.825 110.505 126.422 112.393C125.761 113.282 125.005 113.941 123.848 114.099C122.722 114.251 121.749 114.791 120.929 115.572C120.323 116.154 119.581 116.522 118.879 116.939C117.568 117.718 116.273 118.502 115.191 119.597C114.26 120.54 113.03 120.205 111.919 120.315C111.525 120.354 110.824 119.146 110.838 118.639C110.852 118.018 111.267 117.381 111.897 117.286C112.564 117.184 113.13 116.846 113.759 116.67C114.665 116.417 115.2 115.745 115.503 114.894C115.836 113.964 116.27 113.184 117.363 112.974C117.887 112.873 118.169 112.407 118.267 111.901C118.54 110.484 119.304 109.513 120.692 109.054C120.883 108.991 121.089 108.883 121.216 108.736C122.115 107.692 123.124 106.714 123.694 105.439C124.008 104.738 124.365 104.164 125.037 103.743C125.875 103.216 126.313 102.374 126.494 101.404C126.532 101.203 126.588 100.987 126.323 100.889C126.107 100.811 125.905 100.867 125.755 101.018C125.613 101.164 125.493 101.337 125.392 101.515C124.291 103.495 122.556 104.525 120.428 105.211C117.866 106.031 115.167 106.542 112.858 108.047C112.22 108.464 111.491 108.589 110.794 108.823C109.828 109.139 108.876 109.51 107.921 109.857C107.03 110.184 106.001 110.144 105.068 110.484C104.625 110.648 104.249 110.373 104.077 109.951C103.57 108.699 102.921 107.517 102.419 106.255C101.459 103.847 101.044 101.287 100.21 98.8635C99.6982 97.3745 99.7461 95.999 99.9131 94.5123C100.067 93.173 100.024 91.8173 100.241 90.4688C100.626 88.0756 101.428 85.8532 102.646 83.7782C104.107 81.2973 105.611 78.8422 107.468 76.628C108.364 75.5589 109.303 74.5249 110.238 73.4885C110.456 73.2453 110.683 73.023 110.806 72.5972C109.942 72.3914 109.169 72.1586 108.268 72.3353C106.256 72.7317 97.1927 70.5947 94.5879 70.1386C93.0519 69.8672 92.3429 68.7514 92.4188 67.2308C92.5263 65.1277 93.8556 63.9019 95.3203 62.738C105.612 54.5678 113.811 56.5984 124.967 58.9881ZM159.338 55.5597C157.7 54.2953 156.079 53.0075 154.486 51.6881C153.441 50.8226 152.413 49.9383 151.345 49.1031C150.653 48.5581 135.378 41.3072 131.839 40.5926C127.885 39.7948 123.917 39.0544 119.959 38.2661C118.444 37.9643 117.392 39.0918 117.858 40.575C121.402 45.8888 118.426 44.8373 120.264 45.8467L119.826 46.5859C120.876 48.3019 121.846 49.8213 122.918 51.274L124.24 52.8824C123.726 52.9724 123.667 53.1806 123.788 53.6368C123.867 53.928 123.986 54.1585 124.152 54.397C124.72 55.2042 125.599 55.2884 126.448 55.3995C127.057 55.486 127.708 55.3621 128.285 55.5293C131.455 56.4405 147.554 55.6813 131.623 57.9868C131.044 58.071 130.561 58.4079 130.082 58.7366C129.699 58.9997 129.681 59.2805 130.039 59.5039C130.495 59.7858 130.942 60.0817 131.399 60.3554L132.326 60.5519C133.111 60.7274 134.672 61.1905 136.441 61.7415L136.714 61.7836C136.86 61.8585 137.029 61.9427 137.18 61.931C138.029 61.8643 138.793 62.179 139.579 62.4105C143.189 63.4668 141.873 61.4291 145.269 61.0163C145.555 60.9824 145.829 60.9192 146.028 61.1718C145.391 62.2094 144.085 62.4842 143.37 63.4398C143.62 63.7404 143.885 63.999 144.165 64.2247C144.715 64.4037 145.049 64.5113 145.065 64.5101C145.431 64.7171 145.603 64.5908 145.708 64.261C145.793 63.9884 145.922 63.6901 145.889 63.4223C145.806 62.7603 146.077 62.2328 146.386 61.6923C146.847 60.8841 146.258 58.4219 148.391 60.084C149.016 60.5718 149.549 60.0209 150.118 59.987C150.459 59.9647 152.42 57.7061 152.449 57.2745C152.504 56.2662 153.177 56.3715 154.191 56.9481C154.623 57.1926 154.994 57.1376 155.269 56.7376C156.507 54.9386 157.783 55.1492 159.355 56.6498C159.466 56.2452 159.231 55.8439 159.338 55.5597ZM149.116 65.9336L149.495 65.9956L149.524 65.9733C150.192 65.4739 150.647 65.7136 150.886 66.2564C151.398 66.3488 151.914 66.4202 152.416 66.5383C152.59 66.4073 152.727 66.2307 152.804 65.9944C152.872 65.7838 153.002 65.5804 153.172 65.3839C153.249 65.0657 153.322 64.8481 153.322 64.8481C153.322 64.1241 153.651 63.8925 154.073 63.3802C155.79 61.2864 154.791 63.3042 156.197 64.6118C156.318 64.7229 157.655 64.2341 158.593 62.2128C159.163 62.8597 159.764 62.5602 160.137 64.0598C160.746 62.3556 161.811 62.5965 162.283 62.6094C163.154 62.6363 163.281 63.7708 163.727 63.8504C166.43 60.5753 165.807 66.1593 167.022 66.1523L167.007 66.0353C168.485 61.0923 167.288 67.0354 169.872 66.0353L170.549 65.7944C170.177 63.579 170.657 63.3451 171.81 65.1207C171.987 64.7768 172.159 64.3452 172.339 63.7989C172.541 63.1849 172.479 61.9789 171.927 61.621C171.922 61.6161 171.483 61.0175 171.305 60.8876C171.212 60.8327 171.117 60.7847 171.022 60.7414C170.65 61.4057 169.588 61.4198 169.256 60.6326C168.824 59.6092 167.639 57.5856 167.308 59.8688C165.22 61.7649 166.662 57.6289 163.691 57.3061C160.793 56.9949 162.661 57.6324 160.769 59.5051C157.791 59.4395 161.002 57.8593 158.072 57.9879C158.057 58.8196 157.174 59.9402 156.728 60.0221C156.35 60.0899 155.245 59.5624 155.064 58.9798C153.575 59.3284 153.813 58.8827 153.491 60.5016C153.354 61.883 151.914 62.4503 152.067 60.3881C150.905 61.5906 150.535 62.0912 150.541 62.9053C150.557 65.0727 149.531 65.0938 148.927 64.1791C148.355 64.6656 147.761 64.5124 149.116 65.9336ZM187.15 73.5189C187.207 75.732 186.232 77.3988 184.466 78.6293C183.316 79.434 180.456 79.2305 179.551 77.6175C178.613 75.9495 177.897 74.2921 177.525 72.4077C177.274 71.1281 176.961 69.8497 176.675 68.5689C176.523 67.8811 176.48 67.1886 176.563 66.4869C176.901 63.6761 178.706 62.5661 181.336 63.3404C184.105 64.1534 185.73 66.1558 186.482 68.949C186.888 70.4602 187.044 71.9843 187.15 73.5189ZM182.208 77.0467C184.324 76.8689 184.949 75.7355 185.436 73.9997C185.674 73.1458 185.587 72.223 185.602 71.3223C185.637 69.3876 185.024 67.832 183.763 66.4143C182.682 65.199 181.436 64.6703 179.826 64.9651C178.906 65.5055 178.562 66.6576 178.576 68.0437C178.58 68.4461 179.302 68.1606 179.36 68.5923C179.41 68.9725 178.796 70.0707 178.881 70.4614C178.983 70.9281 179.517 70.6263 179.657 71.0896C179.782 71.5001 179.513 72.6814 179.657 73.071C179.81 73.4885 180.536 73.3084 180.703 73.6874C180.95 74.2465 180.652 75.3343 180.9 75.7577C181.055 76.0185 181.616 75.8431 181.759 76.0337C182.107 76.5016 182.006 77.1449 182.208 77.0467ZM170.123 96.5335C170.599 96.8084 170.915 97.2482 171.361 97.5347C171.786 97.8061 172.168 97.6903 172.153 97.2424C172.124 96.3522 172.261 95.4644 171.915 94.5685C170.693 91.4197 168.189 89.5517 165.437 87.9364C164.72 87.5153 164.31 87.8709 164.381 88.7271C164.397 88.9131 164.506 89.1061 164.328 89.2757C164.264 89.2207 164.189 89.1798 164.141 89.1166C164.097 89.0535 164.089 88.9622 164.047 88.892C163.541 88.0066 163.102 87.9844 162.549 88.83C162.441 88.9938 162.403 89.2114 162.353 89.409C162.118 90.3284 162.247 91.2056 162.609 92.1601C163.657 93.4772 166.148 94.1614 170.123 96.5335ZM112.19 119.521C113.66 119.505 114.41 118.273 115.467 117.563C115.509 117.533 115.513 117.405 115.494 117.334C115.461 117.209 115.363 117.108 115.229 117.167C114.11 117.646 112.988 118.118 111.885 118.629C111.667 118.728 111.582 119.003 111.693 119.273C111.787 119.502 111.969 119.548 112.19 119.521ZM120.415 113.88C119.504 114.02 118.673 113.825 117.825 113.993C117.207 114.117 116.759 114.419 116.474 114.963C116.327 115.251 116.134 115.59 116.364 115.886C116.598 116.19 117.002 116.106 117.287 115.993C118.435 115.543 119.7 115.254 120.415 113.88ZM156.974 120.75C157.137 120.733 157.3 120.721 157.46 120.696C158.423 120.538 158.551 120.272 158.361 119.269C158.209 118.471 157.764 117.845 157.341 117.198C157.084 116.804 156.736 116.901 156.596 117.268C156.229 118.225 155.946 119.196 156.279 120.249C156.405 120.643 156.592 120.789 156.974 120.75ZM173.571 116.674C173.516 117.02 173.6 117.334 173.701 117.649C174.049 118.749 174.162 118.807 175.249 118.409C176.036 118.116 176.163 117.816 175.866 117.015C175.577 116.232 175.052 115.602 174.535 114.97C174.253 114.62 173.959 114.686 173.818 115.116C173.653 115.623 173.569 116.149 173.571 116.674ZM156.65 111.958C156.188 112.232 155.791 112.439 155.791 112.902C155.79 113.766 156.053 114.588 156.367 115.386C156.453 115.609 156.654 115.81 156.953 115.687C157.181 115.596 157.18 115.382 157.184 115.17C157.207 114.114 157.116 113.074 156.65 111.958ZM173.158 109.85C172.742 110.177 172.302 110.422 172.38 110.929C172.522 111.822 172.893 112.652 173.421 113.392C173.539 113.561 173.771 113.61 173.975 113.497C174.146 113.4 174.12 113.229 174.107 113.063C174.023 111.96 173.71 110.929 173.158 109.85ZM190.084 108.851C190.447 108.795 190.978 108.732 191.499 108.62C191.937 108.527 192.039 108.196 191.687 107.95C190.568 107.172 189.36 106.573 188.017 106.283C187.746 106.225 187.528 106.306 187.534 106.652C187.555 107.806 188.749 108.916 190.084 108.851ZM182.765 99.0179C182.624 100.075 183.146 101.047 183.701 101.932C184.168 102.68 184.883 103.306 185.782 103.592C186.045 103.676 186.444 103.74 186.447 103.324C186.455 102.047 186.005 102.801 185.788 100.781C185.645 99.5115 185.293 98.2869 184.956 97.0587C184.743 96.2645 184.216 96.1335 183.607 96.723C182.989 97.3219 182.646 98.0471 182.765 99.0179ZM158.746 108.603C158.746 108.631 158.767 108.465 158.741 108.306C158.419 106.197 157.772 104.18 156.97 102.208C156.869 101.954 156.798 101.673 156.501 101.519C156.152 101.341 155.913 101.248 155.795 101.762C155.584 102.677 155.451 103.6 155.086 104.489C154.637 105.58 154.268 106.718 154.112 107.903C153.873 109.733 154.494 110.899 155.908 111.449C156.758 111.78 157.41 111.321 158.117 111.035C158.733 110.787 158.537 110.219 158.612 109.763C158.664 109.442 158.688 109.117 158.746 108.603ZM174.798 107.201C174.761 106.581 174.676 105.948 174.496 105.308C174.009 103.554 173.058 102.01 172.338 100.364C172.21 100.075 171.973 99.8179 171.739 99.5969C171.569 99.4425 171.329 99.2881 171.067 99.432C170.844 99.5501 170.901 99.7875 170.907 99.9805C170.93 100.976 170.725 101.932 170.495 102.895C170.229 104.014 170.064 105.156 170.103 106.32C170.157 107.923 170.827 108.862 172.042 109.356C173.04 109.763 173.706 109.196 174.438 108.801C175.096 108.443 174.772 107.781 174.798 107.201ZM140.349 86.6638C139.688 86.5164 139.05 86.7621 138.398 86.7901C137.873 86.8159 137.594 87.1504 137.368 87.5586C137.26 87.7563 137.275 87.9563 137.45 88.1189C137.589 88.2475 137.763 88.237 137.896 88.1317C138.501 87.651 139.117 87.9025 139.772 88.0007C140.418 88.1013 140.943 88.4229 141.441 88.7446C142.549 89.464 143.842 89.1342 145.007 89.4897C145.167 89.54 145.415 89.4149 145.576 89.3038C145.862 89.1061 146.172 89.0207 146.504 89.009C148.194 88.9575 149.127 87.8323 149.96 86.569C150.211 86.1865 150.474 85.6684 150.173 85.3315C149.799 84.9104 149.363 85.3455 148.988 85.5807C147.001 86.824 144.849 87.1679 142.547 86.8194C141.826 86.7106 141.103 86.4708 140.349 86.6638ZM128.194 99.3805C128.137 100.879 128.253 100.971 129.404 100.702C129.852 100.599 130.229 100.402 130.591 100.107C131.512 99.3571 131.758 98.2623 132.147 97.2388C132.579 96.1019 132.797 94.8363 133.431 93.8316C134.301 92.4525 135.325 91.1741 135.992 89.6616C136.081 89.4605 136.414 89.3085 136.17 89.0581C135.94 88.8218 135.618 88.9178 135.371 89.0687C135.166 89.195 135.012 89.402 134.824 89.5622C133.356 90.8114 132.173 92.3543 130.758 93.6468C128.946 95.303 128.458 97.4306 128.194 99.3805ZM119.748 112.372C119.957 112.743 120.248 112.969 120.668 113.089C121.474 113.314 122.282 113.384 123.111 113.265C123.587 113.194 123.93 112.98 124.235 112.593C125.352 111.179 126.47 109.773 127.349 108.18C128.33 106.404 129 104.534 129.338 102.54C129.374 102.332 129.4 102.092 129.207 101.98C129.021 101.874 128.793 101.954 128.644 102.111C128.263 102.502 127.854 102.826 127.293 102.922C127.027 102.968 126.779 103.198 126.829 103.426C126.362 104.125 124.71 106.8 122.835 109.002C121.481 110.592 119.593 110.956 119.748 112.372ZM178.019 84.2308C177.397 85.5269 177.174 86.7164 176.392 87.6697C176.062 88.0744 175.92 88.7049 176.169 89.2827C176.302 89.7119 177.119 89.485 177.402 89.8383C177.765 90.2886 177.601 91.277 177.727 91.3367C178.215 92.1121 178.731 91.8559 178.788 92.2899C178.822 92.5403 178.218 93.3344 178.635 93.8994C179.211 94.7077 179.612 93.352 180.015 94.8352C180.166 95.951 180.904 96.5639 181.999 96.399C182.283 96.3545 182.549 96.2247 182.834 96.1873C183.405 96.1066 183.523 95.7651 183.552 95.2363C183.642 93.5555 182.98 92.1074 182.199 90.7108C180.979 88.5282 179.306 86.6427 178.019 84.2308ZM155.43 96.5592C155.608 96.5733 155.592 96.8131 155.658 96.9581C155.874 97.4388 156.106 97.9161 156.345 98.3886C156.467 98.6307 156.523 98.9512 156.929 98.8986C157.234 98.8612 157.305 98.6307 157.43 98.4179C158.039 97.364 158.348 96.2481 158.334 95.0129C158.313 93.1952 157.793 91.5297 156.95 89.9576C156.502 89.1271 156.011 88.3107 155.448 87.5574C154.931 86.865 154.425 86.9785 154.087 87.7446C154.007 87.9235 154.204 88.2838 153.788 88.2791C153.6 88.085 153.776 87.8849 153.756 87.6919C153.681 86.9141 153.463 86.7901 152.718 87.0229C152.47 87.1013 152.289 87.2264 152.113 87.41C151.383 88.1844 151.094 89.1365 150.884 90.2138C150.682 90.9471 154.005 96.4247 155.43 96.5592ZM188.519 65.3219C187.809 64.6341 186.979 63.9943 186.491 63.1638C185.645 61.7228 184.222 61.2023 182.898 60.4981C182.474 60.2712 181.963 60.1799 181.457 60.1893C179.402 60.2349 177.468 60.6923 175.691 61.7812C175.245 62.0561 175.056 62.3941 174.965 62.8609C174.709 64.1779 174.667 65.5137 174.598 66.8471C174.555 67.7349 174.924 68.5385 175.097 69.3841C175.119 69.4894 177.8 76.0747 177.454 77.3461C177.336 77.7754 178.6 79.8446 180.118 81.157C181.257 81.8236 179.472 81.2482 181.935 81.7254C183.184 82.212 184.938 81.2751 185.927 81.3114C188.43 81.4049 187.431 82.2834 189.145 82.1687C190.736 81.6704 189.667 66.4319 188.519 65.3219ZM151.822 82.5758C152.141 82.4413 152.166 82.2635 152.559 82.212C153.236 82.7559 153.354 81.9804 154.059 82.5512C154.421 82.8471 154.649 84.108 155.355 84.5818C155.759 84.852 156.618 84.3654 157.03 84.6157C157.641 84.9841 157.82 86.0707 158.5 86.3023C158.925 86.4509 159.371 85.7047 159.844 85.7632C160.276 85.8181 160.734 86.686 161.218 86.6462C161.771 86.6006 162.364 85.2251 163.001 85.025C163.317 84.9244 163.646 86.0625 163.986 85.9199C164.447 85.7257 164.932 84.432 165.441 84.1501C165.78 83.9618 166.131 84.8099 166.492 84.5806C166.6 84.2718 168.622 86.2111 168.906 85.8731C168.999 85.8649 169.117 85.8474 169.233 85.8415C170.203 85.7994 169.684 85.969 170.583 86.2672C170.858 86.3608 171.465 86.7445 171.326 85.8684C171.278 85.5783 171.543 85.6988 171.67 85.721C172.011 85.7842 172.314 86.1444 172.74 85.8111C173.101 85.7889 172.986 84.8461 173.285 84.4402C173.521 84.1267 174.187 84.4087 174.367 83.908C174.534 83.4413 174.416 81.654 174.524 81.0645C174.622 80.5276 175.299 80.4481 175.336 79.8399C175.473 77.6234 173.694 73.9271 172.729 71.6042C172.202 71.1855 171.937 71.7141 171.633 72.0194C171.575 72.0779 171.532 72.1516 171.469 72.2031C172.189 75.1974 170.352 71.6896 169.511 73.664C169.335 74.0804 170.991 75.3015 169.804 75.7332C168.387 75.7461 167.604 74.5308 167.239 74.4231C166.215 74.1295 167.585 76.4034 166.007 76.2057C165.404 76.1308 164.986 75.0196 163.763 75.0418C163.005 75.6887 163.842 77.538 161.555 76.2302C155.541 81.1932 158.37 74.4068 155.136 77.2923C154.258 76.9988 153.99 77.6011 153.659 78.1672L153.698 78.1941C150.289 76.504 151.405 82.922 151.822 82.5758ZM139.276 84.9151C138.354 83.5922 139.965 83.4799 140.552 84.6929C140.882 83.4846 140.924 84.1876 141.382 83.9138C141.265 83.6635 140.965 83.5443 140.729 83.391C139.799 82.7769 139.026 82.0471 138.34 81.2927C136.03 78.7556 134.549 75.9179 133.973 72.782C133.855 72.1399 133.659 72.251 133.557 71.6065C133.531 71.4486 133.602 71.2322 133.238 71.2205C132.925 71.5667 132.688 71.8908 132.695 72.3411C132.709 73.0113 132.641 72.94 132.534 73.6195L131.604 72.6241C130.907 72.8885 131.297 74.1751 131.35 74.4851C130.618 74.8056 130.729 73.8757 129.956 73.4979C129.358 75.2115 131.103 79.3814 133.044 81.6576C134.463 83.3185 136.782 85.0297 138.262 85.1479L139.276 84.9151ZM140.509 73.3646C140.801 74.9869 140.912 76.4431 141.659 77.7883C142.437 79.186 143.134 80.6154 144.164 81.8599C144.965 82.8284 146.217 83.3583 146.743 84.5888C146.809 84.7478 147.064 84.7245 147.115 84.5245C147.199 84.1911 147.437 84.0846 147.711 83.9735C147.891 83.9021 147.894 83.7454 147.825 83.5665C147.509 82.743 147.564 82.0202 148.39 81.5043C148.694 81.3149 148.924 80.9932 148.791 80.6785C148.602 80.2294 148.798 79.8878 148.908 79.5042C148.98 79.2621 149.023 78.9627 148.807 78.8129C148.475 78.5766 148.312 78.9334 148.116 79.1171C148.025 79.2012 147.957 79.3088 147.873 79.3989C147.718 79.5591 147.515 79.6562 147.325 79.5357C147.106 79.3919 147.235 79.186 147.314 78.9931C147.749 77.9392 147.728 77.8901 146.744 77.4654C146.027 77.1578 146.024 77.1554 146.472 76.5519C146.568 76.4256 146.738 76.3332 146.646 76.1367C146.539 75.9074 146.361 75.8782 146.14 75.9764C145.961 76.0583 145.825 76.1519 145.681 75.8525C144.643 75.4267 144.481 74.8757 145.398 74.1716C145.007 73.8137 144.707 73.6885 144.318 73.8499C144.129 73.9318 143.926 74.0008 143.74 73.8429C142.769 73.0136 141.659 73.5681 140.509 73.3646ZM166.849 68.301C166.619 68.1992 166.386 68.0998 166.154 67.9969C166.062 67.9174 165.969 67.8378 165.878 67.7583C165.695 67.4483 165.294 67.4729 165.025 67.2109C164.743 66.9348 164.588 66.3781 164.269 66.302C163.879 66.2096 163.493 66.5687 163.133 66.5044C162.88 66.4588 162.673 66.1102 162.387 66.1079C162.076 66.1079 161.766 66.4167 161.495 66.4693C161.101 66.5465 160.793 66.3734 160.713 66.3266C160.191 66.2319 159.892 66.1032 159.832 67.1126C159.351 67.0904 159.384 66.2553 158.851 66.3793C158.531 66.7407 158.919 67.3056 158.646 67.7022C158.33 67.6402 158.162 66.9325 157.799 67.274C157.308 67.7314 156.68 67.6285 156.202 68.0483C155.803 68.4016 155.442 68.8438 155.062 69.2461L155.081 69.2882L155.092 69.3303L155.098 69.3677V69.3698L155.1 69.4072V69.4086V69.41L155.097 69.4451V69.4486L155.089 69.4825V69.4839V69.486L155.077 69.5187L155.075 69.5208L155.061 69.5535L155.058 69.5556V69.557L155.039 69.5886L155.038 69.59L155.036 69.5921L155.014 69.6214L155.01 69.6249L154.984 69.6541L154.981 69.659L154.952 69.6859L154.947 69.6915L154.915 69.7172L154.908 69.7228L154.874 69.7473L154.831 69.7777L154.823 69.7826L154.787 69.806L154.776 69.813L154.736 69.8353L154.725 69.8409L154.684 69.8631L154.671 69.8687L154.629 69.8886L154.615 69.8956L154.572 69.9155L154.557 69.9225L154.51 69.9412L154.493 69.9468L154.448 69.9655L154.429 69.9725L154.383 69.9901L154.364 69.9971L154.317 70.0134L154.295 70.0205L154.248 70.0357L154.226 70.0427L154.178 70.0591L154.155 70.0673L154.106 70.0801L154.081 70.0883L154.032 70.1024L154.006 70.1105L153.959 70.1234L153.93 70.1304L153.883 70.1444L153.853 70.1526L153.806 70.1632L153.728 70.1831L153.697 70.1924L153.65 70.2029L153.619 70.2111L153.573 70.2228L153.539 70.231L153.495 70.2392L153.459 70.2486L153.415 70.2579L153.378 70.2661L153.336 70.2766L153.299 70.2848L153.256 70.2942L153.219 70.3024L153.179 70.3106L153.139 70.3199L153.101 70.3281L153.06 70.3363L153.024 70.3445L152.983 70.3538L152.947 70.3609L152.906 70.369L152.871 70.3772L152.829 70.3866L152.796 70.3936L152.754 70.403L152.722 70.41L152.678 70.4193L152.649 70.4264L152.606 70.4346L152.578 70.4416L152.537 70.4509L152.509 70.4558L152.467 70.4663L152.441 70.4719L152.4 70.4813L152.376 70.4861L152.334 70.4967L152.313 70.5016L152.272 70.5122L152.251 70.5171L152.211 70.5265L152.192 70.5321L152.152 70.5415L152.135 70.5471L152.095 70.5576L152.08 70.5611L152.044 70.5728L152.03 70.5763L151.994 70.5868L151.982 70.5917L151.948 70.6022L151.937 70.6057L151.905 70.6174L151.895 70.6209L151.865 70.6326L151.856 70.6361L151.829 70.6478L151.822 70.6513L151.796 70.663L151.792 70.6679L151.768 70.6796L151.763 70.6831L151.744 70.6948L151.742 70.6969H151.741C149.365 69.2115 146.924 69.3214 142.687 66.286C141.851 65.4767 136.672 63.7233 135.856 63.5093C133.807 62.9747 131.8 62.2928 129.776 61.6646C122.598 59.4235 114.612 58.6212 107.118 59.3756C103.112 59.778 99.3098 62.977 95.829 64.9807C91.4768 68.7517 102.591 69.7226 102.766 68.9295C102.945 68.1248 108.254 67.2077 108.993 67.3668C109.588 67.4943 106.336 69.7167 106.947 69.8641C109.373 70.4454 112.41 71.1823 116.302 71.0116C117.303 70.9671 122.251 68.8781 122.958 68.9565C123.724 69.043 119.888 71.5859 120.48 71.7227C123.964 72.5275 126.199 71.628 128.699 70.3262C129.475 70.2805 130.302 70.4022 131.051 70.0981C131.005 69.7343 130.553 69.7085 130.622 69.3296C130.99 69.4278 131.367 69.4302 131.671 69.6547C132.364 70.1682 133.192 70.3823 133.997 70.3753C136.931 70.3507 147.25 71.6643 150.902 71.911L150.892 71.9414L150.888 71.9463L150.878 71.9837L150.873 71.9966L150.866 72.0188L150.856 72.0481L150.855 72.0551L150.844 72.0902L150.842 72.1019L150.837 72.1253L150.83 72.1557L150.828 72.1606L150.823 72.1968L150.819 72.2097L150.816 72.2319L150.811 72.2624L150.809 72.2673L150.806 72.3013L150.805 72.3141L150.801 72.3363L150.8 72.3656V72.3705L150.798 72.4056V72.4173V72.4687V72.4722L150.8 72.519L150.801 72.5389L150.805 72.5693V72.5714L150.808 72.6053L150.81 72.617L150.814 72.638L150.818 72.6661L150.829 72.7153L150.834 72.734L150.843 72.7644V72.7679L150.854 72.7995L150.857 72.8112L150.872 72.851L150.876 72.858L150.877 72.8615L150.889 72.8919L150.895 72.9048L150.903 72.9223L150.918 72.9492L150.919 72.9527L150.934 72.9819L150.941 72.996L150.951 73.0123L150.968 73.0404L150.97 73.0418L150.99 73.0711L150.999 73.0839L151.011 73.1003L151.032 73.1272L151.055 73.1576L151.064 73.1693L151.077 73.1857L151.102 73.2114L151.103 73.2135L151.128 73.2392L151.142 73.2521L151.156 73.2673L151.183 73.2919L151.184 73.294L151.213 73.3209L151.227 73.3326L151.244 73.349L151.273 73.3724L151.275 73.3738L151.283 73.3809L151.323 73.4113L151.341 73.4253L151.374 73.4487H151.376L151.411 73.4744L151.429 73.485L151.449 73.4967L151.486 73.5212H151.487L151.527 73.5458L151.546 73.5563L151.568 73.568L151.61 73.5903H151.611L151.655 73.6125L151.676 73.623L151.7 73.6347L151.743 73.6558H151.745L151.793 73.6756L151.815 73.6873L151.841 73.6979L151.888 73.7178V73.7191L151.94 73.7379L151.966 73.7484L151.991 73.7578L152.045 73.7776C152.182 74.0139 154.127 74.0221 154.433 73.8057C154.716 73.6069 156.004 74.6222 157.153 74.5017C158.058 74.407 158.896 73.1507 158.961 73.1788C159.05 73.2174 162.144 73.1788 162.768 73.1809C163.332 73.1858 163.008 72.2475 163.324 71.6755C163.838 71.6334 164.615 72.4288 165.092 72.1259C167.649 71.6802 169.675 68.5958 166.848 68.301H166.849ZM123.147 99.2027C118.775 96.971 120.254 96.1768 124.48 98.4237C124.117 96.4879 124.6 97.5347 124.955 96.9651C124.667 96.6247 124.246 96.5522 123.882 96.4013C122.431 95.7955 121.094 94.9615 119.839 94.0631C115.612 91.0313 112.156 87.2626 109.561 82.7313C109.03 81.8061 108.871 82.0377 108.356 81.1032C108.23 80.875 108.18 80.5241 107.751 80.6317C107.605 81.2611 107.532 81.8307 107.819 82.5079C108.246 83.5174 108.125 83.4332 108.421 84.494L106.735 83.3162C106.098 83.9524 107.338 85.762 107.594 86.2099C106.946 86.9457 106.501 85.5058 105.38 85.204C105.748 87.9937 110.326 93.683 113.966 96.4434C116.625 98.4588 120.348 100.239 122.124 99.9057L123.147 99.2027ZM130.442 91.2945C128.31 89.6874 129.765 88.8417 131.902 90.5155C131.862 88.5797 132.172 89.6265 132.621 89.057C132.39 88.7189 131.982 88.6429 131.641 88.4931C130.292 87.8873 129.091 87.0545 127.988 86.1549C124.268 83.1243 121.441 79.3556 119.602 74.8231C119.227 73.8979 119.027 74.1307 118.67 73.1961C118.58 72.968 118.588 72.6159 118.143 72.7235C117.892 73.354 117.724 73.9236 117.897 74.6009C118.157 75.6092 118.049 75.525 118.169 76.5882L116.68 75.408C115.934 76.0454 116.877 77.8526 117.053 78.3017C116.285 79.0387 116.08 77.5988 115.007 77.2946C114.909 80.0867 118.54 85.7749 121.719 88.5352C124.041 90.5518 127.469 92.332 129.299 91.9987L130.442 91.2945ZM108.767 107.059C108.774 106.758 108.561 106.581 108.405 106.365C107.302 104.863 105.732 103.888 104.317 102.741C104.041 102.518 103.749 102.151 103.338 102.463C103.018 102.706 102.931 103.077 102.968 103.479C103.031 104.204 103.48 104.775 103.761 105.404C105.158 108.519 105.356 108.58 108.542 107.277C108.633 107.24 108.692 107.131 108.767 107.059ZM114.085 104.245C114.811 104.896 115.235 104.271 115.746 104.003C116.192 103.771 116.093 103.504 115.739 103.278C115.533 103.145 115.304 103.047 115.083 102.941C112.756 101.837 110.722 100.306 108.948 98.4658C107.011 96.4563 105.173 94.3532 103.809 91.8852C103.587 91.4805 103.311 91.2092 102.824 91.4911C102.323 91.7835 102.203 92.3695 102.599 92.8279C102.908 93.1824 103.16 93.483 103.034 94.021C102.935 94.4421 103.207 94.6094 103.637 94.4632C103.789 94.4129 103.964 94.4059 104.098 94.565C104.188 94.9299 103.685 95.1848 103.882 95.5545C104.081 95.9195 104.602 95.2492 104.55 95.6668C104.481 96.2388 104.662 96.2306 105.091 96.2891C105.525 96.3487 105.584 96.5651 105.228 96.9406C104.939 97.2388 105.157 97.461 105.555 97.4178C105.736 97.3991 105.885 97.1453 106.155 97.3967C106.187 97.8494 105.801 98.653 106.876 98.529C107.023 98.5114 107.034 98.784 107.04 98.9466C107.062 99.5104 107.249 99.8261 107.884 99.5595C108.194 99.4262 108.41 99.6238 108.372 99.894C108.3 100.384 108.578 100.501 108.885 100.798C109.322 101.231 109.511 101.888 110.305 101.827C110.364 101.823 110.483 102.008 110.493 102.111C110.54 102.605 110.814 102.691 111.259 102.656C111.837 102.612 111.992 102.904 111.732 103.423C111.673 103.539 111.693 103.658 111.826 103.769C112.038 103.789 113.98 104.152 114.085 104.245Z" fill="white"></path>
<path fill-rule="evenodd" clip-rule="evenodd" d="M114.828 19.8596L148.922 0.148254L183.017 19.8596L148.922 9.06825L114.828 19.8596Z" fill="#F69C00"></path>
<path fill-rule="evenodd" clip-rule="evenodd" d="M114.828 155.888L148.922 175.6L183.017 155.888L148.922 166.68L114.828 155.888Z" fill="#F69C00"></path>
</svg></svg></g></g><defs><clipPath id="SvgjsClipPath1226"><rect width="1000" height="1000" x="0" y="0" rx="350" ry="350"></rect></clipPath></defs></svg>