<svg width="512" height="302" viewBox="0 0 512 302" fill="none" xmlns="http://www.w3.org/2000/svg">
<path fill-rule="evenodd" clip-rule="evenodd" d="M327.638 41.6963L386.217 75.5188V143.165L372.963 83.1721L327.638 41.6963Z" fill="#F69C00"/>
<path fill-rule="evenodd" clip-rule="evenodd" d="M125.515 158.403V211.256H137.192L125.515 158.403Z" fill="#F69C00"/>
<path fill-rule="evenodd" clip-rule="evenodd" d="M386.217 158.403V211.256H374.541L386.217 158.403Z" fill="#F69C00"/>
<path fill-rule="evenodd" clip-rule="evenodd" d="M184.094 41.6953L125.516 75.5191L125.515 143.166L138.77 83.172L184.094 41.6953Z" fill="#F69C00"/>
<path fill-rule="evenodd" clip-rule="evenodd" d="M39.1516 260.904H21.2611V259.516C24.0365 259.516 25.4242 258.855 25.4242 257.534C25.4242 256.675 24.5648 255.105 22.8472 252.825L17.6932 246.036L13.0346 251.784C11.3159 253.899 10.4575 255.535 10.4575 256.692C10.4575 258.442 11.7784 259.385 14.4223 259.516V260.904H0.546242V259.516C3.75033 259.516 7.38505 256.939 11.4485 251.784L16.8996 244.895L7.28541 232.307C5.86479 230.424 4.90678 229.267 4.41125 228.837C3.25492 227.813 1.90004 227.301 0.347931 227.301V225.913H17.2963V227.301C17.2963 227.301 16.9165 227.301 16.157 227.301C14.1412 227.301 13.1333 227.846 13.1333 228.936C13.1333 229.597 13.6128 230.555 14.5708 231.811L20.964 240.286L25.5228 234.736C27.1089 232.818 27.9015 231.266 27.9015 230.077C27.9015 229.184 27.4559 228.473 26.5637 227.945C25.8041 227.515 24.9277 227.301 23.9368 227.301V225.913H37.6144V227.301C35.6655 227.466 33.6996 228.392 31.7177 230.077C30.5284 231.068 29.008 232.687 27.1577 234.933L21.8064 241.427L31.8662 254.61C34.0136 257.418 35.831 258.988 37.3173 259.318C37.9125 259.45 38.5237 259.516 39.1516 259.516V260.904ZM33.0555 227.4C32.9229 227.367 32.7913 227.334 32.6587 227.301H27.1577C28.1827 227.862 28.694 228.639 28.694 229.63C28.694 230.125 28.6612 230.489 28.5953 230.721L28.6452 230.771C28.6781 230.539 29.339 229.961 30.6271 229.036C31.7835 228.176 32.593 227.631 33.0555 227.4ZM28.0012 257.385C28.0012 256.229 26.9265 254.23 24.7791 251.388L8.87141 230.472C7.94633 229.25 7.25248 228.473 6.78988 228.143C6.06322 227.582 5.07228 227.301 3.81716 227.301L3.66752 227.4C3.70153 227.367 3.75033 227.351 3.81716 227.351C4.41125 227.351 5.51782 228.425 7.13687 230.572L23.5899 252.528C25.3415 254.874 26.2167 256.542 26.2167 257.534C26.2167 258.228 25.787 258.888 24.9277 259.516C26.9764 259.516 28.0012 258.806 28.0012 257.385ZM9.96212 259.516C9.03703 258.988 8.57443 258.344 8.57443 257.583C8.57443 256.956 8.70592 256.278 8.97117 255.551L8.92129 255.502C6.97244 257.517 5.30352 258.855 3.91583 259.516H9.96212ZM72.9001 235.478C72.9001 238.518 71.7596 240.881 69.4796 242.566C67.6963 243.854 65.0693 244.648 61.6001 244.945C60.7746 245.011 57.9663 245.044 53.1762 245.044V255.551C53.1762 257.203 53.8531 258.327 55.2079 258.922C56.0661 259.318 57.4709 259.516 59.4199 259.516V260.904H41.3808V259.516C43.4623 259.516 44.8829 259.252 45.6425 258.724C46.5676 258.03 47.0302 256.692 47.0302 254.709V232.207C47.0302 230.125 46.5847 228.755 45.6924 228.094C44.9656 227.532 43.528 227.251 41.3808 227.251V225.913H58.4289C62.3937 225.913 65.5976 226.524 68.0431 227.747C71.2811 229.333 72.9001 231.91 72.9001 235.478ZM68.5387 235.528C68.5387 231.166 66.5398 228.473 62.5421 227.45L62.3937 227.499C65.4662 229.019 67.0024 231.729 67.0024 235.627C67.0024 239.559 65.4662 242.153 62.3937 243.408L62.5421 243.458C66.5398 242.896 68.5387 240.253 68.5387 235.528ZM66.16 235.528C66.16 230.01 63.3188 227.251 57.6364 227.251C55.7861 227.251 54.5628 227.664 53.9688 228.49C53.4404 229.151 53.1762 230.44 53.1762 232.356V243.657H56.6444C59.7837 243.657 62.0966 243.094 63.5829 241.971C65.3007 240.683 66.16 238.535 66.16 235.528ZM49.4099 255.799V231.316C49.4099 229.861 49.1532 228.82 48.6407 228.193C48.1293 227.565 47.1628 227.251 45.7423 227.251C46.7003 227.747 47.2869 228.218 47.5012 228.663C47.7166 229.11 47.8238 229.911 47.8238 231.068V255.998C47.8238 257.814 47.2126 258.988 45.9894 259.516H46.6344C48.4847 259.516 49.4099 258.277 49.4099 255.799ZM106.153 260.904H91.4347V259.516C93.9788 259.516 95.2498 258.822 95.2498 257.434C95.2498 256.873 95.0185 255.998 94.557 254.808L91.7816 247.721H80.0359L78.401 251.933C77.9713 253.024 77.756 254.13 77.756 255.254C77.756 256.443 78.1284 257.451 78.8711 258.277C79.6148 259.103 80.5813 259.516 81.7706 259.516V260.904H70.2732V259.516C71.5951 259.516 72.8831 258.724 74.1393 257.137C75.0644 255.948 75.8399 254.543 76.468 252.925L85.0415 230.969C84.249 229.481 82.8284 228.739 80.7796 228.739V227.698L85.2398 225.616H89.7001L101.148 254.857C102.37 257.963 104.039 259.516 106.153 259.516V260.904ZM97.6783 257.434C97.6783 256.542 97.3812 255.353 96.786 253.866L87.9156 231.464C87.0901 229.383 86.0165 228.342 84.6945 228.342C84.2649 228.342 83.8521 228.408 83.4554 228.54C84.7444 229.036 85.7523 230.208 86.4791 232.059L95.2498 254.461C95.7792 255.815 96.0434 256.84 96.0434 257.534C96.0434 258.228 95.5968 258.888 94.7056 259.516H95.2498C96.8688 259.516 97.6783 258.822 97.6783 257.434ZM91.1366 246.134L85.834 232.753L80.6311 246.134H91.1366ZM77.7072 259.516C76.7163 258.789 76.2197 257.881 76.2197 256.79C76.2197 256.46 76.3025 255.882 76.468 255.056L76.4182 255.006C75.3944 257.22 74.238 258.724 72.95 259.516H77.7072ZM148.623 260.904H132.071V259.516C133.954 259.516 135.226 259.335 135.887 258.971C136.812 258.442 137.275 257.319 137.275 255.601V243.805H119.632V255.799C119.632 257.352 120.145 258.392 121.169 258.922C121.862 259.318 123.068 259.516 124.786 259.516V260.904H108.234V259.516C110.117 259.516 111.389 259.318 112.05 258.922C112.975 258.392 113.437 257.286 113.437 255.601V231.216C113.437 229.498 112.958 228.375 112 227.846C111.373 227.482 110.117 227.301 108.234 227.301V225.913H124.786V227.301C123.167 227.301 121.978 227.499 121.218 227.895C120.161 228.49 119.632 229.531 119.632 231.018V241.971H137.275V231.166C137.275 229.581 136.746 228.49 135.689 227.895C134.962 227.499 133.755 227.301 132.071 227.301V225.913H148.623V227.301C146.872 227.301 145.65 227.482 144.956 227.846C143.932 228.375 143.42 229.433 143.42 231.018V255.799C143.42 257.418 143.915 258.492 144.906 259.021C145.567 259.351 146.806 259.516 148.623 259.516V260.904ZM139.653 255.799V231.018C139.653 229.73 139.522 228.854 139.256 228.392C138.894 227.664 138.134 227.301 136.978 227.301H136.284C137.473 227.862 138.067 229.134 138.067 231.118V255.651C138.067 256.708 137.985 257.467 137.82 257.93C137.589 258.558 137.076 259.086 136.284 259.516H137.076C138.794 259.516 139.653 258.277 139.653 255.799ZM115.866 255.799V231.018C115.866 229.663 115.635 228.705 115.172 228.143C114.71 227.582 113.817 227.301 112.495 227.301C113.256 227.764 113.751 228.309 113.983 228.936C114.181 229.433 114.28 230.175 114.28 231.166V255.7C114.28 256.725 114.197 257.467 114.033 257.93C113.767 258.525 113.256 259.053 112.495 259.516H113.239C114.991 259.516 115.866 258.277 115.866 255.799ZM191.986 260.904H175.433V259.516C177.317 259.516 178.589 259.335 179.25 258.971C180.175 258.442 180.637 257.319 180.637 255.601V235.231H180.489L164.184 252.875C163.392 253.733 162.995 254.709 162.995 255.799C162.995 257.352 163.507 258.392 164.531 258.922C165.225 259.318 166.43 259.516 168.149 259.516V260.904H151.596V259.516C153.447 259.516 154.719 259.335 155.412 258.971C156.337 258.409 156.8 257.286 156.8 255.601V231.216C156.8 229.498 156.321 228.375 155.363 227.846C154.736 227.482 153.479 227.301 151.596 227.301V225.913H168.149V227.301C166.53 227.301 165.341 227.499 164.581 227.895C163.523 228.49 162.995 229.531 162.995 231.018V251.686H163.143L179.448 233.992C180.24 233.132 180.637 232.191 180.637 231.166C180.637 229.581 180.109 228.49 179.051 227.895C178.324 227.499 177.118 227.301 175.433 227.301V225.913H191.986V227.301C190.234 227.301 189.012 227.482 188.318 227.846C187.295 228.375 186.782 229.433 186.782 231.018V255.799C186.782 257.418 187.278 258.492 188.269 259.021C188.93 259.351 190.169 259.516 191.986 259.516V260.904ZM183.016 255.799V231.018C183.016 229.73 182.884 228.854 182.619 228.392C182.256 227.664 181.497 227.301 180.34 227.301H179.646C180.836 227.862 181.43 229.134 181.43 231.118V255.651C181.43 256.708 181.348 257.467 181.183 257.93C180.951 258.558 180.439 259.086 179.646 259.516H180.439C182.156 259.516 183.016 258.277 183.016 255.799ZM159.229 255.799V231.018C159.229 229.663 158.997 228.705 158.535 228.143C158.072 227.582 157.18 227.301 155.858 227.301C156.619 227.764 157.114 228.309 157.345 228.936C157.544 229.433 157.643 230.175 157.643 231.166V255.7C157.643 256.725 157.56 257.467 157.395 257.93C157.13 258.525 156.619 259.053 155.858 259.516H156.602C158.353 259.516 159.229 258.277 159.229 255.799ZM229.351 234.14H227.568C226.015 231.53 224.247 229.73 222.265 228.739C220.514 227.846 218.036 227.367 214.831 227.301V255.452C214.831 257.072 215.22 258.137 215.996 258.649C216.773 259.161 218.235 259.45 220.382 259.516V260.904H203.037V259.516C205.184 259.45 206.555 259.235 207.15 258.872C208.141 258.344 208.636 257.104 208.636 255.155V227.301C205.762 227.301 203.334 227.879 201.352 229.036C199.7 229.994 197.866 231.696 195.851 234.14H194.315L196.098 225.913H227.568L229.351 234.14ZM226.527 231.266L225.436 227.301H220.778C222.826 227.929 224.743 229.25 226.527 231.266ZM200.658 227.301H196.693L195.702 231.513C197.123 229.63 198.775 228.226 200.658 227.301ZM211.065 230.275C211.065 228.392 210.537 227.4 209.479 227.301V255.452C209.479 257.336 208.885 258.691 207.695 259.516H208.241C209.463 259.516 210.272 259.07 210.668 258.178C210.933 257.583 211.065 256.592 211.065 255.204V230.275ZM264.686 251.933L261.91 260.904H231.433V259.516C233.613 259.516 235.068 259.276 235.794 258.798C236.521 258.318 236.884 257.236 236.884 255.551V231.663C236.884 229.713 236.438 228.458 235.546 227.895C234.918 227.499 233.547 227.301 231.433 227.301V225.913H260.672L263.695 233.843H261.91C260.291 231.827 258.277 230.234 255.865 229.06C253.453 227.888 250.958 227.301 248.381 227.301C246.598 227.301 245.359 227.482 244.665 227.846C243.607 228.375 243.079 229.433 243.079 231.018V242.219H248.381C252.61 242.219 254.725 240.22 254.725 236.222H256.409V249.405H254.725C254.725 245.54 252.643 243.607 248.481 243.607H243.079V255.799C243.079 256.559 243.161 257.17 243.327 257.633C243.757 258.922 245.557 259.549 248.728 259.516H249.869C252.544 259.516 254.956 258.772 257.103 257.286C258.524 256.295 260.358 254.51 262.604 251.933H264.686ZM260.226 230.869V230.671L258.392 227.301H254.179C254.114 227.301 253.998 227.334 253.832 227.4C253.965 227.367 254.081 227.351 254.179 227.351C255.204 227.351 257.219 228.523 260.226 230.869ZM254.329 245.242V240.386C253.635 241.508 252.479 242.335 250.86 242.863C252.544 243.26 253.701 244.053 254.329 245.242ZM261.168 255.502V255.254C261.168 256.014 260.325 256.856 258.639 257.781C258.277 257.98 257.087 258.525 255.072 259.417L255.32 259.516H259.433L261.168 255.502ZM239.263 255.799V231.068C239.263 229.713 239.081 228.788 238.718 228.292C238.256 227.631 237.346 227.301 235.992 227.301C237.115 227.796 237.677 229.201 237.677 231.513V255.651C237.677 257.6 237.115 258.888 235.992 259.516C237.379 259.516 238.305 259.202 238.767 258.575C239.098 258.112 239.263 257.187 239.263 255.799ZM304.232 260.904H287.681V259.516C289.564 259.516 290.836 259.335 291.497 258.971C292.422 258.442 292.884 257.319 292.884 255.601V231.166C292.884 229.481 292.388 228.358 291.397 227.796C290.703 227.434 289.415 227.251 287.532 227.251C284.691 227.251 282.741 227.4 281.684 227.698C279.57 228.358 278.512 229.763 278.512 231.91V251.636C278.512 254.61 278.182 256.823 277.521 258.277C276.53 260.424 274.73 261.499 272.12 261.499C270.567 261.499 269.279 261.135 268.254 260.408C267.13 259.616 266.569 258.459 266.569 256.939C266.569 256.212 266.8 255.551 267.263 254.957C267.725 254.362 268.319 254.065 269.047 254.065C269.84 254.065 270.509 254.37 271.054 254.981C271.599 255.592 271.872 256.41 271.872 257.434C271.872 259.219 272.351 260.111 273.309 260.111C273.573 260.111 273.92 259.979 274.35 259.714C276.133 258.591 277.026 256.41 277.026 253.172V231.91C277.026 229.994 276.266 228.689 274.746 227.995C273.755 227.532 272.136 227.301 269.89 227.301V225.913H304.232V227.301C302.482 227.301 301.259 227.482 300.566 227.846C299.541 228.375 299.029 229.433 299.029 231.018V255.799C299.029 257.418 299.541 258.475 300.566 258.971C301.227 259.335 302.449 259.516 304.232 259.516V260.904ZM295.263 255.799V231.018C295.263 229.73 295.13 228.854 294.866 228.392C294.502 227.664 293.743 227.301 292.586 227.301H291.892C293.082 227.862 293.677 229.134 293.677 231.118V255.651C293.677 256.708 293.594 257.467 293.429 257.93C293.197 258.558 292.686 259.086 291.892 259.516H292.686C294.404 259.516 295.263 258.277 295.263 255.799ZM279.801 227.301H274.894C276.282 227.862 277.124 228.722 277.422 229.878C277.785 228.787 278.579 227.929 279.801 227.301ZM270.831 260.607C269.51 259.351 268.849 258.277 268.849 257.385C268.849 256.625 269.196 256.245 269.89 256.245C270.22 256.245 270.534 256.345 270.831 256.542C270.434 255.485 269.873 254.957 269.146 254.957C268.618 254.957 268.188 255.171 267.857 255.601C267.527 256.031 267.361 256.509 267.361 257.039C267.361 258.691 268.502 259.913 270.781 260.705L270.831 260.607ZM338.725 251.339C338.725 254.907 337.106 257.484 333.868 259.07C331.423 260.293 328.219 260.904 324.254 260.904H307.206V259.566C309.222 259.566 310.625 259.252 311.419 258.624C312.377 257.864 312.856 256.526 312.856 254.61V231.415C312.856 229.63 312.369 228.49 311.394 227.995C310.42 227.499 309.023 227.251 307.206 227.251V225.913H324.8V227.251C322.884 227.251 321.529 227.434 320.735 227.796C319.58 228.392 319.001 229.548 319.001 231.266V241.277C319.43 241.277 320.141 241.261 321.132 241.228C322.057 241.228 322.768 241.228 323.263 241.228C328.979 241.228 332.985 242.145 335.281 243.978C337.576 245.812 338.725 248.266 338.725 251.339ZM334.364 251.289C334.364 249.108 333.901 247.291 332.976 245.837C331.952 244.152 330.416 243.16 328.367 242.863L328.219 242.963C331.291 244.714 332.828 247.456 332.828 251.19C332.828 255.088 331.291 257.798 328.219 259.318L328.367 259.368C332.365 258.344 334.364 255.651 334.364 251.289ZM331.985 251.289C331.985 245.506 328.813 242.616 322.47 242.616H319.001V254.461C319.001 256.378 319.266 257.666 319.794 258.327C320.388 259.153 321.611 259.566 323.462 259.566C329.144 259.566 331.985 256.807 331.985 251.289ZM315.235 255.799V231.018C315.235 229.763 315.086 228.87 314.789 228.342C314.392 227.615 313.616 227.251 312.46 227.251H311.815C312.608 227.714 313.121 228.242 313.351 228.837C313.549 229.267 313.649 229.994 313.649 231.018V255.155C313.649 257.27 312.955 258.739 311.568 259.566C312.955 259.566 313.913 259.285 314.442 258.724C314.97 258.161 315.235 257.187 315.235 255.799ZM397.648 260.904H381.641V259.516C384.912 259.516 386.547 258.112 386.547 255.304V230.374L374.257 260.904H372.771L360.629 231.316V252.033C360.629 254.147 361.025 255.848 361.818 257.137C362.776 258.724 364.246 259.516 366.229 259.516V260.904H353.74V259.516C357.342 259.516 359.142 257.054 359.142 252.131V229.433C357.92 228.011 356.119 227.301 353.74 227.301V225.913H365.04L376.091 252.428L386.944 225.913H397.648V227.301C396.063 227.301 394.906 227.515 394.18 227.945C393.222 228.507 392.742 229.531 392.742 231.018V255.848C392.742 257.303 393.222 258.31 394.18 258.872C394.939 259.302 396.096 259.516 397.648 259.516V260.904ZM389.768 227.301C388.711 227.301 388.018 227.698 387.688 228.49C387.456 228.986 387.341 229.828 387.341 231.018V255.7C387.341 256.757 387.258 257.501 387.093 257.93C386.861 258.558 386.349 259.086 385.556 259.516H386.399C387.489 259.516 388.216 259.153 388.579 258.425C388.81 257.93 388.926 257.072 388.926 255.848V231.018C388.926 229.167 389.207 227.929 389.768 227.301ZM373.811 257.831C373.811 257.369 373.563 256.542 373.068 255.353L363.404 231.86C362.776 230.308 362.215 229.25 361.719 228.689C360.893 227.764 359.819 227.301 358.498 227.301H357.606C358.697 227.698 359.572 228.358 360.233 229.283C360.661 229.878 361.174 230.869 361.769 232.257L373.266 259.516C373.629 258.855 373.811 258.294 373.811 257.831ZM361.769 259.516C360.447 258.888 359.622 257.814 359.291 256.295C358.762 257.781 357.936 258.855 356.813 259.516H361.769ZM425.004 218.033C425.004 218.958 424.707 219.726 424.112 220.337C423.518 220.949 422.758 221.254 421.833 221.254C420.908 221.254 420.14 220.966 419.529 220.387C418.916 219.809 418.611 219.057 418.611 218.131C418.611 217.173 418.909 216.398 419.503 215.803C420.098 215.207 420.875 214.91 421.833 214.91C422.724 214.91 423.476 215.207 424.087 215.803C424.698 216.398 425.004 217.14 425.004 218.033ZM413.556 218.033C413.556 218.958 413.259 219.726 412.664 220.337C412.07 220.949 411.309 221.254 410.384 221.254C409.459 221.254 408.691 220.957 408.08 220.362C407.469 219.768 407.163 219.024 407.163 218.131C407.163 217.206 407.469 216.438 408.08 215.827C408.691 215.216 409.459 214.91 410.384 214.91C411.277 214.91 412.029 215.207 412.64 215.803C413.251 216.398 413.556 217.14 413.556 218.033ZM433.924 251.933L431.149 260.904H400.671V259.516C402.852 259.516 404.306 259.276 405.033 258.798C405.76 258.318 406.122 257.236 406.122 255.551V231.663C406.122 229.713 405.677 228.458 404.785 227.895C404.157 227.499 402.786 227.301 400.671 227.301V225.913H429.911L432.934 233.843H431.149C429.53 231.827 427.515 230.234 425.104 229.06C422.691 227.888 420.197 227.301 417.62 227.301C415.836 227.301 414.597 227.482 413.903 227.846C412.846 228.375 412.317 229.433 412.317 231.018V242.219H417.62C421.849 242.219 423.963 240.22 423.963 236.222H425.648V249.405H423.963C423.963 245.54 421.882 243.607 417.72 243.607H412.317V255.799C412.317 256.559 412.4 257.17 412.566 257.633C412.995 258.922 414.796 259.549 417.967 259.516H419.107C421.783 259.516 424.195 258.772 426.342 257.286C427.762 256.295 429.597 254.51 431.843 251.933H433.924ZM422.328 220.56V220.462C421.403 219.833 420.941 219.008 420.941 217.983C420.941 217.125 421.403 216.381 422.328 215.753V215.654H421.882C420.23 215.654 419.404 216.479 419.404 218.131C419.404 219.751 420.378 220.56 422.328 220.56ZM429.464 230.869V230.671L427.631 227.301H423.418C423.352 227.301 423.237 227.334 423.071 227.4C423.204 227.367 423.319 227.351 423.418 227.351C424.443 227.351 426.458 228.523 429.464 230.869ZM410.881 220.56V220.462C409.956 219.833 409.493 219.008 409.493 217.983C409.493 217.125 409.956 216.381 410.881 215.753V215.654H410.434C408.782 215.654 407.957 216.479 407.957 218.131C407.957 219.751 408.931 220.56 410.881 220.56ZM423.568 245.242V240.386C422.874 241.508 421.717 242.335 420.098 242.863C421.783 243.26 422.939 244.053 423.568 245.242ZM430.406 255.502V255.254C430.406 256.014 429.564 256.856 427.878 257.781C427.515 257.98 426.326 258.525 424.31 259.417L424.558 259.516H428.672L430.406 255.502ZM408.501 255.799V231.068C408.501 229.713 408.32 228.788 407.957 228.292C407.494 227.631 406.585 227.301 405.23 227.301C406.354 227.796 406.916 229.201 406.916 231.513V255.651C406.916 257.6 406.354 258.888 405.23 259.516C406.618 259.516 407.543 259.202 408.006 258.575C408.337 258.112 408.501 257.187 408.501 255.799ZM474.115 267.743H472.331C471.439 266.058 470.035 264.522 468.118 263.134C466.038 261.648 464.105 260.904 462.32 260.904H446.214C444.1 260.904 442.175 261.539 440.441 262.812C438.706 264.084 437.377 265.728 436.452 267.743H434.915L436.7 259.516H441.259C442.646 258.128 443.604 256.443 444.133 254.461C444.497 253.007 444.678 251.075 444.678 248.662V231.91C444.678 229.928 443.836 228.606 442.151 227.945C441.027 227.515 439.64 227.301 437.988 227.301V225.913H471.885V227.301C470.134 227.301 468.912 227.482 468.218 227.846C467.193 228.375 466.682 229.433 466.682 231.018V255.799C466.682 257.484 467.26 258.575 468.417 259.07C469.044 259.368 470.349 259.516 472.331 259.516L474.115 267.743ZM462.916 255.799V231.018C462.916 229.73 462.783 228.854 462.519 228.392C462.155 227.664 461.395 227.301 460.239 227.301H459.545C460.734 227.862 461.329 229.134 461.329 231.118V255.651C461.329 256.708 461.247 257.467 461.081 257.93C460.85 258.558 460.339 259.086 459.545 259.516H460.339C462.056 259.516 462.916 258.277 462.916 255.799ZM447.453 227.301H442.547C443.934 227.862 444.777 228.722 445.075 229.878C445.438 228.787 446.231 227.929 447.453 227.301ZM460.537 255.601V231.166C460.537 229.68 460.198 228.663 459.521 228.119C458.844 227.574 457.745 227.301 456.225 227.301H452.608C448.313 227.301 446.165 228.837 446.165 231.91V248.712C446.165 253.866 445.422 257.467 443.934 259.516H455.63C457.415 259.516 458.62 259.318 459.248 258.922C460.107 258.36 460.537 257.253 460.537 255.601ZM471.439 264.869L470.448 260.904H465.938C468.02 261.829 469.804 263.151 471.291 264.869H471.439ZM440.316 260.904H437.294L436.303 265.116C437.427 263.464 438.764 262.06 440.316 260.904ZM511.382 260.904H496.664V259.516C499.208 259.516 500.479 258.822 500.479 257.434C500.479 256.873 500.248 255.998 499.786 254.808L497.011 247.721H485.265L483.63 251.933C483.201 253.024 482.985 254.13 482.985 255.254C482.985 256.443 483.358 257.451 484.1 258.277C484.844 259.103 485.811 259.516 487 259.516V260.904H475.503V259.516C476.825 259.516 478.112 258.724 479.369 257.137C480.294 255.948 481.069 254.543 481.697 252.925L490.271 230.969C489.478 229.481 488.058 228.739 486.009 228.739V227.698L490.469 225.616H494.929L506.377 254.857C507.599 257.963 509.268 259.516 511.382 259.516V260.904ZM502.908 257.434C502.908 256.542 502.611 255.353 502.015 253.866L493.145 231.464C492.319 229.383 491.246 228.342 489.924 228.342C489.494 228.342 489.082 228.408 488.685 228.54C489.974 229.036 490.982 230.208 491.708 232.059L500.479 254.461C501.009 255.815 501.273 256.84 501.273 257.534C501.273 258.228 500.826 258.888 499.935 259.516H500.479C502.098 259.516 502.908 258.822 502.908 257.434ZM496.366 246.134L491.063 232.753L485.86 246.134H496.366ZM482.937 259.516C481.946 258.789 481.449 257.881 481.449 256.79C481.449 256.46 481.532 255.882 481.697 255.056L481.648 255.006C480.624 257.22 479.467 258.724 478.179 259.516H482.937Z" fill="white"/>
<path fill-rule="evenodd" clip-rule="evenodd" d="M197.288 34.0773L255.866 0.254395L314.445 34.0773L255.866 15.5603L197.288 34.0773Z" fill="#F69C00"/>
<path fill-rule="evenodd" clip-rule="evenodd" d="M197.288 267.49L255.866 301.313L314.445 267.49L255.866 286.007L197.288 267.49Z" fill="#F69C00"/>
</svg>
