<svg width="390" height="844" viewBox="0 0 390 844" fill="none" xmlns="http://www.w3.org/2000/svg">
<path opacity="0.8" d="M893.826 -18.8922L931 -83.2977L893.394 -148.135V-148.568H817.748L780.574 -84.1622H706.658L669.916 -148.568V-149H594.271L557.097 -84.5945H482.748L446.006 -148.568V-149H370.361L333.187 -84.5945H259.271L221.665 -148.568V-149H146.019L108.845 -84.5945H34.9291L-2.24512 -148.568V-149H-77.8903L-115.064 -84.5945H-188.981L-226.155 -148.568H-301.8L-338.974 -84.1622H-412.89L-450.065 -148.568H-525.71L-562.884 -84.1622H-636.8L-673.974 -148.568H-749.619L-786.794 -84.1622H-861.142L-898.748 -148.568H-973.961L-1011.57 -83.2977L-974.394 -18.8922L-1012 45.9456L-974.826 110.351L-1012 174.757L-974.826 239.162L-1012 303.568L-974.826 367.973L-1012 432.379L-974.826 496.784L-1012 561.19L-974.826 625.596L-1012 690.001L-974.826 754.407L-1012 818.812L-974.826 883.218L-1012 947.623L-974.826 1012.03L-1012 1076.43L-974.394 1141.7H-898.748L-861.574 1206.11H-785.929L-748.755 1141.7H-674.839L-637.665 1206.11H-562.019L-524.845 1141.7H-450.929L-413.755 1206.11H-338.11L-300.935 1141.7H-227.019L-189.845 1206.11H-114.2L-77.0258 1141.7H-3.10962L34.0646 1206.11V1206.54H109.71L146.884 1142.14H220.8L257.974 1208.7V1209.14H333.619L370.794 1144.73H444.71L481.884 1209.14V1209.57H557.529L594.703 1145.16H668.619L705.794 1209.57V1210H781.439L818.613 1145.59H893.394L931 1080.32L893.826 1015.92L931 951.513L893.826 887.108L931 822.702L893.826 758.297L931 693.891L893.826 629.486L931 565.08L893.826 500.675L931 436.269L893.826 371.864L931 307.458L893.826 243.052L931 178.647L893.826 114.241L931 49.8359L893.826 -18.8922ZM892.529 109.487H819.045L782.303 45.9456L819.045 -18.0277H892.529L929.271 45.9456L892.529 109.487ZM707.09 1078.6L670.348 1014.62L707.09 950.649H780.574L817.316 1014.62L780.574 1078.6H707.09ZM483.181 1078.6L446.439 1014.62L483.181 950.649H556.665L593.406 1014.62L556.665 1078.6H483.181ZM259.271 1078.6L222.529 1014.62L259.271 950.649H332.755L369.497 1014.62L332.755 1078.6H259.271ZM35.3613 1078.6L-1.38062 1014.62L35.3613 950.649H108.845L145.587 1014.62L108.845 1078.6H35.3613ZM-188.548 1078.6L-225.29 1014.62L-188.548 950.649H-115.064L-78.3226 1014.62L-115.064 1078.6H-188.548ZM-412.458 1078.6L-449.2 1014.62L-412.458 950.649H-338.974L-302.232 1014.62L-338.974 1078.6H-412.458ZM-636.8 1078.6L-673.542 1014.62L-636.8 950.649H-563.316L-526.574 1014.62L-563.316 1078.6H-636.8ZM-860.71 1078.6L-897.452 1014.62L-860.71 950.649H-787.226L-750.484 1014.62L-787.226 1078.6H-860.71ZM-786.794 46.3779L-750.052 110.351L-786.794 174.324H-860.277L-897.452 110.351L-860.71 46.3779H-786.794ZM-674.839 -18.0277L-638.097 45.9456L-674.839 109.919H-748.323L-785.497 45.9456L-748.755 -18.0277H-674.839ZM-450.929 -18.0277L-414.187 45.9456L-450.929 109.487H-524.413L-561.587 45.9456L-524.845 -18.0277H-450.929ZM-227.019 -18.0277L-190.277 45.9456L-227.019 109.919H-300.503L-337.677 45.9456L-300.935 -18.0277H-227.019ZM-3.10962 -18.0277L33.6323 45.9456L-3.10962 109.919H-76.5934L-113.768 45.9456L-77.0258 -18.0277H-3.10962ZM220.8 -18.0277L257.542 45.9456L220.8 109.919H147.316L110.142 45.9456L146.884 -18.0277H220.8ZM444.71 -18.0277L481.452 45.9456L444.71 109.919H371.226L334.052 45.9456L370.794 -18.0277H444.71ZM668.619 -18.0277L705.361 45.9456L668.619 109.487H595.135L557.961 45.9456L595.135 -18.0277H668.619ZM707.09 949.352L670.348 885.379L707.09 821.406H780.574L817.316 885.379L780.574 949.352H707.09ZM595.135 1014.19L558.394 950.217L595.135 886.243H668.619L705.361 950.217L668.619 1014.19H595.135ZM483.181 949.352L446.439 885.379L483.181 821.406H556.665L593.406 885.379L556.665 949.352H483.181ZM371.226 1014.19L334.484 950.217L371.226 886.243H444.71L481.452 950.217L444.71 1014.19H371.226ZM259.271 949.352L222.529 885.379L259.271 821.406H332.755L369.497 885.379L332.755 949.352H259.271ZM147.316 1014.19L110.574 950.217L147.316 886.243H220.8L257.542 950.217L220.8 1014.19H147.316ZM35.3613 949.352L-1.38062 885.379L35.3613 821.406H108.845L145.587 885.379L108.845 949.352H35.3613ZM-77.0258 1014.19L-113.768 950.217L-77.0258 886.243H-3.54187L33.2001 950.217L-3.54187 1014.19H-77.0258ZM-188.548 949.352L-225.29 885.379L-188.548 821.406H-115.064L-78.3226 885.379L-115.064 949.352H-188.548ZM-300.935 1014.19L-337.677 950.217L-300.935 886.243H-227.452L-190.71 950.217L-227.452 1014.19H-300.935ZM-412.458 949.352L-449.2 885.379L-412.458 821.406H-338.974L-302.232 885.379L-338.974 949.352H-412.458ZM-524.845 1014.19L-561.587 950.217L-524.845 886.243H-451.361L-414.619 950.217L-450.929 1014.19H-524.845ZM-636.8 949.352L-673.542 885.379L-636.8 821.406H-563.316L-526.574 885.379L-562.884 949.352H-636.8ZM-748.755 1014.19L-785.497 950.217L-748.755 886.243H-675.271L-638.529 950.217L-674.839 1014.19H-748.755ZM-860.71 949.352L-897.452 885.379L-860.71 821.406H-787.226L-750.484 885.379L-786.794 949.352H-860.71ZM-786.794 175.621L-750.052 239.594L-786.794 303.568H-860.277L-897.452 239.594L-860.71 175.621H-786.794ZM-674.839 111.216L-638.097 175.189L-674.839 239.162H-748.323L-785.065 175.189L-748.323 111.216H-674.839ZM-562.884 46.3779L-526.142 110.351L-562.884 174.324H-636.8L-673.542 110.351L-636.8 46.3779H-562.884ZM-450.929 111.216L-414.187 175.189L-450.929 238.73H-524.413L-561.155 174.757L-524.413 110.783H-450.929V111.216ZM-338.974 46.3779L-302.232 110.351L-338.974 174.324H-412.458L-449.2 110.351L-412.458 46.3779H-338.974ZM-227.019 111.216L-190.277 175.189L-227.019 239.162H-300.503L-337.245 175.189L-300.503 111.216H-227.019ZM-115.064 46.3779L-78.3226 110.351L-115.064 174.324H-188.548L-225.29 110.351L-188.548 46.3779H-115.064ZM-3.10962 111.216L33.6323 175.189L-3.10962 239.162H-76.5934L-113.768 175.189L-77.0258 111.216H-3.10962ZM108.845 46.3779L145.587 110.351L108.845 174.324H35.3613L-1.38062 110.351L35.3613 46.3779H108.845ZM220.8 111.216L257.542 175.189L220.8 239.162H147.316L110.574 175.189L147.316 111.216H220.8ZM332.755 46.3779L369.497 110.351L332.755 174.324H259.271L222.529 110.351L259.271 46.3779H332.755ZM444.71 111.216L481.452 175.189L444.71 239.162H371.226L334.484 175.189L371.226 111.216H444.71ZM556.665 46.3779L593.406 110.351L556.665 174.324H483.181L446.439 110.351L483.181 46.3779H556.665ZM668.619 111.216L705.361 175.189L668.619 238.73H595.135L558.394 174.757L595.135 110.783H668.619V111.216ZM780.574 46.3779L817.316 110.351L780.574 174.324H707.09L670.348 110.351L707.09 46.3779H780.574ZM707.09 820.109L670.348 756.136L707.09 692.162H780.574L817.316 756.136L780.574 820.109H707.09ZM595.135 884.947L558.394 820.973L595.135 757H668.619L705.361 820.973L668.619 884.947H595.135ZM483.181 820.109L446.439 756.136L483.181 692.162H556.665L593.406 756.136L556.665 820.109H483.181ZM371.226 884.947L334.484 820.973L371.226 757H444.71L481.452 820.973L444.71 884.947H371.226ZM259.271 820.109L222.529 756.136L259.271 692.162H332.755L369.497 756.136L332.755 820.109H259.271ZM147.316 884.947L110.574 820.973L147.316 757H220.8L257.542 820.973L220.8 884.947H147.316ZM35.3613 820.109L-1.38062 756.136L35.3613 692.162H108.845L145.587 756.136L108.845 820.109H35.3613ZM-77.0258 884.947L-113.768 820.973L-77.0258 757H-3.54187L33.2001 820.973L-3.54187 884.947H-77.0258ZM-188.548 820.109L-225.29 756.136L-188.548 692.162H-115.064L-78.3226 756.136L-115.064 820.109H-188.548ZM-300.935 884.947L-337.677 820.973L-300.935 757H-227.452L-190.71 820.973L-227.452 884.947H-300.935ZM-412.458 820.109L-449.2 756.136L-412.458 692.162H-338.974L-302.232 756.136L-338.974 820.109H-412.458ZM-524.845 884.947L-561.587 820.973L-524.845 757H-451.361L-414.619 820.973L-451.361 884.947H-524.845ZM-636.8 820.109L-673.542 756.136L-636.8 692.162H-563.316L-526.574 756.136L-563.316 820.109H-636.8ZM-748.755 884.947L-785.497 820.973L-748.755 757H-675.271L-638.529 820.973L-675.271 884.947H-748.755ZM-860.71 820.109L-897.452 756.136L-860.71 692.162H-787.226L-750.484 756.136L-787.226 820.109H-860.71ZM-786.794 304.865L-750.052 368.838L-786.794 432.811H-860.277L-897.452 368.838L-860.71 304.865H-786.794ZM-674.839 240.459L-638.097 304.432L-674.839 368.406H-748.323L-785.065 304.432L-748.755 240.459H-674.839ZM-562.884 175.621L-526.142 239.594L-562.884 303.568H-636.8L-673.542 239.594L-636.8 175.621H-562.884ZM-450.929 240.459L-414.187 304.432L-450.929 367.973H-524.413L-561.155 304L-524.845 240.459H-450.929ZM-338.974 175.621L-302.232 239.594L-338.974 303.568H-412.458L-449.2 239.594L-412.458 175.621H-338.974ZM-227.019 240.459L-190.277 304.432L-227.019 368.406H-300.503L-337.245 304.432L-300.503 240.459H-227.019ZM-115.064 175.621L-78.3226 239.594L-115.064 303.568H-188.548L-225.29 239.594L-188.548 175.621H-115.064ZM-3.10962 240.459L33.6323 304.432L-3.10962 368.406H-76.5934L-113.768 304L-77.0258 240.027H-3.10962V240.459ZM108.845 175.621L145.587 239.594L108.845 303.568H35.3613L-1.38062 239.594L35.3613 175.621H108.845ZM220.8 240.459L257.542 304.432L220.8 368.406H147.316L110.574 304.432L147.316 240.459H220.8ZM332.755 175.621L369.497 239.594L332.755 303.568H259.271L222.529 239.594L259.271 175.621H332.755ZM444.71 240.459L481.452 304.432L444.71 368.406H371.226L334.484 304.432L371.226 240.459H444.71ZM556.665 175.621L593.406 239.594L556.665 303.568H483.181L446.439 239.594L483.181 175.621H556.665ZM668.619 240.459L705.361 304.432L668.619 367.973H595.135L558.394 304L595.135 240.459H668.619ZM595.135 755.703L558.394 691.73L595.135 627.757H668.619L705.361 691.73L668.619 755.703H595.135ZM483.181 690.866L446.439 626.892L483.181 562.919H556.665L593.406 626.892L556.665 690.866H483.181ZM371.226 755.703L334.484 691.73L371.226 627.757H444.71L481.452 691.73L444.71 755.703H371.226ZM259.271 690.866L222.529 626.892L259.271 562.919H332.755L369.497 626.892L332.755 690.866H259.271ZM147.316 755.703L110.574 691.73L147.316 627.757H220.8L257.542 691.73L220.8 755.703H147.316ZM35.3613 690.866L-1.38062 626.892L35.3613 562.919H108.845L145.587 626.892L108.845 690.866H35.3613ZM-77.0258 755.703L-113.768 691.73L-77.0258 627.757H-3.54187L33.2001 691.73L-3.54187 755.703H-77.0258ZM-188.548 690.866L-225.29 626.892L-188.548 562.919H-115.064L-78.3226 626.892L-115.064 690.866H-188.548ZM-300.935 755.703L-337.677 691.73L-300.935 627.757H-227.452L-190.71 691.73L-227.452 755.703H-300.935ZM-412.458 690.866L-449.2 626.892L-412.458 562.919H-338.974L-302.232 626.892L-338.974 690.866H-412.458ZM-524.845 755.703L-561.587 691.73L-524.845 627.757H-451.361L-414.619 691.73L-451.361 755.703H-524.845ZM-636.8 690.866L-673.542 626.892L-636.8 562.919H-563.316L-526.574 626.892L-563.316 690.866H-636.8ZM-748.755 755.703L-785.497 691.73L-748.755 627.757H-675.271L-638.529 691.73L-675.271 755.703H-748.755ZM-674.839 369.702L-638.097 433.676L-674.839 497.649H-748.323L-785.065 433.676L-748.323 369.702H-674.839ZM-562.884 304.865L-526.142 368.838L-562.884 432.811H-636.8L-673.542 368.838L-636.8 304.865H-562.884ZM-450.929 369.702L-414.187 433.676L-450.929 497.649H-524.413L-561.155 433.676L-524.413 369.702H-450.929ZM-338.974 304.865L-302.232 368.838L-338.974 432.811H-412.458L-449.2 368.838L-412.458 304.865H-338.974ZM-227.019 369.702L-190.277 433.676L-227.019 497.649H-300.503L-337.245 433.676L-300.503 369.702H-227.019ZM-115.064 304.865L-78.3226 368.838L-115.064 432.811H-188.548L-225.29 368.838L-188.548 304.865H-115.064ZM-3.10962 369.702L33.6323 433.676L-3.10962 497.649H-76.5934L-113.335 433.676L-76.5934 369.702H-3.10962ZM108.845 304.865L145.587 368.838L108.845 432.811H35.3613L-1.38062 368.838L35.3613 304.865H108.845ZM220.8 369.702L257.542 433.676L220.8 497.649H147.316L110.574 433.676L147.316 369.702H220.8ZM332.755 304.865L369.497 368.838L332.755 432.811H259.271L222.529 368.838L259.271 304.865H332.755ZM444.71 369.702L481.452 433.676L444.71 497.649H371.226L334.484 433.676L371.226 369.702H444.71ZM556.665 304.865L593.406 368.838L556.665 432.811H483.181L446.439 368.838L483.181 304.865H556.665ZM668.619 369.702L705.361 433.676L668.619 497.649H595.135L558.394 433.676L595.135 369.702H668.619ZM595.135 626.46L558.394 562.487L595.135 498.513H668.619L705.361 562.487L668.619 626.46H595.135ZM483.181 561.622L446.439 497.649L483.181 433.676H556.665L593.406 497.649L556.665 561.622H483.181ZM371.226 626.46L334.484 562.487L371.226 498.513H444.71L481.452 562.487L444.71 626.46H371.226ZM259.271 561.622L222.529 497.649L259.271 433.676H332.755L369.497 497.649L332.755 561.622H259.271ZM147.316 626.46L110.574 562.487L147.316 498.513H220.8L257.542 562.487L220.8 626.46H147.316ZM35.3613 561.622L-1.38062 497.649L35.3613 433.676H108.845L145.587 497.649L108.845 561.622H35.3613ZM-77.0258 626.46L-113.768 562.487L-77.0258 498.513H-3.54187L33.2001 562.487L-3.54187 626.46H-77.0258ZM-188.548 561.622L-225.29 497.649L-188.548 433.676H-115.064L-78.3226 497.649L-115.064 561.622H-188.548ZM-300.935 626.46L-337.677 562.487L-300.935 498.513H-227.452L-190.71 562.487L-227.452 626.46H-300.935ZM-412.458 561.622L-449.2 497.649L-412.458 433.676H-338.974L-302.232 497.649L-338.974 561.622H-412.458ZM-524.845 626.46L-561.587 562.487L-524.845 498.513H-451.361L-414.619 562.487L-451.361 626.46H-524.845ZM-636.8 561.622L-673.542 497.649L-636.8 433.676H-563.316L-526.574 497.649L-563.316 561.622H-636.8ZM-748.755 626.46L-785.497 562.487L-748.755 498.513H-675.271L-638.529 562.487L-675.271 626.46H-748.755ZM-786.794 434.108L-750.052 498.081L-786.794 562.054H-860.277L-897.019 498.081L-860.277 434.108H-786.794ZM-786.794 563.351L-750.052 627.324L-786.794 691.298H-860.277L-897.019 627.324L-860.277 563.351H-786.794ZM707.09 690.866L670.348 626.892L707.09 562.919H780.574L817.316 626.892L780.574 690.866H707.09ZM707.09 561.622L670.348 497.649L707.09 433.676H780.574L817.316 497.649L780.574 561.622H707.09ZM707.09 432.811L670.348 368.838L707.09 304.865H780.574L817.316 368.838L780.574 432.811H707.09ZM707.09 303.568L670.348 239.594L707.09 175.621H780.574L817.316 239.594L780.574 303.568H707.09ZM817.748 -18.8922L781.006 45.0811H707.523L670.348 -18.8922L707.09 -82.8655H780.574L817.748 -18.8922ZM593.839 -18.8922L557.097 45.0811H483.613L446.439 -18.8922L483.181 -82.8655H556.665L593.839 -18.8922ZM369.497 -18.8922L332.755 45.0811H259.271L222.529 -18.8922L259.271 -82.8655H332.755L369.497 -18.8922ZM145.587 -18.8922L108.845 45.0811H35.3613L-1.81287 -18.8922L34.9291 -82.8655H108.413L145.587 -18.8922ZM-78.3226 -18.8922L-115.064 45.0811H-188.548L-225.723 -18.8922L-188.981 -82.8655H-115.497L-78.3226 -18.8922ZM-302.232 -18.8922L-338.974 45.0811H-412.458L-449.632 -18.8922L-412.89 -82.8655H-339.406L-302.232 -18.8922ZM-526.142 -18.8922L-562.884 45.0811H-636.8L-673.542 -18.8922L-636.8 -82.8655H-563.316L-526.142 -18.8922ZM-785.497 1079.46L-748.755 1015.49H-675.271L-638.529 1079.46L-675.271 1143.43H-748.755L-785.497 1079.46ZM-561.587 1079.46L-524.845 1015.49H-451.361L-414.619 1079.46L-451.361 1143.43H-524.845L-561.587 1079.46ZM-337.677 1079.46L-300.935 1015.49H-227.452L-190.71 1079.46L-227.452 1143.43H-300.935L-337.677 1079.46ZM-113.768 1079.46L-77.0258 1015.49H-3.54187L33.2001 1079.46L-3.54187 1143.43H-77.0258L-113.768 1079.46ZM110.142 1079.46L146.884 1015.49H220.368L257.11 1079.46L220.368 1143.43H146.884L110.142 1079.46ZM334.052 1079.46L370.794 1015.49H444.277L481.019 1079.46L444.277 1143.43H370.794L334.052 1079.46ZM557.961 1079.46L594.703 1015.49H668.187L704.929 1079.46L668.187 1143.43H594.703L557.961 1079.46ZM819.045 -147.271H892.961L929.703 -83.2977L892.961 -19.3244H819.477L782.735 -83.2977L819.045 -147.271ZM595.135 -147.271H668.619L705.361 -83.2977L668.619 -19.7567H595.135L558.394 -83.73L595.135 -147.271ZM370.794 -147.271H444.71L481.452 -83.2977L444.71 -19.3244H371.226L334.484 -83.2977L370.794 -147.271ZM146.884 -147.271H220.8L257.542 -83.2977L220.8 -19.3244H147.316L110.574 -83.2977L146.884 -147.271ZM-77.0258 -147.271H-3.10962L33.6323 -83.2977L-3.10962 -19.3244H-76.5934L-113.768 -83.2977L-77.0258 -147.271ZM-300.935 -147.271H-227.019L-190.277 -83.2977L-227.019 -19.3244H-300.503L-337.245 -83.2977L-300.935 -147.271ZM-524.845 -147.271H-450.929L-414.187 -83.2977L-450.929 -19.7567H-524.413L-561.587 -83.2977L-524.845 -147.271ZM-748.755 -147.271H-674.839L-638.097 -83.2977L-674.839 -19.7567H-748.323L-785.497 -83.2977L-748.755 -147.271ZM-786.794 -82.8655L-750.052 -18.8922L-786.794 45.0811H-860.277L-897.452 -18.8922L-860.71 -82.8655H-786.794ZM-973.097 -147.271H-899.613L-862.439 -83.2977L-899.613 -19.7567H-973.529L-1010.27 -83.73L-973.097 -147.271ZM-973.097 -18.0277H-899.613L-862.439 45.9456L-899.613 109.487H-973.529L-1010.27 45.9456L-973.097 -18.0277ZM-973.097 111.216H-899.613L-862.871 175.189L-899.613 238.73H-973.529L-1010.27 174.757L-973.097 111.216ZM-973.097 240.459H-899.613L-862.871 304.432L-899.613 367.973H-973.529L-1010.27 304L-973.097 240.459ZM-973.097 369.702H-899.613L-862.871 433.676L-899.613 497.649H-973.529L-1010.27 433.676L-973.097 369.702ZM-973.097 498.513H-899.613L-862.871 562.487L-899.613 626.46H-973.529L-1010.27 562.487L-973.097 498.513ZM-973.097 627.757H-899.613L-862.871 691.73L-899.613 755.703H-973.529L-1010.27 691.73L-973.097 627.757ZM-973.097 757H-899.613L-862.871 820.973L-899.613 884.947H-973.529L-1010.27 820.973L-973.097 757ZM-973.097 886.243H-899.613L-862.871 950.217L-899.613 1014.19H-973.529L-1010.27 950.217L-973.097 886.243ZM-973.097 1143L-1009.84 1079.03L-973.097 1015.05H-899.613L-862.871 1079.03L-899.613 1143H-973.097ZM-786.794 1207.84H-860.71L-897.452 1143.87L-860.71 1079.89H-787.226L-750.484 1143.87L-786.794 1207.84ZM-562.884 1207.84H-636.8L-673.542 1143.87L-636.8 1079.89H-563.316L-526.574 1143.87L-562.884 1207.84ZM-338.974 1207.84H-412.89L-449.632 1143.87L-412.89 1079.89H-339.406L-302.664 1143.87L-338.974 1207.84ZM-115.064 1207.84H-188.981L-225.723 1143.87L-188.981 1079.89H-115.497L-78.7548 1143.87L-115.064 1207.84ZM108.845 1207.84H34.9291L-1.81287 1143.87L34.9291 1079.89H108.413L145.587 1143.87L108.845 1207.84ZM332.755 1207.84H258.839L222.097 1143.87L258.839 1079.89H332.323L369.065 1143.87L332.755 1207.84ZM556.665 1207.84H482.748L446.006 1143.87L482.748 1079.89H556.232L592.974 1143.87L556.665 1207.84ZM781.006 1207.84H707.09L670.348 1143.87L707.09 1079.89H780.574L817.316 1143.87L781.006 1207.84ZM892.529 1143H819.045L782.303 1079.03L819.045 1015.05H892.529L929.271 1079.03L892.529 1143ZM892.529 1014.19H819.045L782.303 950.217L819.045 886.243H892.529L929.271 950.217L892.529 1014.19ZM892.529 884.947H819.045L782.303 820.973L819.045 757H892.529L929.271 820.973L892.529 884.947ZM892.529 755.703H819.045L782.303 691.73L819.045 627.757H892.529L929.271 691.73L892.529 755.703ZM892.529 626.46H819.045L782.303 562.487L819.045 498.513H892.529L929.271 562.487L892.529 626.46ZM892.529 497.217H819.045L782.303 433.243L819.045 369.27H892.529L929.271 433.243L892.529 497.217ZM892.529 367.973H819.045L782.303 304L819.045 240.027H892.529L929.271 304L892.529 367.973ZM892.529 238.73H819.045L782.303 174.757L819.045 110.783H892.529L929.271 174.757L892.529 238.73Z" fill="url(#paint0_radial_707_12715)"/>
<defs>
<radialGradient id="paint0_radial_707_12715" cx="0" cy="0" r="1" gradientUnits="userSpaceOnUse" gradientTransform="translate(189 370.5) rotate(139.81) scale(1020.41 1020.4)">
<stop offset="0.1874" stop-color="#191E24"/>
<stop offset="0.376" stop-color="#B38D48"/>
<stop offset="0.3761" stop-color="#B89F5F"/>
<stop offset="0.41" stop-color="#BCAB70"/>
<stop offset="0.4748" stop-color="#BEB37A"/>
<stop offset="0.4749" stop-color="#BFB57D"/>
<stop offset="0.475" stop-color="#B6AA75"/>
<stop offset="0.5" stop-color="#96835B"/>
<stop offset="0.54" stop-color="#7A6143"/>
<stop offset="0.745" stop-color="#191E24"/>
</radialGradient>
</defs>
</svg>
