<svg width="122" height="72" viewBox="0 0 122 72" fill="none" xmlns="http://www.w3.org/2000/svg">
<g clip-path="url(#clip0_699_11244)">
<path fill-rule="evenodd" clip-rule="evenodd" d="M78.0699 9.94086L92.0284 18.0045V34.1321L88.8701 19.8291L78.0699 9.94086Z" fill="#F69C00"/>
<path fill-rule="evenodd" clip-rule="evenodd" d="M29.908 37.7649V50.3656H32.6903L29.908 37.7649Z" fill="#F69C00"/>
<path fill-rule="evenodd" clip-rule="evenodd" d="M92.0283 37.7649V50.3656H89.246L92.0283 37.7649Z" fill="#F69C00"/>
<path fill-rule="evenodd" clip-rule="evenodd" d="M43.8662 9.94058L29.9081 18.0045L29.908 34.1322L33.0663 19.8291L43.8662 9.94058Z" fill="#F69C00"/>
<path fill-rule="evenodd" clip-rule="evenodd" d="M9.32908 62.2022H5.0661V61.8714C5.72742 61.8714 6.05808 61.7138 6.05808 61.3988C6.05808 61.1939 5.85331 60.8198 5.44404 60.2762L4.21594 58.6575L3.10588 60.028C2.69635 60.5322 2.49181 60.9223 2.49181 61.198C2.49181 61.6154 2.80655 61.84 3.43654 61.8714V62.2022H0.13014V61.8714C0.893613 61.8714 1.7597 61.2569 2.72794 60.028L4.02684 58.3856L1.73596 55.3844C1.39745 54.9354 1.16917 54.6597 1.0511 54.5572C0.775567 54.3131 0.452723 54.191 0.0828857 54.191V53.8601H4.12137V54.191C4.12137 54.191 4.03088 54.191 3.84988 54.191C3.36955 54.191 3.12939 54.321 3.12939 54.5808C3.12939 54.7384 3.24366 54.9668 3.47194 55.2663L4.99531 57.2867L6.08159 55.9635C6.45953 55.5064 6.64838 55.1363 6.64838 54.8527C6.64838 54.6399 6.54221 54.4705 6.3296 54.3445C6.14861 54.242 5.93977 54.191 5.70368 54.191V53.8601H8.9628V54.191C8.49839 54.2304 8.02995 54.451 7.55771 54.8527C7.27433 55.089 6.91205 55.475 6.47116 56.0105L5.19603 57.5586L7.5931 60.7017C8.10479 61.3713 8.53783 61.7454 8.892 61.8241C9.03382 61.8557 9.17945 61.8714 9.32908 61.8714V62.2022ZM7.87648 54.2145C7.84489 54.2066 7.81353 54.1988 7.78195 54.191H6.47116C6.71539 54.3247 6.83722 54.5099 6.83722 54.7462C6.83722 54.8643 6.8294 54.9511 6.81371 55.0062L6.82559 55.0181C6.83344 54.963 6.99092 54.8251 7.29784 54.6045C7.5734 54.3996 7.76628 54.2696 7.87648 54.2145ZM6.67215 61.3634C6.67215 61.0877 6.41606 60.6111 5.90438 59.9334L2.11387 54.9471C1.89344 54.6557 1.72811 54.4705 1.61788 54.3918C1.44473 54.258 1.20861 54.191 0.909537 54.191L0.873881 54.2145C0.881986 54.2066 0.893614 54.2028 0.909537 54.2028C1.0511 54.2028 1.31477 54.4588 1.70056 54.9708L5.621 60.2054C6.03838 60.7647 6.24692 61.1623 6.24692 61.3988C6.24692 61.5643 6.14454 61.7216 5.93977 61.8714C6.42795 61.8714 6.67215 61.7021 6.67215 61.3634ZM2.37377 61.8714C2.15334 61.7454 2.04311 61.5919 2.04311 61.4105C2.04311 61.261 2.07444 61.0993 2.13764 60.9261L2.12576 60.9144C1.66138 61.3948 1.26371 61.7138 0.93305 61.8714H2.37377ZM17.3707 56.1405C17.3707 56.8653 17.0989 57.4286 16.5557 57.8303C16.1307 58.1374 15.5048 58.3266 14.6781 58.3974C14.4814 58.4132 13.8123 58.421 12.6709 58.421V60.9261C12.6709 61.3199 12.8322 61.5878 13.155 61.7297C13.3595 61.8241 13.6942 61.8714 14.1586 61.8714V62.2022H9.86024V61.8714C10.3562 61.8714 10.6947 61.8084 10.8757 61.6824C11.0962 61.517 11.2064 61.198 11.2064 60.7252V55.3606C11.2064 54.8643 11.1002 54.5375 10.8876 54.3799C10.7144 54.2461 10.3719 54.1791 9.86024 54.1791V53.8601H13.9225C14.8672 53.8601 15.6307 54.0058 16.2134 54.2972C16.9849 54.6754 17.3707 55.2898 17.3707 56.1405ZM16.3315 56.1524C16.3315 55.1125 15.8552 54.4705 14.9026 54.2264L14.8672 54.2383C15.5993 54.6005 15.9654 55.2466 15.9654 56.176C15.9654 57.1134 15.5993 57.7319 14.8672 58.0312L14.9026 58.043C15.8552 57.909 16.3315 57.2789 16.3315 56.1524ZM15.7647 56.1524C15.7647 54.8368 15.0877 54.1791 13.7337 54.1791C13.2928 54.1791 13.0013 54.2775 12.8597 54.4745C12.7338 54.6321 12.6709 54.9392 12.6709 55.3961V58.0904H13.4973C14.2453 58.0904 14.7964 57.9563 15.1506 57.6884C15.5599 57.3813 15.7647 56.8693 15.7647 56.1524ZM11.7734 60.9853V55.1481C11.7734 54.8013 11.7123 54.5532 11.5901 54.4037C11.4683 54.2539 11.238 54.1791 10.8995 54.1791C11.1278 54.2972 11.2676 54.4095 11.3186 54.5158C11.3699 54.6222 11.3955 54.8132 11.3955 55.089V61.0325C11.3955 61.4656 11.2499 61.7454 10.9584 61.8714H11.1121C11.553 61.8714 11.7734 61.5759 11.7734 60.9853ZM25.2943 62.2022H21.7871V61.8714C22.3934 61.8714 22.6962 61.7059 22.6962 61.3751C22.6962 61.2413 22.6411 61.0325 22.5311 60.749L21.8698 59.0592H19.071L18.6815 60.0635C18.5791 60.3235 18.5278 60.5873 18.5278 60.8552C18.5278 61.1388 18.6165 61.3791 18.7935 61.5759C18.9707 61.773 19.201 61.8714 19.4844 61.8714V62.2022H16.7448V61.8714C17.0598 61.8714 17.3666 61.6824 17.666 61.3042C17.8864 61.0207 18.0712 60.6857 18.2209 60.3L20.2638 55.0654C20.0749 54.7108 19.7364 54.5337 19.2483 54.5337V54.2855L20.311 53.7892H21.3738L24.1015 60.7606C24.3928 61.5011 24.7904 61.8714 25.2943 61.8714V62.2022ZM23.2749 61.3751C23.2749 61.1623 23.2041 60.8787 23.0623 60.5244L20.9486 55.1836C20.7519 54.6873 20.4961 54.4391 20.1811 54.4391C20.0787 54.4391 19.9804 54.4548 19.8858 54.4864C20.193 54.6045 20.4331 54.8841 20.6063 55.3252L22.6962 60.6663C22.8224 60.989 22.8853 61.2334 22.8853 61.3988C22.8853 61.5643 22.7789 61.7216 22.5665 61.8714H22.6962C23.082 61.8714 23.2749 61.7059 23.2749 61.3751ZM21.7161 58.681L20.4526 55.4907L19.2129 58.681H21.7161ZM18.5161 61.8714C18.28 61.6981 18.1617 61.4816 18.1617 61.2215C18.1617 61.1428 18.1814 61.005 18.2209 60.8079L18.209 60.796C17.9651 61.324 17.6895 61.6824 17.3826 61.8714H18.5161ZM35.4142 62.2022H31.47V61.8714C31.9187 61.8714 32.2218 61.8281 32.3793 61.7413C32.5997 61.6154 32.71 61.3475 32.71 60.938V58.1258H28.5061V60.9853C28.5061 61.3553 28.6282 61.6035 28.8722 61.7297C29.0375 61.8241 29.3247 61.8714 29.7342 61.8714V62.2022H25.79V61.8714C26.2387 61.8714 26.5418 61.8241 26.6993 61.7297C26.9198 61.6035 27.03 61.3397 27.03 60.938V55.1244C27.03 54.7148 26.9157 54.4469 26.6874 54.321C26.538 54.2342 26.2387 54.191 25.79 54.191V53.8601H29.7342V54.191C29.3485 54.191 29.065 54.2383 28.8841 54.3326C28.632 54.4745 28.5061 54.7227 28.5061 55.0771V57.6884H32.71V55.1125C32.71 54.7346 32.5841 54.4745 32.332 54.3326C32.1588 54.2383 31.8714 54.191 31.47 54.191V53.8601H35.4142V54.191C34.9968 54.191 34.7056 54.2342 34.5402 54.321C34.2963 54.4469 34.1742 54.6992 34.1742 55.0771V60.9853C34.1742 61.3713 34.2922 61.6273 34.5284 61.7532C34.6858 61.8319 34.9811 61.8714 35.4142 61.8714V62.2022ZM33.2767 60.9853V55.0771C33.2767 54.77 33.2454 54.5613 33.1822 54.451C33.0957 54.2775 32.9147 54.191 32.6392 54.191H32.4738C32.7572 54.3247 32.8988 54.6281 32.8988 55.1009V60.9498C32.8988 61.2018 32.8793 61.3829 32.8399 61.4932C32.7848 61.643 32.6627 61.7689 32.4738 61.8714H32.6627C33.0719 61.8714 33.2767 61.5759 33.2767 60.9853ZM27.6087 60.9853V55.0771C27.6087 54.754 27.5536 54.5256 27.4433 54.3918C27.3331 54.258 27.1205 54.191 26.8055 54.191C26.9868 54.3013 27.1048 54.4313 27.1599 54.5808C27.2072 54.6992 27.2307 54.8762 27.2307 55.1125V60.9615C27.2307 61.2058 27.211 61.3829 27.1718 61.4932C27.1086 61.6351 26.9868 61.7611 26.8055 61.8714H26.9827C27.4001 61.8714 27.6087 61.5759 27.6087 60.9853ZM45.7467 62.2022H41.8024V61.8714C42.2512 61.8714 42.5543 61.8281 42.7118 61.7413C42.9322 61.6154 43.0424 61.3475 43.0424 60.938V56.0816H43.0071L39.122 60.2881C38.9332 60.4927 38.8386 60.7252 38.8386 60.9853C38.8386 61.3553 38.9607 61.6035 39.2047 61.7297C39.37 61.8241 39.6572 61.8714 40.0667 61.8714V62.2022H36.1225V61.8714C36.5634 61.8714 36.8665 61.8281 37.0318 61.7413C37.2523 61.6075 37.3625 61.3397 37.3625 60.938V55.1244C37.3625 54.7148 37.2482 54.4469 37.02 54.321C36.8705 54.2342 36.5712 54.191 36.1225 54.191V53.8601H40.0667V54.191C39.6809 54.191 39.3976 54.2383 39.2166 54.3326C38.9645 54.4745 38.8386 54.7227 38.8386 55.0771V60.0045H38.874L42.7591 55.7861C42.9479 55.5812 43.0424 55.3569 43.0424 55.1125C43.0424 54.7346 42.9165 54.4745 42.6645 54.3326C42.4913 54.2383 42.2039 54.191 41.8024 54.191V53.8601H45.7467V54.191C45.3293 54.191 45.0381 54.2342 44.8727 54.321C44.6288 54.4469 44.5067 54.6992 44.5067 55.0771V60.9853C44.5067 61.3713 44.6247 61.6273 44.8608 61.7532C45.0183 61.8319 45.3136 61.8714 45.7467 61.8714V62.2022ZM43.6092 60.9853V55.0771C43.6092 54.77 43.5779 54.5613 43.5147 54.451C43.4282 54.2775 43.2472 54.191 42.9717 54.191H42.8063C43.0897 54.3247 43.2313 54.6281 43.2313 55.1009V60.9498C43.2313 61.2018 43.2118 61.3829 43.1724 61.4932C43.1173 61.643 42.9952 61.7689 42.8063 61.8714H42.9952C43.4045 61.8714 43.6092 61.5759 43.6092 60.9853ZM37.9412 60.9853V55.0771C37.9412 54.754 37.886 54.5256 37.7758 54.3918C37.6656 54.258 37.453 54.191 37.138 54.191C37.3193 54.3013 37.4373 54.4313 37.4924 54.5808C37.5397 54.6992 37.5632 54.8762 37.5632 55.1125V60.9615C37.5632 61.2058 37.5435 61.3829 37.5043 61.4932C37.4411 61.6351 37.3193 61.7611 37.138 61.8714H37.3152C37.7326 61.8714 37.9412 61.5759 37.9412 60.9853ZM54.6501 55.8216H54.2251C53.855 55.1993 53.4339 54.77 52.9616 54.5337C52.5442 54.321 51.954 54.2066 51.1902 54.191V60.9025C51.1902 61.2886 51.2828 61.5425 51.4678 61.6647C51.6529 61.7867 52.0012 61.8557 52.5129 61.8714V62.2022H48.3798V61.8714C48.8915 61.8557 49.2181 61.8043 49.3599 61.7178C49.5961 61.5919 49.7141 61.2964 49.7141 60.8317V54.191C49.0293 54.191 48.4506 54.3288 47.9784 54.6045C47.5848 54.833 47.1477 55.2387 46.6676 55.8216H46.3016L46.7265 53.8601H54.2251L54.6501 55.8216ZM53.9771 55.1363L53.7172 54.191H52.6072C53.0954 54.3407 53.5519 54.6556 53.9771 55.1363ZM47.8131 54.191H46.8683L46.6322 55.1952C46.9707 54.7462 47.3643 54.4115 47.8131 54.191ZM50.2928 54.9C50.2928 54.451 50.1669 54.2145 49.9148 54.191V60.9025C49.9148 61.3516 49.7733 61.6746 49.4899 61.8714H49.6198C49.9111 61.8714 50.1039 61.7651 50.1983 61.5524C50.2615 61.4105 50.2928 61.1742 50.2928 60.8434V54.9ZM63.0696 60.0635L62.4083 62.2022H55.1461V61.8714C55.6656 61.8714 56.0122 61.8142 56.1854 61.7001C56.3585 61.5858 56.445 61.3278 56.445 60.9261V55.2309C56.445 54.7659 56.3388 54.4667 56.1262 54.3326C55.9765 54.2383 55.6499 54.191 55.1461 54.191V53.8601H62.1133L62.8335 55.7507H62.4083C62.0225 55.2701 61.5424 54.8902 60.9678 54.6104C60.393 54.3308 59.7987 54.191 59.1846 54.191C58.7596 54.191 58.4644 54.2342 58.299 54.321C58.047 54.4469 57.9211 54.6992 57.9211 55.0771V57.7476H59.1846C60.1923 57.7476 60.6961 57.271 60.6961 56.3179H61.0975V59.4609H60.6961C60.6961 58.5394 60.2001 58.0785 59.2084 58.0785H57.9211V60.9853C57.9211 61.1664 57.9408 61.3121 57.9802 61.4224C58.0826 61.7297 58.5116 61.8792 59.2672 61.8714H59.539C60.1766 61.8714 60.7512 61.6941 61.2629 61.3397C61.6014 61.1034 62.0385 60.6779 62.5736 60.0635H63.0696ZM62.0069 55.0417V54.9943L61.57 54.191H60.5661C60.5505 54.191 60.5229 54.1988 60.4835 54.2145C60.5151 54.2066 60.5426 54.2028 60.5661 54.2028C60.8104 54.2028 61.2904 54.4824 62.0069 55.0417ZM60.6018 58.4683V57.3105C60.4365 57.5781 60.1609 57.7752 59.7751 57.9011C60.1766 57.9957 60.4521 58.1847 60.6018 58.4683ZM62.2314 60.9144V60.8552C62.2314 61.0364 62.0306 61.2372 61.6289 61.4578C61.5424 61.5051 61.2591 61.6351 60.7787 61.8479L60.8379 61.8714H61.818L62.2314 60.9144ZM57.0118 60.9853V55.089C57.0118 54.7659 56.9685 54.5454 56.8821 54.4272C56.7718 54.2696 56.5552 54.191 56.2324 54.191C56.5001 54.3091 56.6341 54.644 56.6341 55.1952V60.9498C56.6341 61.4145 56.5001 61.7216 56.2324 61.8714C56.563 61.8714 56.7835 61.7965 56.8937 61.647C56.9726 61.5367 57.0118 61.3161 57.0118 60.9853ZM72.4928 62.2022H68.5489V61.8714C68.9976 61.8714 69.3007 61.8281 69.4582 61.7413C69.6786 61.6154 69.7888 61.3475 69.7888 60.938V55.1125C69.7888 54.7108 69.6705 54.4429 69.4344 54.3091C69.2691 54.2226 68.9622 54.1791 68.5135 54.1791C67.8365 54.1791 67.3718 54.2145 67.12 54.2855C66.6162 54.4429 66.3641 54.7778 66.3641 55.2898V59.9926C66.3641 60.7017 66.2855 61.2294 66.128 61.5759C65.8919 62.0879 65.4629 62.3442 64.841 62.3442C64.4709 62.3442 64.164 62.2574 63.9198 62.0841C63.6521 61.8951 63.5184 61.6194 63.5184 61.2569C63.5184 61.0836 63.5735 60.9261 63.6837 60.7844C63.7939 60.6425 63.9355 60.5717 64.1089 60.5717C64.2978 60.5717 64.4573 60.6445 64.587 60.7902C64.7169 60.9359 64.7819 61.131 64.7819 61.3751C64.7819 61.8005 64.8961 62.0133 65.1244 62.0133C65.1874 62.0133 65.27 61.9817 65.3724 61.9187C65.7974 61.6508 66.01 61.131 66.01 60.3589V55.2898C66.01 54.833 65.829 54.5218 65.4667 54.3564C65.2306 54.2461 64.8448 54.191 64.3096 54.191V53.8601H72.4928V54.191C72.0757 54.191 71.7845 54.2342 71.6191 54.321C71.3749 54.4469 71.2531 54.6992 71.2531 55.0771V60.9853C71.2531 61.3713 71.3749 61.6232 71.6191 61.7413C71.7766 61.8281 72.0678 61.8714 72.4928 61.8714V62.2022ZM70.3556 60.9853V55.0771C70.3556 54.77 70.324 54.5613 70.2611 54.451C70.1744 54.2775 69.9934 54.191 69.7178 54.191H69.5525C69.8359 54.3247 69.9777 54.6281 69.9777 55.1009V60.9498C69.9777 61.2018 69.958 61.3829 69.9185 61.4932C69.8634 61.643 69.7416 61.7689 69.5525 61.8714H69.7416C70.1509 61.8714 70.3556 61.5759 70.3556 60.9853ZM66.6713 54.191H65.5021C65.8327 54.3247 66.0335 54.5297 66.1045 54.8054C66.191 54.5454 66.3801 54.3407 66.6713 54.191ZM64.5339 62.1314C64.2191 61.8319 64.0616 61.5759 64.0616 61.3634C64.0616 61.182 64.1443 61.0915 64.3096 61.0915C64.3883 61.0915 64.4631 61.1153 64.5339 61.1623C64.4393 60.9104 64.3056 60.7844 64.1324 60.7844C64.0065 60.7844 63.9041 60.8355 63.8253 60.938C63.7466 61.0404 63.7072 61.1545 63.7072 61.2807C63.7072 61.6746 63.979 61.966 64.522 62.1549L64.5339 62.1314ZM80.7119 59.9218C80.7119 60.7725 80.3261 61.3869 79.5546 61.7651C78.9719 62.0565 78.2084 62.2022 77.2637 62.2022H73.2014V61.8833C73.6817 61.8833 74.0162 61.8084 74.2053 61.6586C74.4336 61.4775 74.5476 61.1585 74.5476 60.7017V55.1717C74.5476 54.7462 74.4315 54.4745 74.1992 54.3564C73.9671 54.2383 73.6345 54.1791 73.2014 54.1791V53.8601H77.3936V54.1791C76.9371 54.1791 76.6142 54.2226 76.4251 54.3091C76.1498 54.451 76.012 54.7267 76.012 55.1363V57.523C76.1142 57.523 76.2836 57.5192 76.5197 57.5113C76.7401 57.5113 76.9095 57.5113 77.0276 57.5113C78.3894 57.5113 79.344 57.7299 79.891 58.167C80.4381 58.6041 80.7119 59.1892 80.7119 59.9218ZM79.6726 59.9099C79.6726 59.3901 79.5624 58.9567 79.342 58.6102C79.098 58.2085 78.732 57.972 78.2438 57.9011L78.2084 57.9249C78.9405 58.3423 79.3066 58.9962 79.3066 59.8864C79.3066 60.8158 78.9405 61.4618 78.2084 61.8241L78.2438 61.836C79.1963 61.5919 79.6726 60.9498 79.6726 59.9099ZM79.1058 59.9099C79.1058 58.5313 78.35 57.8422 76.8385 57.8422H76.012V60.6663C76.012 61.1231 76.075 61.4302 76.2009 61.5878C76.3425 61.7849 76.634 61.8833 77.0749 61.8833C78.4289 61.8833 79.1058 61.2256 79.1058 59.9099ZM75.1146 60.9853V55.0771C75.1146 54.7778 75.079 54.5651 75.0082 54.4391C74.9137 54.2658 74.7288 54.1791 74.4533 54.1791H74.2996C74.4887 54.2894 74.6108 54.4153 74.6656 54.5572C74.7129 54.6597 74.7367 54.833 74.7367 55.0771V60.8317C74.7367 61.3358 74.5713 61.6862 74.2407 61.8833C74.5713 61.8833 74.7996 61.8162 74.9255 61.6824C75.0514 61.5483 75.1146 61.3161 75.1146 60.9853ZM94.752 62.2022H90.938V61.8714C91.7173 61.8714 92.1069 61.5367 92.1069 60.8671V54.9235L89.1785 62.2022H88.8243L85.931 55.1481V60.0872C85.931 60.5914 86.0255 60.9969 86.2144 61.3042C86.4426 61.6824 86.793 61.8714 87.2655 61.8714V62.2022H84.2896V61.8714C85.1478 61.8714 85.5768 61.2845 85.5768 60.1108V54.6992C85.2856 54.3602 84.8566 54.191 84.2896 54.191V53.8601H86.9821L89.6153 60.1816L92.2015 53.8601H94.752V54.191C94.3743 54.191 94.0987 54.242 93.9256 54.3445C93.6973 54.4785 93.583 54.7227 93.583 55.0771V60.9969C93.583 61.3437 93.6973 61.5838 93.9256 61.7178C94.1066 61.8203 94.3821 61.8714 94.752 61.8714V62.2022ZM92.8744 54.191C92.6226 54.191 92.4573 54.2855 92.3787 54.4745C92.3236 54.5927 92.296 54.7935 92.296 55.0771V60.9615C92.296 61.2137 92.2763 61.391 92.2369 61.4932C92.1817 61.643 92.0597 61.7689 91.8708 61.8714H92.0715C92.3314 61.8714 92.5046 61.7849 92.591 61.6113C92.6461 61.4932 92.6737 61.2886 92.6737 60.9969V55.0771C92.6737 54.6359 92.7407 54.3407 92.8744 54.191ZM89.072 61.4697C89.072 61.3594 89.0131 61.1623 88.8951 60.8787L86.5923 55.2779C86.4426 54.9078 86.3089 54.6556 86.1909 54.5218C85.9939 54.3013 85.7381 54.191 85.4233 54.191H85.2108C85.4706 54.2855 85.6792 54.4429 85.8367 54.6635C85.9388 54.8054 86.0609 55.0417 86.2028 55.3725L88.9424 61.8714C89.0288 61.7138 89.072 61.58 89.072 61.4697ZM86.2028 61.8714C85.8878 61.7216 85.6911 61.4656 85.6122 61.1034C85.4863 61.4578 85.2894 61.7138 85.0219 61.8714H86.2028ZM101.27 51.9813C101.27 52.2019 101.2 52.3851 101.058 52.5308C100.916 52.6765 100.735 52.7493 100.515 52.7493C100.294 52.7493 100.111 52.6805 99.9658 52.5426C99.8199 52.4048 99.7471 52.2254 99.7471 52.0048C99.7471 51.7764 99.8181 51.5915 99.9597 51.4496C100.102 51.3077 100.287 51.2368 100.515 51.2368C100.727 51.2368 100.906 51.3077 101.052 51.4496C101.198 51.5915 101.27 51.7686 101.27 51.9813ZM98.5427 51.9813C98.5427 52.2019 98.472 52.3851 98.3301 52.5308C98.1886 52.6765 98.0073 52.7493 97.7869 52.7493C97.5664 52.7493 97.3834 52.6785 97.2378 52.5366C97.0922 52.3949 97.0194 52.2176 97.0194 52.0048C97.0194 51.7843 97.0922 51.6011 97.2378 51.4554C97.3834 51.3097 97.5664 51.2368 97.7869 51.2368C97.9995 51.2368 98.1787 51.3077 98.3243 51.4496C98.4699 51.5915 98.5427 51.7686 98.5427 51.9813ZM103.396 60.0635L102.735 62.2022H95.4725V61.8714C95.992 61.8714 96.3386 61.8142 96.5117 61.7001C96.6849 61.5858 96.7713 61.3278 96.7713 60.9261V55.2309C96.7713 54.7659 96.6652 54.4667 96.4526 54.3326C96.3029 54.2383 95.9763 54.191 95.4725 54.191V53.8601H102.44L103.16 55.7507H102.735C102.349 55.2701 101.869 54.8902 101.294 54.6104C100.719 54.3308 100.125 54.191 99.511 54.191C99.086 54.191 98.7907 54.2342 98.6254 54.321C98.3734 54.4469 98.2475 54.6992 98.2475 55.0771V57.7476H99.511C100.519 57.7476 101.022 57.271 101.022 56.3179H101.424V59.4609H101.022C101.022 58.5394 100.526 58.0785 99.5347 58.0785H98.2475V60.9853C98.2475 61.1664 98.2672 61.3121 98.3066 61.4224C98.409 61.7297 98.838 61.8792 99.5937 61.8714H99.8654C100.503 61.8714 101.078 61.6941 101.589 61.3397C101.928 61.1034 102.365 60.6779 102.9 60.0635H103.396ZM100.633 52.5839V52.5604C100.412 52.4106 100.302 52.2138 100.302 51.9694C100.302 51.7648 100.412 51.5875 100.633 51.4377V51.4142H100.526C100.133 51.4142 99.9362 51.611 99.9362 52.0048C99.9362 52.3909 100.168 52.5839 100.633 52.5839ZM102.333 55.0417V54.9943L101.896 54.191H100.893C100.877 54.191 100.849 54.1988 100.81 54.2145C100.841 54.2066 100.869 54.2028 100.893 54.2028C101.137 54.2028 101.617 54.4824 102.333 55.0417ZM97.9052 52.5839V52.5604C97.6847 52.4106 97.5745 52.2138 97.5745 51.9694C97.5745 51.7648 97.6847 51.5875 97.9052 51.4377V51.4142H97.7988C97.4052 51.4142 97.2085 51.611 97.2085 52.0048C97.2085 52.3909 97.4405 52.5839 97.9052 52.5839ZM100.928 58.4683V57.3105C100.763 57.5781 100.487 57.7752 100.102 57.9011C100.503 57.9957 100.779 58.1847 100.928 58.4683ZM102.558 60.9144V60.8552C102.558 61.0364 102.357 61.2372 101.955 61.4578C101.869 61.5051 101.585 61.6351 101.105 61.8479L101.164 61.8714H102.144L102.558 60.9144ZM97.3381 60.9853V55.089C97.3381 54.7659 97.2949 54.5454 97.2085 54.4272C97.0982 54.2696 96.8816 54.191 96.5588 54.191C96.8265 54.3091 96.9604 54.644 96.9604 55.1952V60.9498C96.9604 61.4145 96.8265 61.7216 96.5588 61.8714C96.8894 61.8714 97.1099 61.7965 97.2201 61.647C97.299 61.5367 97.3381 61.3161 97.3381 60.9853ZM112.973 63.8329H112.548C112.335 63.4311 112.001 63.0649 111.544 62.734C111.048 62.3796 110.587 62.2022 110.162 62.2022H106.324C105.821 62.2022 105.362 62.3538 104.949 62.6571C104.535 62.9604 104.219 63.3525 103.998 63.8329H103.632L104.057 61.8714H105.144C105.474 61.5405 105.703 61.1388 105.828 60.6663C105.915 60.3194 105.958 59.8588 105.958 59.2836V55.2898C105.958 54.8173 105.758 54.5021 105.356 54.3445C105.089 54.242 104.758 54.191 104.364 54.191V53.8601H112.441V54.191C112.024 54.191 111.733 54.2342 111.568 54.321C111.323 54.4469 111.202 54.6992 111.202 55.0771V60.9853C111.202 61.3869 111.339 61.647 111.615 61.7651C111.764 61.836 112.075 61.8714 112.548 61.8714L112.973 63.8329ZM110.304 60.9853V55.0771C110.304 54.77 110.272 54.5613 110.21 54.451C110.123 54.2775 109.942 54.191 109.666 54.191H109.501C109.784 54.3247 109.926 54.6281 109.926 55.1009V60.9498C109.926 61.2018 109.906 61.3829 109.867 61.4932C109.812 61.643 109.69 61.7689 109.501 61.8714H109.69C110.099 61.8714 110.304 61.5759 110.304 60.9853ZM106.62 54.191H105.451C105.781 54.3247 105.982 54.5297 106.053 54.8054C106.139 54.5454 106.329 54.3407 106.62 54.191ZM109.737 60.938V55.1125C109.737 54.7581 109.656 54.5157 109.495 54.386C109.334 54.2559 109.072 54.191 108.71 54.191H107.848C106.825 54.191 106.313 54.5572 106.313 55.2898V59.2955C106.313 60.5244 106.136 61.3829 105.781 61.8714H108.568C108.993 61.8714 109.28 61.8241 109.43 61.7297C109.635 61.5956 109.737 61.3318 109.737 60.938ZM112.335 63.1476L112.099 62.2022H111.024C111.52 62.4228 111.946 62.738 112.3 63.1476H112.335ZM104.919 62.2022H104.199L103.963 63.2065C104.231 62.8126 104.549 62.478 104.919 62.2022ZM121.853 62.2022H118.346V61.8714C118.952 61.8714 119.255 61.7059 119.255 61.3751C119.255 61.2413 119.2 61.0325 119.09 60.749L118.428 59.0592H115.63L115.24 60.0635C115.138 60.3235 115.086 60.5873 115.086 60.8552C115.086 61.1388 115.175 61.3791 115.352 61.5759C115.529 61.773 115.76 61.8714 116.043 61.8714V62.2022H113.303V61.8714C113.618 61.8714 113.925 61.6824 114.225 61.3042C114.445 61.0207 114.63 60.6857 114.779 60.3L116.822 55.0654C116.633 54.7108 116.295 54.5337 115.807 54.5337V54.2855L116.87 53.7892H117.932L120.66 60.7606C120.951 61.5011 121.349 61.8714 121.853 61.8714V62.2022ZM119.833 61.3751C119.833 61.1623 119.763 60.8787 119.621 60.5244L117.507 55.1836C117.31 54.6873 117.055 54.4391 116.74 54.4391C116.637 54.4391 116.539 54.4548 116.444 54.4864C116.752 54.6045 116.992 54.8841 117.165 55.3252L119.255 60.6663C119.381 60.989 119.444 61.2334 119.444 61.3988C119.444 61.5643 119.337 61.7216 119.125 61.8714H119.255C119.641 61.8714 119.833 61.7059 119.833 61.3751ZM118.275 58.681L117.011 55.4907L115.771 58.681H118.275ZM115.075 61.8714C114.839 61.6981 114.72 61.4816 114.72 61.2215C114.72 61.1428 114.74 61.005 114.779 60.8079L114.768 60.796C114.524 61.324 114.248 61.6824 113.941 61.8714H115.075Z" fill="white"/>
<path fill-rule="evenodd" clip-rule="evenodd" d="M51.1609 24.1314L51.082 24.0669C50.8028 23.83 50.5718 23.5678 50.4331 23.2453C50.249 22.8136 50.0257 22.3873 49.9721 21.9136C49.9061 21.3389 49.5288 20.9508 49.1907 20.5398C49.1171 20.4522 49.0133 20.3829 48.9646 20.2747C48.68 19.6507 48.2697 19.088 48.0679 18.4243C48.0388 18.3291 48.0125 18.2305 47.9909 18.1334C47.8862 17.6587 47.8671 17.1735 47.7356 16.6979C47.4893 15.8026 48.4347 14.914 49.1659 15.0643C49.7761 15.1892 50.402 15.2064 51.0103 15.3093C51.8199 15.4466 52.6381 15.5782 53.4353 15.7811C54.2171 15.9792 55.0033 16.1586 55.7789 16.383C57.7922 16.9702 59.7102 17.7817 61.5068 18.8579C62.3269 19.3488 63.1021 19.9177 63.8356 20.5393C64.5061 21.1059 65.1846 21.6633 65.8637 22.2198C65.9895 22.1724 66.1133 22.1241 66.2343 22.0753L66.2539 22.1121C66.4179 22.4203 66.5155 22.4615 66.8684 22.3878C66.9664 22.3672 67.0597 22.3265 67.1572 22.3012C67.3408 22.2524 67.5202 22.2978 67.5723 22.4773C67.6546 22.7653 67.8463 22.7816 68.0773 22.7543C68.3561 22.7213 68.5904 22.7715 68.6669 23.084C68.7267 23.3247 68.8682 23.3189 69.0471 23.2338C69.0925 23.2127 69.1308 23.1759 69.1767 23.1586C69.477 23.0381 69.5549 23.0572 69.7017 23.3434C69.8093 23.551 69.8638 23.7812 70.1527 23.829C70.2813 23.8496 70.3076 23.9917 70.332 24.1094C70.3554 24.2247 70.3683 24.3439 70.4128 24.4501C70.4429 24.5209 70.4927 24.6095 70.5897 24.6138C70.6883 24.6176 70.7313 24.5401 70.7667 24.4626C70.8154 24.3563 70.8556 24.2439 70.914 24.1439C70.9647 24.0578 71.0316 23.9664 71.1363 23.9477C71.3668 23.9075 71.6509 24.1515 71.8144 23.7506C71.9129 23.508 72.3486 23.6702 72.4614 23.3534C72.4729 23.3209 72.5489 23.2974 72.5963 23.296C73.6239 23.2472 74.6291 23.285 75.5807 23.7769C76.2784 24.1382 76.9125 24.5544 77.3649 25.2086C77.4988 25.4019 77.6135 25.6081 77.7255 25.8153C77.8111 25.9751 77.9033 25.9857 78.0458 25.8847C78.3012 25.7033 78.4901 25.4622 78.6202 25.1909C78.8363 24.7391 79.1715 24.4305 79.6205 24.2391C80.3044 23.9453 80.9404 23.5721 81.5315 23.1208C81.7304 22.9701 81.9575 22.9165 82.1904 22.8964C82.4654 22.8715 82.6232 23.0912 82.5357 23.3558C82.3817 23.8257 82.0627 24.1506 81.6467 24.4118C80.9074 24.8769 80.1394 25.3014 79.4876 25.899C79.0769 26.2742 78.7488 26.7149 78.3576 27.1757C78.6063 27.2455 78.7823 27.1967 78.9616 27.1082C79.1715 27.0034 79.3882 26.9101 79.6024 26.8116C80.071 26.5967 80.5234 26.5852 80.9892 26.8479C81.3507 27.0527 81.7213 27.2537 82.1765 27.1604C82.3167 27.1317 82.463 27.2398 82.5988 27.3102C82.9924 27.5135 83.4026 27.6489 83.8574 27.6102C84.0028 27.5987 84.1477 27.5843 84.2476 27.7604C84.3466 27.936 84.5594 27.9413 84.7373 27.9834C85.1151 28.0724 85.4876 28.171 85.8023 28.4179C86.0944 28.6466 86.0882 28.6997 85.7736 28.9208C85.4718 29.1313 85.1605 29.0074 84.8454 28.9978C83.9268 28.9696 83.1095 28.5203 82.2186 28.3739C81.9398 28.3279 81.6639 28.2308 81.4186 28.0772C80.2642 27.3484 79.5813 28.3241 78.9296 28.4968C78.6637 28.5672 78.6426 28.7844 78.6493 29.0199C78.6622 29.4371 78.6288 29.8577 78.6675 30.2726C78.744 31.0932 78.6465 31.9095 78.6178 32.7273C78.6139 32.8441 78.5671 32.9656 78.6321 33.069C78.8999 33.4896 78.7038 33.8858 78.5556 34.2671C78.4351 34.5767 78.2429 34.859 78.085 35.1495C77.6006 35.1093 77.2033 34.9284 76.9092 34.5413C76.8389 34.448 76.7475 34.37 76.6562 34.2954C76.5166 34.1805 76.376 34.0968 76.2378 34.3092C76.1326 34.4715 75.9566 34.4753 75.7849 34.4772C75.4162 34.481 75.0456 34.4997 74.6779 34.482C74.2647 34.4624 73.842 34.4461 73.5412 34.0848C73.5029 34.0384 73.4269 34.0231 73.3691 33.9939C73.2638 34.0891 73.3504 34.1528 73.3958 34.2087C74.4646 35.5141 75.2072 36.9932 75.7285 38.5909C75.7586 38.6847 75.8002 38.7856 75.8652 38.8569C76.2865 39.3149 76.4185 39.8843 76.5204 40.4714C76.628 41.1021 76.7523 41.7289 76.8656 42.3577C76.9039 42.5668 76.9943 42.7209 77.1822 42.8448C77.7714 43.2348 78.3098 43.6975 78.9152 44.0659C79.1012 44.1784 79.2853 44.2861 79.4852 44.3755C79.7009 44.4727 79.6889 44.6224 79.4795 44.7349C78.9908 44.9957 78.4671 44.9196 77.9516 44.8713C77.735 44.8502 77.5222 44.789 77.3022 44.8373C77.0321 44.8961 76.8398 44.7808 76.7126 44.5564C76.572 44.3071 76.4291 44.0564 76.3215 43.7932C76.1029 43.2592 75.8796 42.7706 75.3058 42.4735C74.906 42.2653 74.7238 41.7964 74.6214 41.3452C74.5449 41.016 74.477 40.6848 74.4259 40.3518C74.3938 40.147 74.3058 40.0073 74.1093 39.9393C73.0663 39.5795 72.5403 38.7234 72.0616 37.8181C71.9129 37.5358 71.7561 37.2573 71.5925 36.9831C71.428 36.7104 71.4008 36.7008 71.1292 36.8721C70.9336 36.9946 70.7557 37.1032 70.5343 36.9276C70.4654 36.874 70.3717 36.8913 70.2894 36.9166C70.1044 36.974 70.0671 37.1185 70.1876 37.2846C70.4745 37.677 70.8265 38.02 71.057 38.4569C71.1693 38.6722 71.2449 38.8861 71.254 39.1268C71.2645 39.3952 71.242 39.669 71.3663 39.9221C71.3864 39.9642 71.4037 40.0321 71.3845 40.0685C71.1464 40.5197 71.4189 40.9145 71.5127 41.3303C71.7035 42.1777 72.0397 42.9898 72.0483 43.8779C72.0511 44.2262 71.9765 44.5507 71.824 44.8406C71.669 45.1354 71.6341 45.3971 71.757 45.7053C71.8168 45.857 71.8201 46.0335 71.8378 46.2006C71.8962 46.7628 72.0482 47.269 72.4605 47.7002C72.777 48.0332 72.5896 48.6265 72.1463 48.8471C72.0129 48.9141 71.8613 48.9495 71.7164 48.9897C71.1167 49.1591 71.0531 49.096 70.8336 48.5222C70.5993 47.9078 70.6973 47.2628 70.5773 46.6393C70.4511 45.9857 70.3229 45.3627 69.641 45.0206C69.2556 44.8272 69.1982 44.4066 69.1384 44.0229C69.1169 43.8769 69.1317 43.7166 69.1647 43.5712C69.3502 42.7419 69.3426 41.9007 69.3392 41.0595C69.3384 40.8221 69.3015 40.6154 69.2063 40.3877C69.1044 40.1417 69.0141 40.0566 68.7731 40.1465C68.6573 40.1881 68.5875 40.1471 68.533 40.0379C68.4335 39.8379 68.3039 39.6862 68.0591 39.6297C67.8506 39.5828 67.7727 39.3546 67.6526 39.1976C67.5092 39.0105 67.3791 38.8569 67.1103 38.9603C66.9368 39.0273 66.8215 38.9182 66.7374 38.7813C66.6838 38.6962 66.6656 38.5741 66.5934 38.5191C66.2252 38.243 66.0631 37.9195 66.1014 37.4291C66.1248 37.142 65.3415 36.8587 65.0503 36.9965C64.9192 37.0592 64.9556 37.1721 64.9962 37.2568C65.1942 37.6678 65.2736 38.1157 65.3984 38.5502C65.5639 39.133 65.5983 39.7058 65.3004 40.2609C65.0393 40.7475 65.0952 41.2786 65.1803 41.7749C65.3008 42.4706 65.3582 43.1731 65.4505 43.8702C65.5514 44.6263 65.4692 45.3775 64.9742 46.0192C64.9116 46.0991 64.8313 46.1867 64.858 46.29C64.9809 46.77 64.88 47.2619 64.9489 47.7442C64.9958 48.0686 65.1024 48.3533 65.2865 48.6265C65.6495 49.1678 65.4051 49.7491 64.76 49.8616C64.4406 49.9176 64.0461 50.1463 63.7969 49.8539C63.542 49.5534 63.476 49.1151 63.5186 48.7093C63.5645 48.2739 63.5894 47.8375 63.5951 47.4021C63.6004 46.9958 63.5277 46.5977 63.333 46.2321C63.2613 46.0962 63.1748 45.9819 63.0499 45.8842C62.5431 45.4929 62.357 44.9416 62.5784 44.3196C62.9433 43.2955 63.026 42.2184 63.1992 41.159C63.224 41.0035 63.3407 40.7552 62.9854 40.7978C62.8888 40.8088 62.8941 40.7375 62.9251 40.6638C62.9768 40.5374 62.9003 40.4044 62.9586 40.2704C63.0442 40.0781 62.9404 39.9771 62.7506 39.9795C62.5584 39.9818 62.4766 39.925 62.4943 39.7159C62.5082 39.5493 62.4603 39.3977 62.303 39.2771C62.116 39.1354 62.1112 38.8943 62.0716 38.6794C62.0304 38.4555 61.9702 38.2636 61.6809 38.2344C61.3978 38.2067 61.4265 37.9353 61.4279 37.7573C61.4299 37.5803 61.4542 37.4363 61.2926 37.3138C61.0865 37.1559 61.3084 36.9343 61.2213 36.6903C60.9832 36.8491 60.768 36.9381 60.5303 36.9688C60.4476 36.9798 60.3496 36.9855 60.2888 37.0338C59.9139 37.3224 59.4199 37.2999 59.0259 37.5205C58.3158 37.9181 57.5741 37.6707 56.8429 37.6841C56.523 37.6894 56.2169 37.6731 55.9257 37.5348C55.7827 37.4669 55.7139 37.5559 55.6393 37.6578C55.3806 38.0152 55.3222 38.4392 55.2734 38.8536C55.2051 39.4412 54.9884 39.9489 54.6341 40.4183C54.2994 40.8619 53.989 41.3232 53.6987 41.7969C53.4965 42.1285 53.363 42.5022 53.3874 42.8984C53.4018 43.1319 53.33 43.3219 53.2177 43.508C52.7242 44.3282 52.3311 45.2067 51.7568 45.979C51.4861 46.3427 51.1767 46.6121 50.7028 46.6767C50.2418 46.7389 49.8435 46.9599 49.5078 47.2796C49.2596 47.5174 48.9559 47.6681 48.6686 47.8385C48.132 48.1572 47.6017 48.4782 47.1589 48.9261C46.7778 49.3118 46.2742 49.1749 45.819 49.2199C45.6578 49.2357 45.3709 48.7414 45.3766 48.5342C45.3824 48.2801 45.5521 48.0193 45.8103 47.9806C46.0834 47.939 46.3148 47.8007 46.5726 47.7284C46.9432 47.6251 47.1622 47.3504 47.2865 47.002C47.4228 46.6216 47.6003 46.3025 48.0478 46.2168C48.2626 46.1752 48.3778 45.9847 48.418 45.7776C48.5299 45.1981 48.8426 44.8009 49.4107 44.6129C49.4891 44.587 49.5733 44.543 49.6254 44.4827C49.9932 44.0559 50.4063 43.6559 50.6397 43.1343C50.7683 42.8472 50.9147 42.6127 51.1896 42.4404C51.5325 42.2247 51.7118 41.8801 51.7859 41.4835C51.8017 41.4012 51.8247 41.3126 51.7161 41.2729C51.6277 41.2408 51.5449 41.2638 51.4837 41.3255C51.4254 41.3854 51.3761 41.4562 51.335 41.5289C50.8841 42.339 50.1739 42.7601 49.3026 43.041C48.254 43.3764 47.1488 43.5855 46.2034 44.2009C45.9423 44.3717 45.6439 44.4229 45.3585 44.5186C44.963 44.6478 44.5732 44.7995 44.1826 44.9416C43.8177 45.0751 43.3964 45.0588 43.0143 45.1981C42.8331 45.2651 42.6791 45.1526 42.6088 44.9799C42.4012 44.4679 42.1354 43.9841 41.9297 43.4678C41.5367 42.483 41.3669 41.4356 41.0255 40.4441C40.816 39.835 40.8356 39.2723 40.904 38.6641C40.9671 38.1162 40.9494 37.5616 41.0384 37.0099C41.1957 36.0309 41.5242 35.1217 42.023 34.2729C42.6208 33.2579 43.2367 32.2536 43.997 31.3478C44.3638 30.9104 44.7483 30.4874 45.1308 30.0635C45.2203 29.9639 45.313 29.873 45.3637 29.6988C45.0098 29.6146 44.6933 29.5194 44.3246 29.5917C43.5007 29.7539 39.7903 28.8796 38.7239 28.693C38.095 28.582 37.8048 28.1255 37.8359 27.5035C37.8799 26.6431 38.4241 26.1417 39.0237 25.6655C43.2371 22.3232 46.5936 23.1539 51.1609 24.1314ZM65.2325 22.729C64.5615 22.2117 63.8983 21.6848 63.246 21.1451C62.818 20.791 62.3972 20.4293 61.9601 20.0876C61.6766 19.8646 55.4231 16.8984 53.9742 16.606C52.3555 16.2797 50.731 15.9768 49.1109 15.6543C48.4907 15.5308 48.0598 15.9921 48.2506 16.5988C49.7015 18.7727 48.483 18.3425 49.2357 18.7554L49.0564 19.0579C49.4863 19.7598 49.8832 20.3814 50.3222 20.9757L50.8635 21.6337C50.6531 21.6705 50.6287 21.7557 50.6784 21.9423C50.7105 22.0614 50.7592 22.1557 50.8271 22.2533C51.06 22.5835 51.4197 22.6179 51.7673 22.6634C52.0164 22.6988 52.2833 22.6481 52.5195 22.7165C53.8173 23.0893 60.4079 22.7787 53.8857 23.7219C53.649 23.7563 53.451 23.8941 53.255 24.0286C53.0981 24.1362 53.0909 24.2511 53.2373 24.3425C53.4243 24.4578 53.6069 24.5789 53.7944 24.6908L54.1736 24.7712C54.4949 24.843 55.1343 25.0325 55.8583 25.2579L55.9702 25.2751C56.03 25.3057 56.0993 25.3402 56.161 25.3354C56.5087 25.3081 56.8214 25.4368 57.1432 25.5316C58.6209 25.9636 58.0824 25.1301 59.4725 24.9612C59.5897 24.9473 59.7016 24.9215 59.7834 25.0248C59.5223 25.4493 58.9876 25.5617 58.695 25.9526C58.7973 26.0756 58.9059 26.1814 59.0206 26.2737C59.2459 26.3469 59.3826 26.3909 59.3889 26.3905C59.539 26.4752 59.6093 26.4235 59.6523 26.2886C59.6872 26.1771 59.7399 26.055 59.7265 25.9454C59.6925 25.6746 59.8035 25.4588 59.9297 25.2377C60.1186 24.9071 59.8776 23.8998 60.7508 24.5798C61.0066 24.7793 61.2247 24.554 61.4576 24.5401C61.5972 24.531 62.4001 23.607 62.412 23.4304C62.4345 23.018 62.7099 23.061 63.125 23.2969C63.302 23.3969 63.454 23.3744 63.5664 23.2108C64.0733 22.4749 64.5955 22.561 65.2392 23.1749C65.2846 23.0094 65.1885 22.8452 65.2325 22.729ZM61.0473 26.9728L61.2027 26.9982L61.2146 26.9891C61.4881 26.7847 61.6742 26.8828 61.7722 27.1049C61.9816 27.1427 62.193 27.1719 62.3986 27.2202C62.4699 27.1666 62.5258 27.0943 62.5574 26.9977C62.5851 26.9115 62.6382 26.8283 62.708 26.7479C62.7396 26.6178 62.7693 26.5288 62.7693 26.5288C62.7693 26.2326 62.9041 26.1378 63.0767 25.9282C63.7797 25.0717 63.3708 25.8971 63.9466 26.4321C63.9959 26.4775 64.5434 26.2775 64.9274 25.4507C65.1607 25.7153 65.4065 25.5928 65.5595 26.2063C65.8087 25.5091 66.2448 25.6076 66.438 25.6129C66.7947 25.6239 66.8464 26.088 67.0291 26.1206C68.1356 24.7808 67.8807 27.0651 68.3781 27.0623L68.3718 27.0144C68.9773 24.9923 68.4871 27.4236 69.5449 27.0144L69.8222 26.9159C69.6697 26.0096 69.8662 25.9139 70.3382 26.6403C70.4109 26.4996 70.4812 26.323 70.5548 26.0995C70.6376 25.8483 70.6122 25.355 70.386 25.2086C70.384 25.2066 70.2043 24.9617 70.1316 24.9085C70.0934 24.8861 70.0546 24.8664 70.0159 24.8487C69.8634 25.1205 69.4287 25.1263 69.2929 24.8042C69.1159 24.3855 68.6306 23.5577 68.4952 24.4918C67.6402 25.2674 68.2308 23.5754 67.0142 23.4434C65.8278 23.3161 66.5929 23.5769 65.8183 24.343C64.5989 24.3161 65.9134 23.6697 64.7141 23.7223C64.7079 24.0626 64.3464 24.521 64.1637 24.5545C64.0092 24.5822 63.5568 24.3664 63.4827 24.1281C62.873 24.2707 62.9706 24.0884 62.8386 24.7506C62.7826 25.3157 62.193 25.5478 62.2557 24.7042C61.7799 25.1961 61.6283 25.4009 61.6306 25.734C61.6374 26.6206 61.2175 26.6292 60.9702 26.255C60.736 26.4541 60.4925 26.3914 61.0473 26.9728ZM76.6184 30.0759C76.6418 30.9812 76.2426 31.6631 75.5195 32.1665C75.049 32.4957 73.8778 32.4124 73.5072 31.7526C73.1232 31.0702 72.8301 30.3922 72.678 29.6213C72.5752 29.0978 72.4471 28.5748 72.3299 28.0509C72.2677 27.7695 72.2501 27.4862 72.284 27.1991C72.4227 26.0493 73.1615 25.5952 74.2384 25.912C75.3717 26.2445 76.0369 27.0637 76.3449 28.2064C76.5113 28.8246 76.5749 29.4481 76.6184 30.0759ZM74.5951 31.5191C75.4616 31.4463 75.7175 30.9827 75.9169 30.2726C76.014 29.9233 75.9786 29.5457 75.9848 29.1773C75.9992 28.3858 75.7481 27.7494 75.2316 27.1695C74.7893 26.6723 74.2791 26.456 73.6201 26.5766C73.2433 26.7977 73.1027 27.269 73.1084 27.836C73.1099 28.0006 73.4054 27.8839 73.4293 28.0605C73.4499 28.216 73.1983 28.6653 73.2332 28.8251C73.2748 29.016 73.4934 28.8926 73.5508 29.0821C73.6019 29.25 73.4919 29.7333 73.5508 29.8926C73.6134 30.0635 73.9108 29.9898 73.9792 30.1448C74.0801 30.3735 73.9582 30.8185 74.0596 30.9918C74.1232 31.0985 74.3527 31.0267 74.4115 31.1047C74.554 31.2961 74.5124 31.5593 74.5951 31.5191ZM69.6477 39.491C69.8423 39.6034 69.9719 39.7833 70.1546 39.9005C70.3287 40.0116 70.485 39.9642 70.4788 39.7809C70.4668 39.4168 70.5228 39.0536 70.3813 38.6871C69.8811 37.3989 68.8558 36.6348 67.7291 35.9739C67.4355 35.8017 67.2677 35.9472 67.2969 36.2974C67.3035 36.3735 67.348 36.4525 67.2753 36.5218C67.249 36.4993 67.2184 36.4826 67.1988 36.4568C67.1807 36.4309 67.1773 36.3936 67.1601 36.3649C66.953 36.0027 66.7732 35.9936 66.547 36.3395C66.5026 36.4065 66.4873 36.4955 66.4667 36.5764C66.3706 36.9525 66.4232 37.3114 66.5714 37.7018C67.0004 38.2406 68.0204 38.5206 69.6477 39.491ZM45.9299 48.895C46.5319 48.8883 46.839 48.3844 47.2717 48.094C47.2889 48.0816 47.2904 48.0294 47.2827 48.0002C47.2693 47.949 47.2292 47.9078 47.1742 47.9318C46.7161 48.1279 46.257 48.3208 45.8051 48.5299C45.7162 48.5706 45.6812 48.683 45.7267 48.7936C45.7649 48.8873 45.8395 48.906 45.9299 48.895ZM49.2974 46.5872C48.9244 46.6446 48.5844 46.5647 48.2372 46.6336C47.9842 46.6843 47.8006 46.8078 47.6839 47.0303C47.6237 47.148 47.5448 47.2868 47.639 47.4078C47.7346 47.5322 47.9001 47.4978 48.0168 47.4518C48.4868 47.2676 49.0047 47.1494 49.2974 46.5872ZM64.2646 49.3979C64.3311 49.3907 64.398 49.386 64.4635 49.3754C64.8576 49.3108 64.9102 49.2022 64.8322 48.7916C64.77 48.4653 64.5878 48.2093 64.4147 47.9447C64.3095 47.7834 64.167 47.8232 64.1097 47.9734C63.9595 48.3648 63.8438 48.762 63.9801 49.1926C64.0317 49.3539 64.1082 49.4137 64.2646 49.3979ZM71.0593 47.7303C71.0369 47.872 71.0713 48.0002 71.1124 48.1289C71.2549 48.5792 71.3013 48.6026 71.746 48.4399C72.0683 48.3203 72.1205 48.1973 71.999 47.8696C71.8804 47.5494 71.6657 47.2915 71.4539 47.0331C71.3386 46.8901 71.2181 46.9169 71.1602 47.093C71.0928 47.3001 71.0584 47.5155 71.0593 47.7303ZM64.1316 45.801C63.9427 45.913 63.7802 45.9977 63.7802 46.1871C63.7796 46.5408 63.8873 46.8767 64.0159 47.2035C64.0513 47.2944 64.1336 47.3767 64.256 47.3265C64.3492 47.2891 64.3488 47.2016 64.3507 47.115C64.3598 46.6829 64.3224 46.2575 64.1316 45.801ZM70.89 44.9387C70.7198 45.0722 70.5395 45.1727 70.5716 45.3799C70.6299 45.7455 70.7815 46.0848 70.9976 46.3876C71.046 46.4565 71.1411 46.4766 71.2248 46.4307C71.2946 46.391 71.2841 46.3211 71.2788 46.2532C71.2444 45.8019 71.1162 45.3799 70.89 44.9387ZM77.8196 44.5301C77.9684 44.5071 78.1855 44.4813 78.3987 44.4353C78.5781 44.3975 78.6202 44.2621 78.4758 44.1612C78.0176 43.843 77.5232 43.598 76.9732 43.4793C76.8623 43.4558 76.7733 43.4889 76.7757 43.6305C76.7843 44.1023 77.2731 44.5564 77.8196 44.5301ZM74.8233 40.5073C74.7654 40.9399 74.9791 41.3375 75.2063 41.6992C75.3976 42.0055 75.6902 42.2615 76.0584 42.3787C76.166 42.4127 76.3296 42.439 76.3305 42.2687C76.3339 41.7466 76.1498 42.0548 76.0608 41.2284C76.0025 40.7092 75.8581 40.2082 75.7204 39.7058C75.6328 39.3809 75.4172 39.3273 75.168 39.5685C74.9151 39.8135 74.7745 40.1101 74.8233 40.5073ZM64.99 44.4287C64.99 44.4401 64.9986 44.3722 64.988 44.3071C64.856 43.4444 64.5911 42.619 64.263 41.8122C64.2214 41.7084 64.1922 41.5935 64.0708 41.5303C63.9278 41.4576 63.8303 41.4198 63.782 41.6299C63.6954 42.0041 63.6409 42.3816 63.4917 42.7453C63.3076 43.1917 63.1565 43.6573 63.0929 44.142C62.9948 44.8909 63.2492 45.3679 63.8279 45.5928C64.176 45.7283 64.4428 45.5402 64.7326 45.4234C64.9846 45.322 64.9043 45.0894 64.9349 44.9028C64.9564 44.7717 64.9661 44.6387 64.99 44.4287ZM71.5615 43.8549C71.5466 43.6013 71.5117 43.3424 71.4381 43.0807C71.2387 42.3629 70.8494 41.7313 70.5544 41.0581C70.5022 40.9399 70.4051 40.8346 70.309 40.7442C70.2397 40.681 70.1412 40.6178 70.0341 40.6767C69.9427 40.725 69.9662 40.8222 69.9686 40.9011C69.9781 41.3083 69.8939 41.6992 69.7998 42.0935C69.6912 42.551 69.6233 43.0185 69.6396 43.4946C69.6615 44.1502 69.9361 44.5344 70.4334 44.7363C70.8418 44.9028 71.1143 44.6712 71.4142 44.5095C71.6834 44.3631 71.5509 44.0923 71.5615 43.8549ZM57.4584 35.4533C57.1877 35.393 56.9266 35.4935 56.6598 35.505C56.4446 35.5156 56.3303 35.6524 56.238 35.8194C56.1935 35.9003 56.1997 35.9821 56.2715 36.0486C56.3284 36.1012 56.3996 36.0969 56.4541 36.0539C56.7019 35.8572 56.9538 35.9601 57.2221 36.0002C57.4866 36.0414 57.7013 36.173 57.9055 36.3046C58.3588 36.5989 58.8882 36.4639 59.3654 36.6094C59.4309 36.63 59.5323 36.5788 59.5983 36.5333C59.7155 36.4525 59.8422 36.4175 59.978 36.4127C60.6699 36.3917 61.052 35.9314 61.393 35.4146C61.4958 35.2581 61.6034 35.0461 61.48 34.9083C61.327 34.7361 61.1486 34.914 60.9951 35.0103C60.1817 35.5189 59.3004 35.6596 58.3583 35.517C58.0628 35.4725 57.7668 35.3744 57.4584 35.4533ZM52.4822 40.6556C52.4588 41.2686 52.5061 41.3064 52.9776 41.1963C53.1608 41.1542 53.3152 41.0734 53.4635 40.9528C53.8403 40.6461 53.9412 40.1982 54.1004 39.7795C54.2774 39.3144 54.3663 38.7966 54.626 38.3856C54.9822 37.8214 55.4016 37.2985 55.6747 36.6797C55.711 36.5974 55.8473 36.5352 55.7474 36.4328C55.6531 36.3362 55.5216 36.3754 55.4203 36.4372C55.3366 36.4888 55.2734 36.5735 55.1965 36.6391C54.5954 37.1501 54.111 37.7813 53.5319 38.31C52.7901 38.9876 52.5903 39.858 52.4822 40.6556ZM49.0243 45.9704C49.1099 46.1221 49.229 46.2144 49.4012 46.2637C49.7311 46.3556 50.0616 46.3843 50.4011 46.3355C50.5962 46.3068 50.7363 46.2192 50.8611 46.0608C51.3187 45.4823 51.7764 44.9071 52.136 44.2554C52.5377 43.5291 52.8122 42.7639 52.9504 41.9481C52.9652 41.8629 52.9757 41.7648 52.8968 41.7189C52.8208 41.6758 52.7275 41.7084 52.6663 41.7725C52.5104 41.9328 52.343 42.0653 52.113 42.1045C52.0045 42.1232 51.9026 42.2175 51.9232 42.3108C51.7319 42.5965 51.0557 43.6908 50.2882 44.5918C49.734 45.2421 48.9607 45.3909 49.0243 45.9704ZM72.8803 34.458C72.6254 34.9882 72.5341 35.4749 72.2142 35.8649C72.0789 36.0304 72.021 36.2883 72.1229 36.5247C72.1774 36.7003 72.5116 36.6075 72.6278 36.752C72.7761 36.9362 72.7091 37.3406 72.7608 37.365C72.9607 37.6822 73.1715 37.5774 73.195 37.7549C73.2089 37.8573 72.9616 38.1822 73.1323 38.4134C73.3681 38.744 73.5326 38.1894 73.6976 38.7962C73.7593 39.2526 74.0615 39.5034 74.5096 39.4359C74.6257 39.4177 74.7348 39.3646 74.8515 39.3493C75.0853 39.3163 75.1336 39.1766 75.1456 38.9603C75.1824 38.2727 74.9112 37.6803 74.5913 37.109C74.0921 36.2161 73.4073 35.4447 72.8803 34.458ZM63.6324 39.5015C63.7051 39.5072 63.6989 39.6053 63.7256 39.6646C63.8141 39.8613 63.9093 40.0566 64.0068 40.2499C64.057 40.3489 64.08 40.48 64.2459 40.4585C64.3708 40.4432 64.3999 40.3489 64.4511 40.2618C64.7007 39.8307 64.8269 39.3742 64.8212 38.8689C64.8126 38.1253 64.5998 37.4439 64.2545 36.8008C64.0714 36.4611 63.8701 36.1271 63.6396 35.8189C63.4282 35.5356 63.2211 35.5821 63.0825 35.8955C63.0499 35.9687 63.1303 36.1161 62.96 36.1142C62.8831 36.0347 62.9553 35.9529 62.9471 35.8739C62.9166 35.5557 62.8271 35.505 62.522 35.6002C62.4206 35.6323 62.3465 35.6835 62.2743 35.7586C61.9754 36.0754 61.8573 36.4649 61.7712 36.9056C61.6885 37.2056 63.049 39.4464 63.6324 39.5015ZM77.1789 26.7226C76.8881 26.4412 76.5486 26.1795 76.3487 25.8397C76.0025 25.2502 75.4196 25.0373 74.8778 24.7492C74.7042 24.6564 74.4947 24.619 74.2877 24.6229C73.4465 24.6415 72.6546 24.8286 71.9273 25.2741C71.7446 25.3866 71.6671 25.5248 71.6298 25.7158C71.5251 26.2546 71.5079 26.801 71.4797 27.3465C71.462 27.7097 71.6131 28.0384 71.6839 28.3844C71.693 28.4275 72.7904 31.1214 72.6489 31.6416C72.6006 31.8172 73.118 32.6637 73.7396 33.2006C74.2059 33.4733 73.4752 33.2379 74.4832 33.4331C74.9949 33.6321 75.7127 33.2489 76.1178 33.2637C77.1425 33.302 76.7336 33.6614 77.4352 33.6144C78.0865 33.4106 77.6489 27.1767 77.1789 26.7226ZM62.1553 33.781C62.2858 33.7259 62.2963 33.6532 62.457 33.6322C62.7344 33.8547 62.7826 33.5374 63.071 33.7709C63.2192 33.892 63.3125 34.4078 63.6018 34.6016C63.7673 34.7121 64.1187 34.5131 64.2875 34.6155C64.5376 34.7662 64.6108 35.2107 64.8891 35.3055C65.0632 35.3662 65.2459 35.061 65.4395 35.0849C65.6164 35.1074 65.8039 35.4624 66.0019 35.4461C66.2286 35.4275 66.471 34.8648 66.7321 34.7829C66.8612 34.7418 66.9961 35.2074 67.1352 35.149C67.3241 35.0696 67.5226 34.5403 67.7311 34.425C67.8698 34.348 68.0132 34.6949 68.161 34.6011C68.2054 34.4748 69.0332 35.2682 69.1494 35.1299C69.1877 35.1265 69.236 35.1193 69.2833 35.1169C69.6802 35.0997 69.4679 35.1691 69.8361 35.2911C69.9485 35.3294 70.1971 35.4864 70.1402 35.1279C70.1206 35.0093 70.2292 35.0586 70.2808 35.0676C70.4205 35.0935 70.5448 35.2409 70.7189 35.1045C70.8666 35.0954 70.8197 34.7097 70.9422 34.5437C71.0388 34.4154 71.3114 34.5308 71.385 34.326C71.4534 34.135 71.4051 33.4039 71.4496 33.1627C71.4897 32.9431 71.7666 32.9106 71.7819 32.6617C71.8378 31.755 71.1095 30.2429 70.7146 29.2926C70.4989 29.1213 70.3903 29.3376 70.266 29.4625C70.2421 29.4864 70.2244 29.5165 70.1986 29.5376C70.4936 30.7626 69.7414 29.3275 69.3971 30.1352C69.3249 30.3056 70.003 30.8051 69.5172 30.9817C68.9371 30.987 68.6162 30.4898 68.467 30.4458C68.0476 30.3257 68.6086 31.2559 67.9625 31.175C67.7158 31.1444 67.5446 30.6898 67.0439 30.6989C66.7335 30.9635 67.0764 31.7201 66.1401 31.1851C63.6779 33.2154 64.836 30.4391 63.5119 31.6196C63.1528 31.4995 63.0428 31.7459 62.9074 31.9775L62.9232 31.9885C61.5278 31.2971 61.9845 33.9226 62.1553 33.781ZM57.0189 34.738C56.6416 34.1968 57.301 34.1508 57.5416 34.6471C57.6764 34.1528 57.6936 34.4403 57.8811 34.3284C57.8333 34.226 57.7104 34.1772 57.6138 34.1145C57.2331 33.8633 56.9166 33.5647 56.6358 33.2561C55.69 32.2182 55.0836 31.0573 54.8479 29.7744C54.7996 29.5117 54.7192 29.5572 54.6776 29.2935C54.6671 29.229 54.6963 29.1404 54.5471 29.1356C54.4189 29.2773 54.3218 29.4098 54.3247 29.594C54.3304 29.8682 54.3027 29.8391 54.2587 30.1171L53.8781 29.7098C53.5926 29.818 53.7523 30.3443 53.7743 30.4711C53.4745 30.6023 53.5199 30.2219 53.2033 30.0673C52.9585 30.7683 53.6729 32.4742 54.4677 33.4053C55.0487 34.0848 55.9979 34.7849 56.6038 34.8332L57.0189 34.738ZM57.5239 30.0127C57.6434 30.6764 57.6888 31.2722 57.9944 31.8224C58.3129 32.3943 58.5984 32.979 59.0202 33.4881C59.3482 33.8843 59.8608 34.1011 60.076 34.6045C60.1028 34.6695 60.2075 34.66 60.2281 34.5782C60.2625 34.4418 60.3601 34.3982 60.4725 34.3528C60.5461 34.3236 60.5471 34.2595 60.5188 34.1863C60.3897 33.8494 60.4122 33.5537 60.7503 33.3427C60.8746 33.2651 60.9688 33.1335 60.9143 33.0048C60.8369 32.8211 60.9172 32.6813 60.9621 32.5244C60.9918 32.4254 61.0095 32.3029 60.921 32.2416C60.7852 32.1449 60.7183 32.2909 60.6379 32.366C60.6006 32.4005 60.5729 32.4445 60.5384 32.4814C60.4753 32.5469 60.3921 32.5866 60.3142 32.5373C60.2248 32.4785 60.2773 32.3943 60.3099 32.3153C60.4877 31.8842 60.4792 31.8641 60.0765 31.6904C59.7829 31.5645 59.7815 31.5636 59.9651 31.3167C60.0043 31.265 60.0741 31.2272 60.0363 31.1468C59.9923 31.053 59.9196 31.041 59.8293 31.0812C59.7556 31.1147 59.7002 31.153 59.6413 31.0305C59.2162 30.8563 59.1498 30.631 59.5251 30.3429C59.3654 30.1965 59.2425 30.1453 59.0833 30.2113C59.0058 30.2448 58.9226 30.273 58.8466 30.2084C58.4492 29.8692 57.9944 30.096 57.5239 30.0127ZM68.3073 27.9413C68.2131 27.8997 68.1179 27.859 68.0228 27.8169C67.985 27.7843 67.9472 27.7518 67.9099 27.7193C67.8348 27.5925 67.6708 27.6025 67.5603 27.4953C67.4451 27.3824 67.3815 27.1546 67.251 27.1235C67.0912 27.0857 66.9334 27.2326 66.7861 27.2063C66.6824 27.1877 66.5977 27.0451 66.4806 27.0441C66.3534 27.0441 66.2262 27.1704 66.1152 27.192C65.9541 27.2235 65.8278 27.1527 65.7953 27.1336C65.5816 27.0948 65.4591 27.0422 65.4347 27.4551C65.2377 27.4461 65.2511 27.1044 65.0331 27.1551C64.902 27.303 65.0608 27.5341 64.9489 27.6963C64.8198 27.6709 64.7509 27.3815 64.6022 27.5212C64.4013 27.7083 64.1441 27.6662 63.9485 27.8379C63.785 27.9824 63.6372 28.1633 63.4818 28.3279L63.4894 28.3452L63.4942 28.3624L63.4965 28.3777V28.3785L63.4974 28.3938V28.3944V28.395L63.4959 28.4093V28.4107L63.4926 28.4246V28.4252V28.4261L63.4878 28.4394L63.4872 28.4403L63.4815 28.4537L63.48 28.4545V28.4551L63.4724 28.468L63.4718 28.4686L63.471 28.4695L63.4619 28.4814L63.4605 28.4829L63.4499 28.4948L63.4485 28.4968L63.4365 28.5078L63.4345 28.5101L63.4216 28.5207L63.4188 28.5229L63.4049 28.533L63.3872 28.5454L63.3838 28.5474L63.369 28.557L63.3647 28.5598L63.3484 28.569L63.3437 28.5713L63.3269 28.5803L63.3217 28.5826L63.3045 28.5908L63.2987 28.5936L63.281 28.6018L63.2748 28.6046L63.2557 28.6123L63.249 28.6146L63.2303 28.6222L63.2227 28.6251L63.2036 28.6323L63.1959 28.6352L63.1768 28.6418L63.1677 28.6447L63.1486 28.6509L63.1395 28.6538L63.1199 28.6605L63.1103 28.6638L63.0902 28.6691L63.0802 28.6725L63.0601 28.6782L63.0496 28.6816L63.03 28.6868L63.0185 28.6897L62.9989 28.6954L62.9869 28.6988L62.9673 28.7031L62.9358 28.7112L62.9229 28.7151L62.9037 28.7194L62.8908 28.7227L62.8722 28.7275L62.8583 28.7308L62.8401 28.7342L62.8253 28.738L62.8076 28.7418L62.7923 28.7452L62.7751 28.7495L62.7598 28.7529L62.7426 28.7567L62.7273 28.76L62.711 28.7634L62.6943 28.7672L62.679 28.7706L62.6622 28.7739L62.6474 28.7773L62.6307 28.7811L62.6158 28.784L62.5991 28.7873L62.5848 28.7907L62.5676 28.7945L62.5542 28.7974L62.5369 28.8012L62.5236 28.8041L62.5059 28.8079L62.4939 28.8108L62.4762 28.8141L62.4647 28.817L62.448 28.8208L62.4365 28.8228L62.4193 28.8271L62.4088 28.8294L62.3921 28.8332L62.382 28.8352L62.3648 28.8395L62.3562 28.8415L62.3395 28.8459L62.3308 28.8479L62.3146 28.8517L62.3069 28.854L62.2902 28.8579L62.2835 28.8601L62.2673 28.8644L62.261 28.8659L62.2462 28.8707L62.2405 28.8721L62.2256 28.8764L62.2209 28.8784L62.207 28.8827L62.2022 28.8841L62.1893 28.8889L62.185 28.8904L62.173 28.8951L62.1692 28.8966L62.1582 28.9014L62.1553 28.9028L62.1448 28.9076L62.1428 28.9096L62.1333 28.9144L62.1313 28.9158L62.1232 28.9206L62.1226 28.9214H62.122C61.1493 28.3137 60.1499 28.3587 58.4155 27.117C58.0731 26.7859 55.9528 26.0686 55.619 25.981C54.7802 25.7624 53.9582 25.4834 53.1299 25.2264C50.1909 24.3096 46.9215 23.9814 43.8538 24.29C42.2135 24.4546 40.657 25.7633 39.232 26.583C37.4502 28.1257 42.0003 28.5229 42.072 28.1984C42.1452 27.8692 44.3186 27.494 44.6213 27.5591C44.8647 27.6113 43.5334 28.5204 43.7835 28.5807C44.7767 28.8186 46.02 29.12 47.6134 29.0502C48.0232 29.032 50.0489 28.1774 50.3387 28.2094C50.6519 28.2448 49.0815 29.2851 49.3239 29.3411C50.7504 29.6703 51.6652 29.3023 52.689 28.7698C53.0065 28.7511 53.3451 28.8009 53.6517 28.6765C53.633 28.5276 53.4479 28.5171 53.4762 28.3621C53.6268 28.4023 53.7812 28.4032 53.9056 28.4951C54.1891 28.7051 54.5282 28.7927 54.8577 28.7899C56.0589 28.7798 60.2833 29.3172 61.7787 29.4181L61.7744 29.4306L61.7729 29.4326L61.7686 29.4479L61.7666 29.4531L61.7638 29.4622L61.7599 29.4742L61.7593 29.4771L61.7551 29.4914L61.7542 29.4962L61.7519 29.5058L61.749 29.5182L61.7485 29.5202L61.7462 29.535L61.7447 29.5403L61.7433 29.5494L61.7413 29.5619L61.7407 29.5639L61.7393 29.5778L61.7387 29.583L61.7373 29.5921L61.7367 29.6041V29.6061L61.7362 29.6204V29.6252V29.6463V29.6477L61.7367 29.6668L61.7373 29.675L61.7387 29.6874V29.6883L61.7402 29.7021L61.741 29.7069L61.7425 29.7155L61.7445 29.727L61.7488 29.7471L61.7508 29.7548L61.7546 29.7672V29.7686L61.7589 29.7816L61.7603 29.7864L61.7665 29.8026L61.768 29.8055L61.7685 29.8069L61.7733 29.8194L61.7756 29.8246L61.7789 29.8318L61.7852 29.8428L61.7857 29.8442L61.7919 29.8562L61.7948 29.862L61.7986 29.8687L61.8058 29.8801L61.8064 29.8807L61.8145 29.8927L61.8183 29.8979L61.8231 29.9047L61.8317 29.9157L61.8413 29.9281L61.8451 29.9329L61.8504 29.9396L61.8604 29.9501L61.861 29.951L61.871 29.9615L61.8767 29.9668L61.8825 29.973L61.8935 29.983L61.8941 29.9839L61.906 29.9949L61.9118 29.9997L61.9185 30.0064L61.9304 30.016L61.9313 30.0165L61.9346 30.0194L61.9509 30.0319L61.9585 30.0376L61.9719 30.0472H61.9728L61.9871 30.0577L61.9943 30.062L62.0024 30.0668L62.0177 30.0768H62.0183L62.0345 30.0869L62.0422 30.0912L62.0513 30.096L62.0685 30.1051H62.0691L62.0868 30.1142L62.0954 30.1185L62.1054 30.1233L62.1231 30.1319H62.1237L62.1433 30.14L62.1524 30.1448L62.1629 30.1491L62.1825 30.1572V30.1578L62.2036 30.1655L62.2141 30.1698L62.2246 30.1736L62.2466 30.1817C62.3025 30.2784 63.0987 30.2817 63.224 30.1932C63.3403 30.1119 63.8672 30.5272 64.3378 30.4779C64.7084 30.4392 65.0512 29.9253 65.078 29.9367C65.1144 29.9525 66.3811 29.9367 66.6365 29.9376C66.8675 29.9396 66.735 29.5558 66.8641 29.3218C67.0745 29.3046 67.3925 29.63 67.5881 29.506C68.6349 29.3237 69.4641 28.0619 68.3068 27.9413H68.3073ZM50.4159 40.5829C48.626 39.6699 49.2314 39.345 50.9615 40.2642C50.8128 39.4723 51.0108 39.9005 51.1561 39.6675C51.038 39.5283 50.8659 39.4986 50.7167 39.4369C50.1228 39.189 49.5752 38.8478 49.0616 38.4803C47.331 37.2401 45.916 35.6983 44.8539 33.8446C44.6364 33.4661 44.5713 33.5608 44.3604 33.1785C44.3088 33.0852 44.2882 32.9417 44.1127 32.9857C44.053 33.2431 44.0233 33.4762 44.1405 33.7532C44.3155 34.1662 44.2658 34.1317 44.3872 34.5657L43.6967 34.0839C43.4361 34.3442 43.9439 35.0844 44.0486 35.2677C43.7833 35.5687 43.6011 34.9796 43.142 34.8562C43.2926 35.9974 45.1672 38.3248 46.6572 39.4541C47.7456 40.2786 49.2701 41.0069 49.997 40.8705L50.4159 40.5829ZM53.4023 37.3477C52.5295 36.6903 53.1254 36.3443 54 37.0291C53.9837 36.2371 54.1105 36.6654 54.2946 36.4324C54.1999 36.2941 54.033 36.263 53.8934 36.2017C53.341 35.9539 52.8495 35.6132 52.3976 35.2452C50.875 34.0054 49.7172 32.4636 48.9646 30.6094C48.8111 30.2309 48.7293 30.3262 48.583 29.9438C48.5461 29.8505 48.5495 29.7065 48.3673 29.7505C48.2645 30.0084 48.1956 30.2415 48.2664 30.5185C48.373 30.931 48.3286 30.8965 48.3778 31.3315L47.7681 30.8487C47.463 31.1095 47.8489 31.8488 47.9211 32.0325C47.6065 32.334 47.5228 31.7449 47.0833 31.6205C47.0431 32.7627 48.5299 35.0897 49.831 36.2189C50.7817 37.0439 52.1852 37.7722 52.9346 37.6358L53.4023 37.3477ZM44.5288 43.797C44.5316 43.6735 44.4446 43.6013 44.3805 43.5128C43.9291 42.8984 43.2864 42.4998 42.7068 42.0304C42.594 41.939 42.4744 41.7892 42.3061 41.9165C42.1751 42.016 42.1397 42.1677 42.1545 42.3323C42.1803 42.629 42.3644 42.8625 42.4792 43.1199C43.0511 44.3942 43.1324 44.4191 44.4365 43.886C44.4738 43.8707 44.4982 43.8262 44.5288 43.797ZM46.706 42.6457C47.003 42.9118 47.1766 42.6563 47.386 42.5467C47.5687 42.4519 47.5281 42.3424 47.3831 42.25C47.2985 42.1955 47.2048 42.1557 47.1144 42.1122C46.1618 41.6605 45.3293 41.0341 44.6029 40.2814C43.81 39.4594 43.0574 38.599 42.4988 37.5894C42.4079 37.4238 42.2951 37.3128 42.0957 37.4281C41.8905 37.5477 41.8413 37.7875 42.0034 37.975C42.1301 38.12 42.2334 38.243 42.1818 38.4631C42.1411 38.6354 42.2525 38.7038 42.4285 38.644C42.4907 38.6234 42.5624 38.6206 42.6174 38.6856C42.6542 38.8349 42.4481 38.9392 42.5289 39.0904C42.6102 39.2397 42.8235 38.9656 42.8025 39.1364C42.7743 39.3704 42.8484 39.367 43.0239 39.3909C43.2013 39.4154 43.2257 39.5039 43.0798 39.6575C42.9617 39.7795 43.0507 39.8704 43.2137 39.8527C43.2878 39.845 43.349 39.7412 43.4595 39.8441C43.4724 40.0293 43.3146 40.358 43.7546 40.3073C43.8148 40.3001 43.8191 40.4116 43.8215 40.4781C43.8306 40.7088 43.9071 40.8379 44.1672 40.7288C44.294 40.6743 44.3824 40.7552 44.3671 40.8657C44.3375 41.0662 44.4513 41.114 44.5771 41.2356C44.7559 41.4126 44.8334 41.6816 45.1586 41.6567C45.1825 41.6547 45.2312 41.7304 45.2355 41.7725C45.2547 41.9749 45.3666 42.0098 45.5488 41.9954C45.7855 41.9777 45.8491 42.0969 45.7424 42.3093C45.7185 42.3567 45.7267 42.4055 45.7812 42.451C45.8677 42.4591 46.663 42.6075 46.706 42.6457Z" fill="white"/>
<path fill-rule="evenodd" clip-rule="evenodd" d="M47.0099 8.12438L60.9681 0.0606384L74.9263 8.12438L60.9681 3.70973L47.0099 8.12438Z" fill="#F69C00"/>
<path fill-rule="evenodd" clip-rule="evenodd" d="M47.0099 63.7725L60.9681 71.8362L74.9263 63.7725L60.9681 68.1871L47.0099 63.7725Z" fill="#F69C00"/>
</g>
<defs>
<clipPath id="clip0_699_11244">
<rect width="122" height="72" fill="white"/>
</clipPath>
</defs>
</svg>
