<svg width="203" height="147" viewBox="0 0 203 147" fill="none" xmlns="http://www.w3.org/2000/svg">
<path fill-rule="evenodd" clip-rule="evenodd" d="M56.7082 38.2181L56.3771 37.9472C55.205 36.9536 54.2357 35.8538 53.6537 34.5011C52.8811 32.6906 51.9438 30.9024 51.7191 28.9154C51.4422 26.505 49.8587 24.8772 48.4399 23.1531C48.1309 22.7859 47.6953 22.4949 47.4906 22.0413C46.2965 19.424 44.5746 17.0637 43.7278 14.2799C43.6053 13.8806 43.495 13.4671 43.4046 13.0596C42.9651 11.0687 42.8848 9.03345 42.333 7.0385C41.2994 3.28325 45.267 -0.4439 48.3356 0.186303C50.8963 0.71025 53.5233 0.782503 56.076 1.21402C59.4737 1.79001 62.9075 2.34196 66.2529 3.19297C69.5341 4.0239 72.8334 4.77649 76.0886 5.71789C84.5376 8.18052 92.5871 11.5844 100.127 16.0984C103.569 18.1576 106.822 20.5439 109.9 23.1512C112.714 25.5275 115.562 27.8657 118.412 30.1999C118.939 30.0012 119.459 29.7985 119.967 29.5938L120.049 29.7483C120.738 31.0409 121.147 31.2135 122.628 30.9044C123.039 30.8181 123.431 30.6475 123.84 30.5411C124.611 30.3364 125.363 30.5271 125.582 31.2798C125.927 32.488 126.732 32.5563 127.701 32.4418C128.871 32.3034 129.855 32.5141 130.176 33.8247C130.427 34.8343 131.021 34.8101 131.771 34.4529C131.962 34.3645 132.123 34.2101 132.315 34.1377C133.575 33.632 133.903 33.7123 134.519 34.9125C134.97 35.7836 135.199 36.7489 136.411 36.9497C136.951 37.036 137.061 37.632 137.164 38.1258C137.262 38.6095 137.316 39.1093 137.503 39.5548C137.629 39.8519 137.838 40.2232 138.246 40.2412C138.659 40.2573 138.839 39.9321 138.988 39.607C139.193 39.1614 139.361 38.6898 139.606 38.2703C139.819 37.9091 140.1 37.5257 140.539 37.4474C141.507 37.2789 142.699 38.3024 143.385 36.6206C143.799 35.603 145.627 36.2833 146.1 34.9546C146.149 34.8182 146.468 34.7199 146.666 34.7138C150.979 34.5091 155.197 34.6677 159.191 36.7309C162.119 38.2462 164.78 39.9924 166.679 42.736C167.241 43.5469 167.722 44.412 168.192 45.281C168.551 45.9513 168.939 45.9955 169.537 45.572C170.608 44.8113 171.401 43.7998 171.947 42.6618C172.854 40.7671 174.261 39.4725 176.145 38.6697C179.015 37.4374 181.684 35.8718 184.165 33.9792C185 33.347 185.953 33.1221 186.93 33.0379C188.084 32.9336 188.746 33.8548 188.379 34.9647C187.733 36.9356 186.394 38.2984 184.648 39.3943C181.546 41.3451 178.323 43.1254 175.587 45.6322C173.864 47.2057 172.487 49.0543 170.845 50.9871C171.889 51.28 172.627 51.0753 173.38 50.704C174.261 50.2645 175.17 49.8731 176.069 49.4597C178.036 48.5585 179.934 48.5103 181.889 49.6123C183.406 50.4712 184.962 51.3142 186.872 50.9228C187.46 50.8024 188.074 51.256 188.644 51.5511C190.296 52.404 192.018 52.9721 193.926 52.8094C194.536 52.7612 195.144 52.701 195.564 53.4397C195.979 54.1762 196.872 54.1983 197.619 54.3749C199.204 54.7482 200.768 55.1617 202.088 56.1974C203.314 57.1568 203.288 57.3795 201.968 58.3067C200.701 59.1898 199.395 58.6701 198.072 58.6299C194.217 58.5116 190.787 56.6268 187.049 56.0127C185.879 55.8201 184.721 55.4126 183.691 54.7683C178.846 51.7115 175.981 55.804 173.245 56.5285C172.13 56.8236 172.041 57.7348 172.069 58.7223C172.124 60.4724 171.983 62.2366 172.146 63.9768C172.467 67.4188 172.057 70.8429 171.937 74.2729C171.921 74.7627 171.724 75.2725 171.997 75.706C173.121 77.4702 172.298 79.1321 171.676 80.7317C171.17 82.0303 170.364 83.2144 169.701 84.4327C167.668 84.2641 166.001 83.5054 164.766 81.8817C164.471 81.4903 164.088 81.1632 163.705 80.8501C163.119 80.3684 162.529 80.0172 161.949 80.9082C161.507 81.5887 160.769 81.6048 160.048 81.6127C158.501 81.6288 156.946 81.7071 155.402 81.6328C153.668 81.5506 151.894 81.4823 150.632 79.967C150.471 79.7722 150.152 79.708 149.909 79.5857C149.468 79.985 149.831 80.2519 150.022 80.4868C154.507 85.9621 157.624 92.1658 159.811 98.8674C159.938 99.2608 160.112 99.6843 160.385 99.9833C162.153 101.904 162.707 104.293 163.135 106.755C163.586 109.4 164.108 112.03 164.584 114.667C164.744 115.544 165.124 116.19 165.912 116.71C168.385 118.346 170.644 120.287 173.185 121.832C173.966 122.304 174.738 122.756 175.577 123.131C176.482 123.538 176.432 124.166 175.553 124.638C173.502 125.732 171.305 125.413 169.141 125.21C168.232 125.122 167.339 124.865 166.416 125.068C165.282 125.314 164.475 124.831 163.942 123.889C163.352 122.844 162.751 121.792 162.3 120.688C161.383 118.448 160.446 116.399 158.037 115.153C156.359 114.28 155.595 112.313 155.165 110.42C154.844 109.039 154.559 107.65 154.345 106.253C154.21 105.394 153.841 104.808 153.016 104.523C148.639 103.014 146.431 99.4234 144.423 95.626C143.799 94.4419 143.14 93.2738 142.454 92.1238C141.764 90.9797 141.649 90.9396 140.509 91.6581C139.688 92.172 138.942 92.6275 138.013 91.8909C137.724 91.6662 137.33 91.7384 136.985 91.8448C136.209 92.0857 136.052 92.6917 136.558 93.3881C137.762 95.034 139.239 96.473 140.206 98.3055C140.678 99.2087 140.995 100.106 141.033 101.115C141.077 102.241 140.983 103.389 141.505 104.451C141.589 104.628 141.661 104.913 141.581 105.065C140.581 106.958 141.725 108.614 142.119 110.358C142.919 113.912 144.33 117.318 144.366 121.043C144.378 122.505 144.065 123.865 143.425 125.082C142.775 126.318 142.629 127.416 143.144 128.708C143.395 129.345 143.409 130.085 143.483 130.786C143.728 133.144 144.366 135.268 146.096 137.076C147.425 138.473 146.638 140.961 144.778 141.887C144.218 142.168 143.582 142.316 142.974 142.485C140.457 143.195 140.19 142.93 139.269 140.524C138.286 137.947 138.697 135.241 138.193 132.626C137.663 129.885 137.126 127.271 134.264 125.836C132.646 125.025 132.405 123.261 132.155 121.652C132.064 121.039 132.126 120.367 132.265 119.757C133.044 116.279 133.012 112.75 132.997 109.222C132.994 108.226 132.839 107.359 132.44 106.404C132.012 105.372 131.633 105.015 130.621 105.392C130.136 105.567 129.843 105.395 129.614 104.937C129.196 104.098 128.653 103.462 127.625 103.225C126.75 103.028 126.423 102.071 125.919 101.412C125.317 100.628 124.771 99.9833 123.643 100.417C122.915 100.698 122.431 100.24 122.078 99.6662C121.853 99.309 121.777 98.7972 121.474 98.5664C119.929 97.4083 119.248 96.0515 119.409 93.9943C119.507 92.79 116.22 91.6018 114.998 92.1799C114.448 92.4429 114.6 92.9165 114.771 93.2718C115.602 94.9958 115.935 96.8744 116.459 98.6968C117.153 101.141 117.298 103.544 116.047 105.872C114.952 107.913 115.187 110.141 115.544 112.222C116.049 115.141 116.29 118.087 116.678 121.011C117.101 124.183 116.756 127.334 114.679 130.025C114.416 130.36 114.079 130.727 114.191 131.161C114.707 133.174 114.283 135.237 114.572 137.261C114.769 138.621 115.217 139.815 115.989 140.961C117.512 143.232 116.487 145.67 113.78 146.142C112.439 146.377 110.783 147.336 109.738 146.11C108.668 144.849 108.391 143.011 108.57 141.309C108.762 139.482 108.867 137.652 108.891 135.825C108.913 134.121 108.608 132.452 107.791 130.918C107.49 130.348 107.127 129.869 106.603 129.459C104.476 127.817 103.695 125.505 104.624 122.896C106.156 118.601 106.503 114.083 107.229 109.639C107.334 108.987 107.823 107.945 106.332 108.124C105.927 108.17 105.949 107.871 106.079 107.562C106.296 107.032 105.975 106.474 106.22 105.912C106.579 105.105 106.143 104.682 105.347 104.692C104.54 104.702 104.197 104.463 104.271 103.586C104.329 102.888 104.129 102.251 103.468 101.746C102.684 101.151 102.664 100.14 102.497 99.2387C102.324 98.2995 102.072 97.4946 100.857 97.3723C99.6693 97.2558 99.7898 96.1177 99.7958 95.3712C99.8042 94.6286 99.9062 94.0245 99.2279 93.5106C98.3629 92.8483 99.2941 91.9191 98.9288 90.8955C97.9293 91.5617 97.0263 91.9351 96.0288 92.0636C95.6817 92.1097 95.2703 92.1337 95.0154 92.3365C93.442 93.5468 91.3689 93.4524 89.7153 94.3776C86.7351 96.0455 83.6225 95.0079 80.5539 95.0641C79.2113 95.0862 77.9268 95.0179 76.7046 94.4378C76.1045 94.1528 75.8156 94.5262 75.5026 94.9537C74.4169 96.453 74.1719 98.2312 73.9673 99.9693C73.6804 102.434 72.7712 104.564 71.2841 106.532C69.8793 108.393 68.5768 110.328 67.3586 112.315C66.5097 113.706 65.9498 115.273 66.0522 116.935C66.1124 117.915 65.8113 118.711 65.3397 119.492C63.2686 122.932 61.619 126.617 59.2088 129.857C58.0729 131.382 56.7744 132.512 54.7857 132.783C52.851 133.044 51.1793 133.971 49.7705 135.312C48.7288 136.309 47.4544 136.941 46.2484 137.656C43.9966 138.993 41.771 140.339 39.9127 142.218C38.3132 143.836 36.1999 143.262 34.2894 143.45C33.613 143.517 32.409 141.443 32.433 140.574C32.4572 139.508 33.1695 138.415 34.2532 138.252C35.3992 138.077 36.3705 137.497 37.4522 137.194C39.0075 136.761 39.9267 135.609 40.4485 134.147C41.0204 132.552 41.765 131.213 43.6434 130.854C44.5446 130.679 45.0282 129.881 45.1967 129.012C45.6664 126.581 46.9789 124.915 49.363 124.126C49.6921 124.018 50.0453 123.833 50.2641 123.58C51.8074 121.79 53.5413 120.112 54.5206 117.924C55.0605 116.72 55.6747 115.737 56.8286 115.014C58.2675 114.109 59.0201 112.664 59.3312 111C59.3974 110.655 59.4938 110.284 59.0381 110.117C58.6669 109.983 58.3197 110.079 58.0628 110.338C57.818 110.589 57.6113 110.886 57.4387 111.191C55.5462 114.589 52.566 116.355 48.9094 117.533C44.5084 118.94 39.8705 119.817 35.903 122.398C34.8072 123.115 33.5548 123.329 32.3568 123.731C30.6971 124.273 29.0615 124.909 27.4219 125.505C25.8906 126.065 24.1225 125.997 22.5191 126.581C21.7584 126.862 21.1123 126.39 20.8172 125.666C19.9462 123.518 18.8304 121.489 17.9675 119.323C16.3179 115.193 15.6054 110.799 14.1725 106.641C13.2935 104.086 13.3758 101.725 13.6627 99.1745C13.9277 96.8764 13.8534 94.5502 14.2267 92.2361C14.8869 88.1297 16.2657 84.3162 18.3588 80.7557C20.8675 76.4987 23.4522 72.286 26.6432 68.4866C28.1825 66.6521 29.796 64.8779 31.4014 63.0997C31.7768 62.6822 32.1661 62.3008 32.3788 61.5703C30.8938 61.217 29.5652 60.8176 28.0179 61.1207C24.5601 61.801 8.98871 58.1341 4.51339 57.3514C1.87431 56.8858 0.656206 54.9711 0.78661 52.3619C0.971219 48.7532 3.25514 46.6498 5.77176 44.6527C23.4543 30.6335 37.5405 34.1177 56.7082 38.2181ZM115.762 32.3355C112.947 30.1659 110.163 27.956 107.426 25.6921C105.63 24.2069 103.864 22.6895 102.029 21.2565C100.839 20.3212 74.5955 7.8794 68.5146 6.65313C61.7213 5.2843 54.904 4.0138 48.1047 2.66108C45.5018 2.14326 43.6936 4.078 44.4943 6.62297C50.5832 15.741 45.4696 13.9367 48.6285 15.6688L47.8759 16.9372C49.6801 19.8816 51.3457 22.4888 53.1881 24.9816L55.4599 27.7413C54.5769 27.8958 54.4745 28.2531 54.6833 29.0359C54.8178 29.5355 55.0224 29.931 55.3074 30.3404C56.2848 31.7253 57.794 31.8698 59.2529 32.0604C60.2984 32.209 61.4183 31.9963 62.4098 32.2833C67.8563 33.8467 95.5151 32.5441 68.1433 36.5001C67.15 36.6446 66.3191 37.2226 65.4963 37.7866C64.8381 38.2382 64.8079 38.7199 65.422 39.1033C66.2067 39.5869 66.9733 40.0948 67.76 40.5644L69.3515 40.9015C70.7001 41.2026 73.3833 41.9974 76.4217 42.9428L76.8913 43.015C77.1421 43.1435 77.4331 43.288 77.692 43.2679C79.1511 43.1535 80.4635 43.6934 81.8142 44.0908C88.0154 45.9032 85.7557 42.4068 91.5897 41.6983C92.0814 41.6402 92.551 41.5318 92.8941 41.9653C91.7983 43.7456 89.5547 44.2173 88.3265 45.857C88.756 46.3728 89.2115 46.8164 89.6931 47.2037C90.6384 47.5108 91.2124 47.6955 91.2385 47.6934C91.8686 48.0487 92.1636 47.832 92.3442 47.266C92.4907 46.7983 92.7115 46.2865 92.6553 45.8268C92.5129 44.6909 92.9785 43.7857 93.5082 42.8584C94.301 41.4716 93.2895 37.2466 96.954 40.0987C98.0277 40.9357 98.9429 39.9903 99.9202 39.9322C100.506 39.8941 103.876 36.0184 103.926 35.2778C104.02 33.5477 105.176 33.7283 106.918 34.7178C107.661 35.1373 108.299 35.0429 108.771 34.3566C110.898 31.2696 113.089 31.631 115.791 34.206C115.981 33.5116 115.578 32.8231 115.762 32.3355ZM98.1983 50.1361L98.8506 50.2425L98.9007 50.2042C100.049 49.3472 100.829 49.7586 101.241 50.6899C102.12 50.8485 103.007 50.971 103.87 51.1736C104.169 50.9489 104.404 50.6458 104.536 50.2404C104.652 49.8791 104.875 49.5299 105.168 49.1928C105.301 48.6468 105.425 48.2735 105.425 48.2735C105.425 47.0311 105.991 46.6337 106.715 45.7546C109.666 42.162 107.95 45.6242 110.366 47.868C110.573 48.0587 112.871 47.2198 114.482 43.7516C115.461 44.8615 116.493 44.3477 117.135 46.9208C118.181 43.9965 120.011 44.4099 120.822 44.432C122.319 44.4782 122.536 46.4249 123.302 46.5615C127.946 40.9417 126.877 50.5234 128.964 50.5113L128.938 50.3106C131.478 41.8288 129.421 52.0267 133.86 50.3106L135.024 49.8973C134.384 46.0958 135.209 45.6944 137.19 48.7412C137.495 48.1511 137.79 47.4105 138.099 46.4732C138.446 45.4195 138.34 43.3501 137.391 42.736C137.382 42.7276 136.628 41.7004 136.323 41.4776C136.162 41.3833 136 41.301 135.837 41.2267C135.197 42.3667 133.373 42.3908 132.803 41.04C132.06 39.2839 130.023 35.8116 129.455 39.7295C125.867 42.9829 128.346 35.8859 123.24 35.332C118.261 34.7981 121.472 35.8919 118.221 39.1053C113.103 38.9928 118.62 36.2814 113.587 36.502C113.561 37.9292 112.044 39.8519 111.277 39.9924C110.629 40.1087 108.73 39.2036 108.419 38.204C105.861 38.8022 106.27 38.0374 105.716 40.8152C105.481 43.1856 103.007 44.1591 103.27 40.6205C101.273 42.6839 100.637 43.5428 100.647 44.9398C100.675 48.6589 98.9127 48.695 97.8751 47.1255C96.8919 47.9604 95.8703 47.6975 98.1983 50.1361ZM163.546 63.1518C163.644 66.9492 161.969 69.8093 158.934 71.9207C156.96 73.3016 152.045 72.9523 150.489 70.1846C148.878 67.3225 147.648 64.4785 147.009 61.2451C146.578 59.0494 146.04 56.8557 145.548 54.658C145.288 53.4779 145.213 52.2896 145.356 51.0854C145.938 46.2624 149.038 44.3578 153.558 45.6864C158.314 47.0813 161.106 50.5173 162.398 55.3103C163.097 57.9033 163.364 60.5185 163.546 63.1518ZM155.055 69.2052C158.691 68.9 159.765 66.9552 160.602 63.9768C161.009 62.5115 160.861 60.928 160.887 59.3825C160.947 56.0629 159.894 53.3935 157.726 50.9609C155.87 48.8755 153.729 47.9684 150.963 48.4742C149.382 49.4014 148.792 51.3785 148.816 53.7568C148.822 54.4473 150.062 53.9575 150.162 54.6981C150.249 55.3505 149.193 57.235 149.339 57.9054C149.514 58.7061 150.431 58.1884 150.672 58.9832C150.887 59.6877 150.425 61.7147 150.672 62.3832C150.935 63.0997 152.183 62.7905 152.47 63.4408C152.894 64.4002 152.382 66.2668 152.807 66.9934C153.074 67.4409 154.038 67.1398 154.284 67.467C154.883 68.2698 154.708 69.3737 155.055 69.2052ZM134.292 102.643C135.109 103.114 135.653 103.869 136.419 104.361C137.15 104.826 137.806 104.628 137.78 103.859C137.73 102.332 137.965 100.808 137.371 99.2709C135.271 93.8678 130.969 90.6626 126.24 87.8908C125.008 87.1683 124.304 87.7785 124.426 89.2476C124.454 89.5668 124.641 89.8979 124.336 90.1889C124.225 90.0946 124.097 90.0244 124.015 89.9159C123.938 89.8076 123.924 89.651 123.852 89.5306C122.983 88.0113 122.229 87.9732 121.279 89.4242C121.093 89.7053 121.028 90.0786 120.942 90.4178C120.539 91.9953 120.76 93.5005 121.382 95.1383C123.182 97.3983 127.463 98.5724 134.292 102.643ZM34.755 142.087C37.2816 142.059 38.57 139.946 40.3863 138.728C40.4586 138.676 40.4646 138.457 40.4325 138.334C40.3762 138.119 40.2077 137.947 39.9768 138.047C38.0543 138.87 36.1277 139.679 34.2311 140.556C33.858 140.727 33.7115 141.198 33.9021 141.662C34.0626 142.055 34.3757 142.134 34.755 142.087ZM48.8875 132.407C47.322 132.648 45.8951 132.313 44.4382 132.602C43.3765 132.815 42.6058 133.333 42.1162 134.266C41.8633 134.76 41.5322 135.342 41.9276 135.85C42.3289 136.371 43.0234 136.227 43.513 136.034C45.4858 135.261 47.6593 134.766 48.8875 132.407ZM111.701 144.197C111.98 144.167 112.26 144.147 112.535 144.103C114.189 143.832 114.41 143.376 114.083 141.654C113.822 140.285 113.057 139.211 112.331 138.101C111.889 137.425 111.291 137.592 111.05 138.222C110.42 139.864 109.935 141.53 110.507 143.336C110.723 144.012 111.044 144.263 111.701 144.197ZM140.216 137.202C140.122 137.796 140.266 138.334 140.439 138.874C141.037 140.763 141.232 140.861 143.098 140.179C144.451 139.677 144.67 139.161 144.16 137.786C143.662 136.444 142.761 135.362 141.872 134.278C141.388 133.678 140.883 133.79 140.64 134.529C140.357 135.398 140.212 136.301 140.216 137.202ZM111.143 129.11C110.35 129.579 109.668 129.935 109.668 130.73C109.665 132.213 110.117 133.622 110.657 134.992C110.806 135.374 111.151 135.719 111.664 135.508C112.056 135.352 112.054 134.984 112.062 134.621C112.1 132.809 111.943 131.025 111.143 129.11ZM139.506 125.493C138.791 126.053 138.035 126.475 138.169 127.344C138.414 128.877 139.05 130.3 139.957 131.57C140.16 131.86 140.559 131.944 140.911 131.751C141.204 131.585 141.159 131.291 141.137 131.006C140.993 129.114 140.455 127.344 139.506 125.493ZM168.587 123.779C169.212 123.683 170.123 123.574 171.018 123.382C171.77 123.223 171.947 122.655 171.341 122.232C169.418 120.897 167.343 119.869 165.035 119.372C164.57 119.273 164.196 119.412 164.206 120.006C164.242 121.985 166.294 123.889 168.587 123.779ZM156.012 106.906C155.769 108.72 156.667 110.388 157.62 111.905C158.423 113.19 159.651 114.264 161.196 114.755C161.648 114.898 162.334 115.008 162.338 114.294C162.352 112.104 161.579 113.397 161.206 109.93C160.961 107.753 160.355 105.651 159.777 103.544C159.41 102.181 158.505 101.956 157.459 102.968C156.398 103.995 155.808 105.24 156.012 106.906ZM114.745 123.354C114.745 123.402 114.781 123.117 114.737 122.844C114.183 119.225 113.071 115.763 111.694 112.379C111.519 111.944 111.397 111.462 110.887 111.197C110.287 110.892 109.878 110.733 109.675 111.614C109.312 113.184 109.083 114.767 108.457 116.293C107.684 118.165 107.05 120.118 106.783 122.151C106.372 125.292 107.439 127.293 109.868 128.237C111.329 128.805 112.449 128.016 113.665 127.526C114.722 127.101 114.385 126.125 114.514 125.343C114.604 124.793 114.645 124.235 114.745 123.354ZM142.323 120.947C142.261 119.883 142.115 118.798 141.806 117.7C140.969 114.689 139.335 112.04 138.097 109.216C137.878 108.72 137.471 108.279 137.067 107.899C136.776 107.634 136.363 107.369 135.913 107.616C135.53 107.819 135.629 108.226 135.639 108.558C135.679 110.266 135.325 111.905 134.93 113.559C134.475 115.478 134.19 117.439 134.258 119.436C134.35 122.186 135.502 123.797 137.589 124.644C139.303 125.343 140.447 124.371 141.705 123.693C142.835 123.079 142.279 121.943 142.323 120.947ZM83.1368 85.7072C82.0009 85.4543 80.9051 85.8758 79.7852 85.9239C78.8821 85.9681 78.4025 86.5421 78.0152 87.2426C77.8286 87.5818 77.8546 87.925 78.1557 88.2039C78.3945 88.4247 78.6935 88.4066 78.9223 88.2261C79.9619 87.4011 81.0194 87.8326 82.1453 88.0012C83.2552 88.1738 84.1562 88.7257 85.0131 89.2777C86.9157 90.512 89.1372 89.9461 91.1402 90.5562C91.415 90.6425 91.8405 90.4278 92.1174 90.2371C92.6091 89.8979 93.141 89.7514 93.7109 89.7313C96.6149 89.643 98.2184 87.7122 99.6492 85.5445C100.081 84.8883 100.532 83.9991 100.014 83.4211C99.3723 82.6986 98.6238 83.4452 97.9796 83.8487C94.5659 85.9821 90.8672 86.5723 86.9136 85.9742C85.6734 85.7875 84.4312 85.376 83.1368 85.7072ZM62.2532 107.528C62.1549 110.099 62.3535 110.257 64.3323 109.796C65.1009 109.619 65.7492 109.28 66.3713 108.774C67.9527 107.488 68.3761 105.609 69.0445 103.853C69.787 101.902 70.1603 99.7304 71.25 98.0064C72.7451 95.6401 74.5051 93.4464 75.6511 90.8512C75.8036 90.506 76.3756 90.2452 75.9561 89.8156C75.5607 89.4102 75.0088 89.5748 74.5835 89.8337C74.2322 90.0505 73.9673 90.4056 73.6442 90.6807C71.1216 92.8242 69.0886 95.4715 66.6583 97.6893C63.5455 100.531 62.7068 104.182 62.2532 107.528ZM47.7415 129.82C48.1007 130.457 48.6005 130.844 49.3229 131.051C50.7077 131.436 52.0944 131.556 53.5192 131.352C54.3381 131.231 54.926 130.864 55.4498 130.2C57.3704 127.773 59.291 125.361 60.8002 122.627C62.486 119.58 63.638 116.371 64.2179 112.949C64.2801 112.592 64.3242 112.18 63.9931 111.988C63.674 111.807 63.2827 111.943 63.0258 112.212C62.3715 112.885 61.6692 113.441 60.7038 113.605C60.2483 113.684 59.8208 114.079 59.9071 114.47C59.1044 115.669 56.2666 120.259 53.0456 124.038C50.7197 126.766 47.4745 127.39 47.7415 129.82ZM147.858 81.5324C146.789 83.7563 146.405 85.7975 145.063 87.4333C144.495 88.1276 144.252 89.2095 144.68 90.2009C144.908 90.9375 146.311 90.5482 146.799 91.1544C147.421 91.927 147.14 93.623 147.357 93.7254C148.196 95.056 149.081 94.6164 149.179 95.3611C149.237 95.7907 148.2 97.1534 148.916 98.1229C149.905 99.5097 150.596 97.1835 151.288 99.7285C151.547 101.643 152.815 102.695 154.696 102.412C155.183 102.336 155.641 102.113 156.131 102.049C157.112 101.91 157.315 101.324 157.365 100.417C157.52 97.5327 156.382 95.048 155.039 92.6516C152.944 88.9064 150.07 85.671 147.858 81.5324ZM109.047 102.687C109.352 102.711 109.326 103.122 109.439 103.371C109.81 104.196 110.209 105.015 110.619 105.826C110.83 106.241 110.926 106.791 111.622 106.701C112.146 106.637 112.268 106.241 112.483 105.876C113.531 104.068 114.061 102.153 114.037 100.034C114 96.9145 113.107 94.0566 111.658 91.359C110.89 89.934 110.045 88.5331 109.078 87.2406C108.19 86.0524 107.322 86.2471 106.74 87.5617C106.603 87.8687 106.94 88.4869 106.226 88.479C105.903 88.1458 106.206 87.8025 106.172 87.4713C106.043 86.1366 105.668 85.9239 104.388 86.3233C103.962 86.4578 103.651 86.6726 103.348 86.9877C102.094 88.3164 101.598 89.9501 101.237 91.7986C100.89 93.057 106.599 102.456 109.047 102.687ZM165.898 49.0864C164.678 47.9062 163.253 46.8084 162.414 45.3833C160.961 42.9107 158.515 42.0175 156.241 40.8093C155.513 40.4199 154.634 40.2633 153.765 40.2794C150.235 40.3577 146.911 41.1424 143.859 43.0109C143.092 43.4826 142.767 44.0627 142.61 44.8636C142.171 47.1234 142.099 49.4155 141.98 51.7036C141.906 53.2269 142.54 54.6058 142.837 56.0569C142.875 56.2375 147.481 67.5373 146.887 69.7189C146.684 70.4555 148.856 74.0061 151.465 76.258C153.422 77.4019 150.355 76.4145 154.585 77.2334C156.733 78.0683 159.745 76.4606 161.445 76.5229C165.746 76.6835 164.03 78.1908 166.974 77.994C169.707 77.1391 167.871 50.9911 165.898 49.0864ZM102.848 78.6925C103.396 78.4617 103.44 78.1567 104.115 78.0683C105.279 79.0017 105.481 77.6709 106.691 78.6503C107.313 79.1581 107.705 81.3217 108.919 82.1346C109.613 82.5982 111.088 81.7633 111.797 82.1928C112.846 82.8251 113.154 84.6896 114.322 85.0869C115.052 85.3419 115.819 84.0614 116.631 84.1618C117.374 84.256 118.161 85.7453 118.992 85.677C119.943 85.5987 120.96 83.2385 122.056 82.8952C122.598 82.7226 123.164 84.6755 123.748 84.4307C124.54 84.0975 125.373 81.8776 126.248 81.394C126.83 81.0709 127.432 82.526 128.053 82.1326C128.239 81.6027 131.713 84.9304 132.201 84.3504C132.361 84.3363 132.564 84.3062 132.763 84.2961C134.428 84.2239 133.537 84.5149 135.083 85.0267C135.554 85.1873 136.598 85.8457 136.359 84.3423C136.277 83.8446 136.732 84.0513 136.949 84.0894C137.535 84.1978 138.057 84.816 138.787 84.244C139.407 84.2059 139.211 82.5881 139.725 81.8917C140.13 81.3538 141.274 81.8376 141.583 80.9785C141.87 80.1776 141.667 77.1109 141.854 76.0993C142.022 75.1781 143.184 75.0417 143.249 73.998C143.483 70.1946 140.427 63.8522 138.769 59.8663C137.864 59.1478 137.409 60.0549 136.887 60.5787C136.787 60.6791 136.712 60.8056 136.604 60.8939C137.842 66.0319 134.685 60.0128 133.24 63.4006C132.937 64.1152 135.783 66.2106 133.744 66.9512C131.31 66.9733 129.963 64.888 129.337 64.7032C127.577 64.1995 129.931 68.1013 127.22 67.7621C126.184 67.6336 125.466 65.7269 123.364 65.765C122.062 66.8749 123.501 70.0481 119.572 67.8041C109.238 76.3201 114.099 64.6753 108.542 69.6266C107.035 69.1229 106.573 70.1564 106.005 71.1279L106.071 71.174C100.215 68.2739 102.132 79.2866 102.848 78.6925ZM81.2924 82.7066C79.709 80.4366 82.4764 80.2439 83.4859 82.3253C84.0519 80.252 84.1241 81.4582 84.9109 80.9885C84.7101 80.559 84.1943 80.3543 83.7889 80.0913C82.1915 79.0377 80.8629 77.7853 79.6848 76.4908C75.7153 72.1374 73.1706 67.2683 72.1812 61.8873C71.9785 60.7855 71.6414 60.9762 71.4668 59.8703C71.4225 59.5993 71.545 59.2281 70.9188 59.208C70.381 59.802 69.9737 60.3581 69.9857 61.1307C70.0097 62.2808 69.8934 62.1584 69.7088 63.3245L68.1112 61.6164C66.9131 62.07 67.5835 64.2777 67.6758 64.8096C66.4174 65.3597 66.6081 63.764 65.2795 63.1157C64.252 66.0561 67.2503 73.2112 70.5857 77.1169C73.024 79.967 77.0077 82.9033 79.5505 83.1061L81.2924 82.7066ZM83.4116 62.8869C83.9134 65.6707 84.104 68.1694 85.3864 70.4776C86.723 72.876 87.9211 75.3287 89.6912 77.4642C91.0678 79.126 93.2192 80.0352 94.1224 82.1466C94.2348 82.4196 94.6742 82.3795 94.7605 82.0363C94.9051 81.4643 95.3144 81.2816 95.786 81.0909C96.095 80.9684 96.0991 80.6996 95.9807 80.3925C95.4388 78.9795 95.5332 77.7392 96.952 76.854C97.4738 76.5289 97.8691 75.9769 97.6404 75.437C97.3153 74.6663 97.6524 74.0802 97.8411 73.422C97.9655 73.0065 98.0398 72.4927 97.6686 72.2357C97.0985 71.8303 96.8176 72.4425 96.4804 72.7577C96.3239 72.9021 96.2076 73.0868 96.063 73.2413C95.7981 73.5162 95.4489 73.6828 95.1218 73.4761C94.7465 73.2293 94.9672 72.8761 95.1037 72.5449C95.8502 70.7365 95.8142 70.6523 94.1243 69.9236C92.8922 69.3958 92.8861 69.3917 93.6568 68.3561C93.8213 68.1394 94.1144 67.9808 93.9558 67.6437C93.7711 67.2503 93.466 67.2 93.0867 67.3687C92.7777 67.5092 92.5449 67.6698 92.2981 67.1559C90.514 66.4253 90.2351 65.48 91.8105 64.2717C91.1402 63.6576 90.6243 63.4428 89.9561 63.7198C89.631 63.8603 89.2817 63.9787 88.9626 63.7077C87.295 62.2847 85.3864 63.2361 83.4116 62.8869ZM128.667 54.1983C128.271 54.0237 127.872 53.8531 127.473 53.6765C127.314 53.54 127.156 53.4036 126.999 53.267C126.684 52.7351 125.995 52.7773 125.532 52.3278C125.048 51.8541 124.781 50.8988 124.234 50.7682C123.563 50.6097 122.901 51.2259 122.283 51.1155C121.847 51.0372 121.492 50.4391 121 50.4352C120.467 50.4352 119.933 50.965 119.467 51.0553C118.791 51.1877 118.261 50.8907 118.125 50.8104C117.228 50.6479 116.714 50.4271 116.611 52.1592C115.785 52.1211 115.841 50.688 114.926 50.9008C114.376 51.5209 115.042 52.4903 114.572 53.1707C114.031 53.0644 113.741 51.8501 113.117 52.4361C112.274 53.2209 111.195 53.0443 110.374 53.7648C109.688 54.3709 109.068 55.1296 108.415 55.82L108.447 55.8923L108.468 55.9645L108.477 56.0287V56.0323L108.481 56.0965V56.0989V56.1013L108.475 56.1614V56.1674L108.461 56.2256V56.228V56.2316L108.441 56.2877L108.438 56.2914L108.414 56.3475L108.408 56.3511V56.3535L108.376 56.4077L108.374 56.4101L108.37 56.4137L108.332 56.464L108.326 56.47L108.282 56.5201L108.276 56.5285L108.225 56.5747L108.217 56.5843L108.163 56.6284L108.151 56.638L108.093 56.6801L108.018 56.7323L108.004 56.7407L107.942 56.7808L107.924 56.7928L107.856 56.831L107.836 56.8407L107.766 56.8788L107.743 56.8884L107.671 56.9225L107.647 56.9346L107.573 56.9687L107.547 56.9807L107.467 57.0128L107.438 57.0224L107.36 57.0545L107.328 57.0665L107.248 57.0966L107.216 57.1087L107.135 57.1367L107.097 57.1488L107.017 57.1749L106.979 57.187L106.897 57.2151L106.856 57.229L106.772 57.2512L106.73 57.2652L106.646 57.2893L106.602 57.3033L106.519 57.3254L106.471 57.3375L106.389 57.3615L106.339 57.3755L106.256 57.3937L106.124 57.4278L106.07 57.4438L105.989 57.4618L105.935 57.4759L105.857 57.496L105.799 57.5101L105.723 57.5241L105.66 57.5402L105.586 57.5562L105.522 57.5703L105.45 57.5883L105.385 57.6024L105.313 57.6185L105.249 57.6325L105.181 57.6466L105.11 57.6626L105.046 57.6767L104.976 57.6907L104.914 57.7048L104.844 57.7208L104.781 57.7329L104.711 57.7468L104.651 57.7609L104.579 57.777L104.522 57.7891L104.45 57.8052L104.394 57.8172L104.32 57.8331L104.27 57.8453L104.195 57.8593L104.147 57.8714L104.077 57.8874L104.029 57.8958L103.957 57.9138L103.912 57.9234L103.842 57.9394L103.8 57.9478L103.728 57.966L103.692 57.9744L103.621 57.9925L103.585 58.001L103.517 58.0171L103.485 58.0267L103.415 58.0428L103.386 58.0524L103.318 58.0704L103.292 58.0764L103.23 58.0965L103.206 58.1025L103.144 58.1205L103.124 58.1289L103.065 58.147L103.045 58.153L102.991 58.1731L102.973 58.1791L102.923 58.1992L102.907 58.2052L102.861 58.2252L102.849 58.2313L102.805 58.2513L102.796 58.2597L102.756 58.2798L102.748 58.2858L102.714 58.3059L102.711 58.3095H102.709C98.6268 55.7606 94.4324 55.9492 87.1535 50.7408C85.7166 49.352 76.8181 46.3434 75.4173 45.9761C71.8973 45.0589 68.4474 43.8887 64.9714 42.8109C52.6373 38.9654 38.9163 37.5886 26.0421 38.8832C19.1585 39.5736 12.6262 45.0629 6.64576 48.501C-0.831959 54.9717 18.2635 56.6376 18.5645 55.2768C18.8716 53.8959 27.9928 52.3224 29.2632 52.5953C30.2847 52.8141 24.6975 56.6275 25.7471 56.8804C29.9154 57.878 35.1333 59.1423 41.8202 58.8494C43.5401 58.7731 52.0412 55.1885 53.2574 55.323C54.5718 55.4715 47.9813 59.8348 48.9987 60.0697C54.9853 61.4506 58.8245 59.9071 63.1212 57.6733C64.4537 57.5949 65.8745 57.8037 67.161 57.2819C67.0827 56.6577 66.306 56.6135 66.4245 55.9632C67.0566 56.1319 67.7049 56.1358 68.2266 56.5212C69.4167 57.4022 70.8396 57.7696 72.2224 57.7575C77.2636 57.7154 94.9923 59.9693 101.268 60.3928L101.25 60.445L101.244 60.4534L101.226 60.5176L101.217 60.5397L101.205 60.5778L101.189 60.628L101.187 60.64L101.169 60.7003L101.165 60.7203L101.156 60.7605L101.144 60.8126L101.141 60.8211L101.132 60.8832L101.125 60.9053L101.119 60.9434L101.111 60.9957L101.109 61.0041L101.103 61.0624L101.1 61.0844L101.094 61.1225L101.092 61.1728V61.1812L101.089 61.2414V61.2615V61.3497V61.3557L101.092 61.436L101.094 61.4701L101.1 61.5223V61.5259L101.106 61.5841L101.11 61.6041L101.116 61.6402L101.124 61.6884L101.142 61.7728L101.151 61.8049L101.167 61.8571V61.863L101.185 61.9173L101.191 61.9373L101.217 62.0056L101.223 62.0176L101.225 62.0236L101.245 62.0758L101.255 62.0979L101.269 62.128L101.295 62.1741L101.297 62.1802L101.324 62.2304L101.336 62.2544L101.352 62.2825L101.382 62.3307L101.384 62.3332L101.418 62.3834L101.434 62.4054L101.454 62.4335L101.491 62.4797L101.531 62.5319L101.547 62.5519L101.569 62.5801L101.611 62.6242L101.613 62.6278L101.655 62.6719L101.679 62.694L101.704 62.7201L101.75 62.7623L101.752 62.7659L101.802 62.812L101.826 62.8321L101.855 62.8602L101.905 62.9004L101.908 62.9028L101.922 62.9149L101.99 62.9671L102.023 62.9911L102.079 63.0313H102.082L102.143 63.0754L102.173 63.0935L102.207 63.1136L102.271 63.1557H102.274L102.342 63.1979L102.374 63.2159L102.412 63.236L102.484 63.2742H102.487L102.561 63.3123L102.597 63.3303L102.639 63.3504L102.713 63.3866H102.716L102.798 63.4206L102.836 63.4407L102.88 63.4588L102.963 63.493V63.4953L103.051 63.5274L103.095 63.5456L103.139 63.5616L103.232 63.5957C103.466 64.0011 106.808 64.0152 107.334 63.6439C107.821 63.3027 110.033 65.0448 112.008 64.8381C113.563 64.6756 115.002 62.5199 115.114 62.5681C115.267 62.6344 120.583 62.5681 121.655 62.5717C122.624 62.5802 122.068 60.9701 122.61 59.9887C123.493 59.9164 124.828 61.2813 125.648 60.7615C130.041 59.9967 133.521 54.7041 128.665 54.1983H128.667ZM53.5815 107.223C46.0697 103.393 48.6104 102.031 55.8713 105.886C55.2472 102.564 56.078 104.361 56.6881 103.383C56.1925 102.799 55.4699 102.675 54.8438 102.416C52.3513 101.376 50.0534 99.9452 47.8981 98.4038C40.6351 93.2015 34.6967 86.7348 30.2395 78.9595C29.3264 77.3719 29.0535 77.7692 28.1684 76.1657C27.9517 75.7742 27.8654 75.1721 27.1289 75.3567C26.8781 76.4366 26.7535 77.414 27.2452 78.5761C27.9798 80.3082 27.771 80.1637 28.2808 81.984L25.3829 79.963C24.2891 81.0548 26.4204 84.1597 26.8599 84.9284C25.7461 86.1908 24.9815 83.7202 23.0549 83.2024C23.6871 87.9892 31.5541 97.7515 37.8074 102.488C42.3751 105.946 48.773 109.001 51.8235 108.429L53.5815 107.223ZM66.1145 93.6531C62.4519 90.8954 64.9525 89.4443 68.623 92.3164C68.5547 88.9947 69.0866 90.791 69.8592 89.8136C69.4619 89.2336 68.7615 89.1031 68.1754 88.8462C65.8575 87.8066 63.7945 86.3775 61.898 84.834C55.5081 79.6338 50.6494 73.1671 47.4906 65.3897C46.8464 63.8021 46.5033 64.2015 45.8891 62.5978C45.7346 62.2065 45.7486 61.6023 44.984 61.787C44.5525 62.8689 44.2636 63.8462 44.5606 65.0083C45.0081 66.7384 44.8215 66.594 45.0282 68.4183L42.4694 66.3932C41.1891 67.4871 42.8086 70.5879 43.1116 71.3587C41.7911 72.6231 41.4399 70.1525 39.5956 69.6306C39.427 74.4215 45.6664 84.1819 51.127 88.9184C55.1168 92.3786 61.0069 95.4333 64.1516 94.8614L66.1145 93.6531ZM28.8749 120.704C28.8869 120.186 28.5216 119.883 28.2528 119.512C26.3582 116.935 23.661 115.263 21.2286 113.294C20.7551 112.911 20.2533 112.283 19.5468 112.816C18.997 113.234 18.8486 113.87 18.9107 114.561C19.0191 115.805 19.7918 116.785 20.2734 117.864C22.6736 123.209 23.0147 123.313 28.4875 121.078C28.6441 121.013 28.7464 120.827 28.8749 120.704ZM38.0121 115.875C39.2584 116.991 39.9869 115.919 40.8659 115.46C41.6325 115.062 41.462 114.603 40.8539 114.215C40.4987 113.987 40.1053 113.82 39.726 113.637C35.7283 111.743 32.2344 109.115 29.1859 105.958C25.8585 102.51 22.6997 98.9015 20.3557 94.6667C19.9744 93.9722 19.5007 93.5067 18.6638 93.9903C17.8029 94.4921 17.5962 95.4976 18.2766 96.2843C18.8084 96.8925 19.2418 97.4083 19.0251 98.3316C18.8546 99.0541 19.3221 99.3411 20.0606 99.0903C20.3216 99.004 20.6225 98.9919 20.8534 99.2649C21.0078 99.891 20.143 100.329 20.4821 100.963C20.8232 101.589 21.7183 100.439 21.63 101.156C21.5117 102.137 21.8227 102.123 22.5592 102.223C23.3038 102.326 23.4061 102.697 22.7941 103.341C22.2983 103.853 22.6716 104.234 23.3559 104.16C23.667 104.128 23.9238 103.692 24.3875 104.124C24.4416 104.901 23.7794 106.279 25.6257 106.067C25.8786 106.037 25.8966 106.504 25.9067 106.783C25.9448 107.751 26.2659 108.293 27.3576 107.835C27.8894 107.606 28.2607 107.945 28.1965 108.409C28.0721 109.25 28.5497 109.451 29.0775 109.96C29.8281 110.703 30.1532 111.831 31.5179 111.727C31.6183 111.718 31.8229 112.036 31.841 112.212C31.9213 113.061 32.391 113.208 33.1555 113.148C34.1489 113.073 34.4159 113.573 33.9683 114.464C33.8679 114.663 33.9021 114.868 34.1309 115.058C34.4941 115.092 37.8315 115.715 38.0121 115.875Z" fill="white"/>
</svg>
